<svg width="47" height="54" fill="none" xmlns="http://www.w3.org/2000/svg"><path d="M23.7 52.8V27.2l22.2-12.8V40L23.7 52.8z" fill="#1F2731"/><path d="M23.7 27.2L1.5 14.4 23.7 1.6l22.2 12.8-22.2 12.8z" fill="#BED6ED" stroke="#BED6ED" stroke-width="1.44" stroke-miterlimit="10" stroke-linejoin="bevel"/><path d="M23.7 1.6L1.5 14.4M23.7 1.6l22.2 12.8" stroke="#224CA1" stroke-width="1.728" stroke-miterlimit="10" stroke-linecap="round" stroke-linejoin="bevel"/><path d="M45.9 14.4L23.7 27.2" stroke="#224CA1" stroke-width=".576" stroke-miterlimit="10" stroke-linecap="round" stroke-linejoin="bevel"/><path d="M45.9 14.4V40m0 0L23.7 52.8" stroke="#224CA1" stroke-width="1.728" stroke-miterlimit="10" stroke-linecap="round" stroke-linejoin="bevel"/><path d="M23.7 52.8L1.5 40V14.4l22.2 12.8v25.6z" fill="#BED6ED" stroke="#BED6ED" stroke-width="1.44" stroke-miterlimit="10" stroke-linejoin="bevel"/><path d="M23.7 52.8L1.5 40m0 0V14.4" stroke="#224CA1" stroke-width="1.728" stroke-miterlimit="10" stroke-linecap="round" stroke-linejoin="bevel"/><path d="M1.5 14.4l22.2 12.8m0 0v25.6" stroke="#224CA1" stroke-width=".576" stroke-miterlimit="10" stroke-linecap="round" stroke-linejoin="bevel"/></svg>