<svg width="173" height="191" fill="none" xmlns="http://www.w3.org/2000/svg"><path d="M80.3 175.8c-1.2.7-2.9.6-4.8-.5l-57.2-33c-3.7-2.2-6.8-7.4-6.8-11.8v-31l79.1-45.7v31c0 4.3 3.1 9.6 6.8 11.8l57.2 33c1.9 1.1 3.6 1.2 4.8.5l-79.1 45.7z" fill="#17222F"/><path d="M11.5 99.6L1.4 93.8l79.1-45.7L90.6 54 11.5 99.6z" fill="#17222F"/><path d="M80.5 48.1L1.4 93.8m79.1-45.7L90.6 54" stroke="#224CA1" stroke-width="1.728" stroke-miterlimit="10" stroke-linecap="round" stroke-linejoin="bevel"/><path d="M90.6 54L11.5 99.6" stroke="#224CA1" stroke-width=".576" stroke-miterlimit="10" stroke-linecap="round" stroke-linejoin="bevel"/><path d="M90.6 54v31c0 4.3 3.1 9.6 6.8 11.8l57.2 33c1.9 1.1 3.6 1.2 4.8.5m0-.1l-79.1 45.6m79.1-45.6l-79.1 45.6" stroke="#224CA1" stroke-width="1.728" stroke-miterlimit="10" stroke-linecap="round" stroke-linejoin="bevel"/><path d="M87.5 188.3c3.1-1.8 5-5.6 5-11v-31l79.1-45.7v31c0 5.4-1.9 9.2-5 11l-79.1 45.7z" fill="#17222F"/><path d="M92.5 146.4l-10.2-5.9 79.1-45.7 10.2 5.9-79.1 45.7z" fill="#17222F"/><path d="M161.4 94.8l-79.1 45.7m79.1-45.7l10.2 5.9" stroke="#224CA1" stroke-width="1.728" stroke-miterlimit="10" stroke-linecap="round" stroke-linejoin="bevel"/><path d="M171.6 100.7l-79.1 45.7" stroke="#224CA1" stroke-width=".576" stroke-miterlimit="10" stroke-linecap="round" stroke-linejoin="bevel"/><path d="M171.6 100.7v31c0 5.4-1.9 9.2-5 11m0-.1l-79.1 45.7" stroke="#224CA1" stroke-width="1.728" stroke-miterlimit="10" stroke-linecap="round" stroke-linejoin="bevel"/><path d="M87.5 188.3c-3.1 1.8-7.3 1.5-12-1.2l-57.2-33c-9.4-5.4-17-18.6-17-29.4v-31l10.2 5.9v31c0 4.3 3.1 9.6 6.8 11.8l57.2 33c1.9 1.1 3.6 1.2 4.8.5 1.2-.7 2-2.2 2-4.4v-31l10.2 5.9v31c0 5.3-1.9 9.1-5 10.9z" fill="#17222F"/><path d="M87.5 188.3c-3.1 1.8-7.3 1.5-12-1.2l-57.2-33c-9.4-5.4-17-18.6-17-29.4v-31" stroke="#224CA1" stroke-width="1.728" stroke-miterlimit="10" stroke-linecap="round" stroke-linejoin="bevel"/><path d="M1.4 93.8l10.1 5.8m0 0v31c0 4.3 3.1 9.6 6.8 11.8l57.2 33c1.9 1.1 3.6 1.2 4.8.5" stroke="#224CA1" stroke-width=".576" stroke-miterlimit="10" stroke-linecap="round" stroke-linejoin="bevel"/><path d="M80.3 175.8c1.2-.7 2-2.2 2-4.4v-31" stroke="#224CA1" stroke-width="1.728" stroke-miterlimit="10" stroke-linecap="round" stroke-linejoin="bevel"/><path d="M82.3 140.5l10.2 5.9m0 0v31c0 5.4-1.9 9.2-5 11" stroke="#224CA1" stroke-width=".576" stroke-miterlimit="10" stroke-linecap="round" stroke-linejoin="bevel"/><path d="M90.6 46.7L11.5 92.4" stroke="#224CA1" stroke-width="1.728" stroke-miterlimit="10" stroke-linecap="round" stroke-linejoin="bevel"/><path d="M11.5 92.4V64.6c0-2.2.8-3.7 2-4.4l79.1-45.7c-1.2.7-2 2.2-2 4.4v27.8L11.5 92.4z" fill="#17222F"/><path d="M92.6 14.5L13.5 60.2m79.1-45.7c-1.2.7-2 2.2-2 4.4v27.8m0 0L11.5 92.4" stroke="#224CA1" stroke-width="1.728" stroke-miterlimit="10" stroke-linecap="round" stroke-linejoin="bevel"/><path d="M92.5 139.1v-27.8c0-10.8-7.6-24-17-29.4l-57.2-33c-4.7-2.7-8.9-3-12-1.2L85.4 2c3.1-1.8 7.3-1.5 12 1.2l57.2 33c9.4 5.4 17 18.6 17 29.4v27.8l-79.1 45.7z" fill="#17222F"/><path d="M85.4 2.1l-79 45.6m79-45.6c3.1-1.8 7.3-1.5 12 1.2l57.2 33c9.4 5.4 17 18.6 17 29.4v27.8m0-.1l-79.1 45.7" stroke="#224CA1" stroke-width="1.728" stroke-miterlimit="10" stroke-linecap="round" stroke-linejoin="bevel"/><path d="M92.5 139.1l-10.2-5.9v-27.8c0-4.3-3.1-9.6-6.8-11.8l-57.2-33c-1.9-1.1-3.6-1.2-4.8-.5-1.2.7-2 2.2-2 4.4v27.8L1.3 86.4V58.6c0-5.4 1.9-9.2 5-11 3.1-1.8 7.3-1.5 12 1.2l57.2 33c9.4 5.4 17 18.6 17 29.4v27.9z" fill="#17222F"/><path d="M92.5 139.1l-10.2-5.9m0 0v-27.8c0-4.3-3.1-9.6-6.8-11.8l-57.2-33c-1.9-1.1-3.6-1.2-4.8-.5" stroke="#224CA1" stroke-width="1.728" stroke-miterlimit="10" stroke-linecap="round" stroke-linejoin="bevel"/><path d="M13.5 60.2c-1.2.7-2 2.2-2 4.4v27.8" stroke="#224CA1" stroke-width=".576" stroke-miterlimit="10" stroke-linecap="round" stroke-linejoin="bevel"/><path d="M11.5 92.4L1.4 86.5m0 0V58.7c0-5.4 1.9-9.2 5-11" stroke="#224CA1" stroke-width="1.728" stroke-miterlimit="10" stroke-linecap="round" stroke-linejoin="bevel"/><path d="M6.4 47.7c3.1-1.8 7.3-1.5 12 1.2l57.2 33c9.4 5.4 17 18.6 17 29.4v27.8" stroke="#224CA1" stroke-width=".576" stroke-miterlimit="10" stroke-linecap="round" stroke-linejoin="bevel"/><path d="M25.2 66.9c1-.6 2.4-.5 4 .4l47.5 27.4c3.1 1.8 5.6 6.2 5.6 9.8v54.8c0 1.8-.6 3.1-1.7 3.7-1 .6-2.4.5-4-.4l-47.5-27.4c-3.1-1.8-5.6-6.2-5.6-9.8V70.6c.1-1.9.7-3.1 1.7-3.7z" fill="#fff" stroke="#fff" stroke-width="1.44" stroke-miterlimit="10" stroke-linejoin="bevel"/><path d="M25.2 66.9c1-.6 2.4-.5 4 .4l47.5 27.4c3.1 1.8 5.6 6.2 5.6 9.8v54.8c0 1.8-.6 3.1-1.7 3.7" fill="#fff"/><path d="M25.2 66.9c1-.6 2.4-.5 4 .4l47.5 27.4c3.1 1.8 5.6 6.2 5.6 9.8v54.8c0 1.8-.6 3.1-1.7 3.7" stroke="#fff" stroke-width=".576" stroke-miterlimit="10" stroke-linecap="round" stroke-linejoin="bevel"/><path d="M80.7 163c-1 .6-2.4.5-4-.4l-47.5-27.4c-3.1-1.8-5.6-6.2-5.6-9.8V70.6c0-1.8.6-3.1 1.7-3.7" fill="#fff"/><path d="M80.7 163c-1 .6-2.4.5-4-.4l-47.5-27.4c-3.1-1.8-5.6-6.2-5.6-9.8V70.6c0-1.8.6-3.1 1.7-3.7" stroke="#fff" stroke-width="1.728" stroke-miterlimit="10" stroke-linecap="round" stroke-linejoin="bevel"/><path d="M119.1 52c0-9.3-13-16.8-29.1-16.8S60.9 42.7 60.9 52V41.2c0-9.3 13-16.8 29.1-16.8s29.1 7.5 29.1 16.8V52z" fill="#17222F"/><path d="M60.9 41.2c0-9.3 13-16.8 29.1-16.8s29.1 7.5 29.1 16.8" stroke="#224CA1" stroke-width="1.728" stroke-miterlimit="10" stroke-linecap="round" stroke-linejoin="bevel"/><path d="M119.1 41.1c0 9.3-13 16.8-29.1 16.8s-29.1-7.5-29.1-16.8" stroke="#224CA1" stroke-width="1.728" stroke-miterlimit="10" stroke-linecap="round" stroke-linejoin="bevel"/><path d="M63 45.6c4.4-6.1 14.8-10.4 26.9-10.4 12.8 0 23.7 4.8 27.6 11.4" stroke="#224CA1" stroke-width=".576" stroke-miterlimit="10" stroke-linecap="round" stroke-linejoin="bevel"/><path d="M90 57.8c15.188 0 27.5-5.06 27.5-11.3 0-6.24-12.312-11.3-27.5-11.3s-27.5 5.06-27.5 11.3c0 6.24 12.312 11.3 27.5 11.3z" fill="#fff" stroke="#fff" stroke-width="1.44" stroke-miterlimit="10" stroke-linejoin="bevel"/><path d="M108.874 117.55c1.27-2.2 1.253-4.588-.039-5.333-1.291-.746-3.368.433-4.638 2.633s-1.253 4.588.038 5.334c1.292.746 3.368-.434 4.639-2.634z" fill="#17222F"/><path d="M104.3 120.2c-1.3-.7-1.3-3.1 0-5.3 1.3-2.2 3.3-3.4 4.6-2.7" stroke="#224CA1" stroke-width=".576" stroke-miterlimit="10" stroke-linecap="round" stroke-linejoin="bevel"/><path d="M108.9 112.2c1.3.7 1.3 3.1 0 5.3-1.3 2.2-3.3 3.4-4.6 2.7" stroke="#224CA1" stroke-width="1.728" stroke-miterlimit="10" stroke-linecap="round" stroke-linejoin="bevel"/><path d="M162.566 87.869c1.27-2.2 1.253-4.588-.038-5.334-1.292-.745-3.368.434-4.638 2.634-1.271 2.2-1.254 4.588.038 5.334 1.291.745 3.368-.434 4.638-2.634z" fill="#17222F"/><path d="M157.9 90.5c-1.3-.7-1.3-3.1 0-5.3 1.3-2.2 3.3-3.4 4.6-2.7" stroke="#224CA1" stroke-width=".576" stroke-miterlimit="10" stroke-linecap="round" stroke-linejoin="bevel"/><path d="M162.5 82.5c1.3.7 1.3 3.1 0 5.3-1.3 2.2-3.3 3.4-4.6 2.7" stroke="#224CA1" stroke-width="1.728" stroke-miterlimit="10" stroke-linecap="round" stroke-linejoin="bevel"/><path d="M108.894 152.338c1.27-2.2 1.253-4.588-.039-5.333-1.291-.746-3.368.433-4.638 2.633s-1.253 4.588.038 5.334c1.292.746 3.368-.434 4.639-2.634z" fill="#17222F"/><path d="M104.3 155c-1.3-.7-1.3-3.1 0-5.3 1.3-2.2 3.3-3.4 4.6-2.7" stroke="#224CA1" stroke-width=".576" stroke-miterlimit="10" stroke-linecap="round" stroke-linejoin="bevel"/><path d="M108.9 147c1.3.7 1.3 3.1 0 5.3-1.3 2.2-3.3 3.4-4.6 2.7" stroke="#224CA1" stroke-width="1.728" stroke-miterlimit="10" stroke-linecap="round" stroke-linejoin="bevel"/><path d="M162.586 122.657c1.27-2.2 1.253-4.588-.038-5.334-1.292-.745-3.368.434-4.639 2.634-1.27 2.2-1.253 4.588.039 5.334 1.291.745 3.368-.434 4.638-2.634z" fill="#17222F"/><path d="M157.9 125.3c-1.3-.7-1.3-3.1 0-5.3 1.3-2.2 3.3-3.4 4.6-2.7" stroke="#224CA1" stroke-width=".576" stroke-miterlimit="10" stroke-linecap="round" stroke-linejoin="bevel"/><path d="M162.5 117.3c1.3.7 1.3 3.1 0 5.3-1.3 2.2-3.3 3.4-4.6 2.7" stroke="#224CA1" stroke-width="1.728" stroke-miterlimit="10" stroke-linecap="round" stroke-linejoin="bevel"/></svg>