<svg width="172" height="145" fill="none" xmlns="http://www.w3.org/2000/svg"><path d="M71.9 10l15.9 9.2v44.7l-15.9-9.1V10z" fill="#18232D"/><path d="M87.8 19.2l15.8-9.2v44.8l-15.8 9.1V19.2z" fill="#18232D"/><path d="M103.6 54.8V10m0 44.8l-15.8 9.1" stroke="#224CA1" stroke-width="1.728" stroke-miterlimit="10" stroke-linecap="round" stroke-linejoin="bevel"/><path d="M87.8 63.9V19.2" stroke="#224CA1" stroke-width=".576" stroke-miterlimit="10" stroke-linecap="round" stroke-linejoin="bevel"/><path d="M87.8 63.9l-15.9-9.1m0 0V10" stroke="#224CA1" stroke-width="1.728" stroke-miterlimit="10" stroke-linecap="round" stroke-linejoin="bevel"/><path d="M71.9 10L87.8.9l15.8 9.1-15.8 9.2L71.9 10z" fill="#18232D"/><path d="M71.9 10L87.8.9m0 0l15.8 9.1" stroke="#224CA1" stroke-width="1.728" stroke-miterlimit="10" stroke-linecap="round" stroke-linejoin="bevel"/><path d="M103.6 10l-15.8 9.2m0 0L71.9 10" stroke="#224CA1" stroke-width=".576" stroke-miterlimit="10" stroke-linecap="round" stroke-linejoin="bevel"/><path d="M80 68.4l-15.8 9.1-15.9-9.1 15.9-9.2L80 68.4z" fill="#18232D" stroke="#224CA1" stroke-width="1.728" stroke-miterlimit="10" stroke-linecap="round" stroke-linejoin="bevel"/><path d="M125.3 56.1l-15.8-9.2v24.9l15.8 9.1V56.1zm-15.8-9.2l-15.9 9.2v24.8l15.9-9.1V46.9z" fill="#18232D"/><path d="M93.6 80.9V56.1m0 24.8l15.9-9.1" stroke="#224CA1" stroke-width="1.728" stroke-miterlimit="10" stroke-linecap="round" stroke-linejoin="bevel"/><path d="M109.5 71.8V46.9" stroke="#224CA1" stroke-width=".576" stroke-miterlimit="10" stroke-linecap="round" stroke-linejoin="bevel"/><path d="M109.5 71.8l15.8 9.1m0 0V56.1m0 24.8V56.1M93.6 80.9V56.1" stroke="#224CA1" stroke-width="1.728" stroke-miterlimit="10" stroke-linecap="round" stroke-linejoin="bevel"/><path d="M70.7 56.4l38.1 22.1v24.8l-38.1-22V56.4z" fill="#18232D"/><path d="M108.8 78.5l39.5-22.8v24.8l-39.5 22.8V78.5z" fill="#18232D"/><path d="M148.3 80.5V55.7m0 24.8l-39.5 22.8" stroke="#224CA1" stroke-width="1.728" stroke-miterlimit="10" stroke-linecap="round" stroke-linejoin="bevel"/><path d="M108.8 103.3V78.5" stroke="#224CA1" stroke-width=".576" stroke-miterlimit="10" stroke-linecap="round" stroke-linejoin="bevel"/><path d="M108.8 103.3l-38.1-22m0 0V56.4" stroke="#224CA1" stroke-width="1.728" stroke-miterlimit="10" stroke-linecap="round" stroke-linejoin="bevel"/><path d="M110.1 33.7L70.7 56.5l38.2 22 39.4-22.8-38.2-22zm-.6 31.5l-15.8-9.1 15.8-9.1 15.8 9.1-15.8 9.1z" fill="#fff" stroke="#fff" stroke-width="1.44" stroke-miterlimit="10" stroke-linejoin="bevel"/><path d="M109.5 65.2l-15.9-9.1m31.7 0l-15.8 9.1" stroke="#224CA1" stroke-width="1.728" stroke-miterlimit="10" stroke-linecap="round" stroke-linejoin="bevel"/><path d="M109.5 46.9l15.8 9.2m-31.7 0l15.9-9.2m-.7 31.6L70.7 56.4m77.6-.7l-39.5 22.8" stroke="#224CA1" stroke-width=".576" stroke-miterlimit="10" stroke-linecap="round" stroke-linejoin="bevel"/><path d="M110.1 33.7l38.2 22m-77.6.7l39.4-22.7" stroke="#224CA1" stroke-width="1.728" stroke-miterlimit="10" stroke-linecap="round" stroke-linejoin="bevel"/><path d="M29.4 32.4c0 1.7 1.1 3.3 3.3 4.6 4.4 2.5 11.5 2.5 15.8 0 2.2-1.3 3.3-2.9 3.3-4.6V82c0 1.7-1.1 3.3-3.3 4.6-4.4 2.5-11.5 2.5-15.8 0-2.2-1.3-3.3-2.9-3.3-4.6V32.4z" fill="#fff" stroke="#fff" stroke-width="1.44" stroke-miterlimit="10" stroke-linejoin="bevel"/><path d="M51.8 82V32.4m0 49.6c0 1.7-1.1 3.3-3.3 4.6-4.4 2.5-11.5 2.5-15.8 0-2.2-1.3-3.3-2.9-3.3-4.6m0 0V32.4" stroke="#224CA1" stroke-width="1.728" stroke-miterlimit="10" stroke-linecap="round" stroke-linejoin="bevel"/><path d="M29.4 32.4c0-1.7 1.1-3.3 3.3-4.6 4.4-2.5 11.5-2.5 15.8 0 2.2 1.3 3.3 2.9 3.3 4.6 0 1.7-1.1 3.3-3.3 4.6-4.4 2.5-11.5 2.5-15.8 0-2.2-1.3-3.3-2.9-3.3-4.6z" fill="#18232D"/><path d="M29.4 32.4c0-1.7 1.1-3.3 3.3-4.6 4.4-2.5 11.5-2.5 15.8 0 2.2 1.3 3.3 2.9 3.3 4.6" stroke="#224CA1" stroke-width="1.728" stroke-miterlimit="10" stroke-linecap="round" stroke-linejoin="bevel"/><path d="M51.8 32.4c0 1.7-1.1 3.3-3.3 4.6-4.4 2.5-11.5 2.5-15.8 0-2.2-1.3-3.3-2.9-3.3-4.6" stroke="#224CA1" stroke-width=".576" stroke-miterlimit="10" stroke-linecap="round" stroke-linejoin="bevel"/><path d="M138.9 73.2l15.8 9.2v20.2l-15.8-9.2V73.2z" fill="#18232D"/><path d="M154.7 82.4l15.9-9.2v20.2l-15.9 9.2V82.4z" fill="#18232D"/><path d="M170.6 93.4V73.2m0 20.2l-15.9 9.2" stroke="#224CA1" stroke-width="1.728" stroke-miterlimit="10" stroke-linecap="round" stroke-linejoin="bevel"/><path d="M154.7 102.6V82.4" stroke="#224CA1" stroke-width=".576" stroke-miterlimit="10" stroke-linecap="round" stroke-linejoin="bevel"/><path d="M154.7 102.6l-15.8-9.2m0 0V73.2" stroke="#224CA1" stroke-width="1.728" stroke-miterlimit="10" stroke-linecap="round" stroke-linejoin="bevel"/><path d="M138.9 73.2l15.8-9.1 15.9 9.1-15.9 9.2-15.8-9.2z" fill="#18232D"/><path d="M138.9 73.2l15.8-9.1m0 0l15.9 9.1" stroke="#224CA1" stroke-width="1.728" stroke-miterlimit="10" stroke-linecap="round" stroke-linejoin="bevel"/><path d="M170.6 73.2l-15.9 9.2m0 0l-15.8-9.2" stroke="#224CA1" stroke-width=".576" stroke-miterlimit="10" stroke-linecap="round" stroke-linejoin="bevel"/><path d="M47.1 86.3l15.8 9.2v8.5l-15.8-9.1v-8.6z" fill="#18232D"/><path d="M62.9 95.5l15.9-9.2v8.6L62.9 104v-8.5z" fill="#18232D"/><path d="M78.8 94.9v-8.6m0 8.6L62.9 104" stroke="#224CA1" stroke-width="1.728" stroke-miterlimit="10" stroke-linecap="round" stroke-linejoin="bevel"/><path d="M62.9 104v-8.5" stroke="#224CA1" stroke-width=".576" stroke-miterlimit="10" stroke-linecap="round" stroke-linejoin="bevel"/><path d="M62.9 104l-15.8-9.1m0 0v-8.6" stroke="#224CA1" stroke-width="1.728" stroke-miterlimit="10" stroke-linecap="round" stroke-linejoin="bevel"/><path d="M47.1 86.3l15.8-9.1 15.9 9.1-15.9 9.2-15.8-9.2z" fill="#18232D"/><path d="M47.1 86.3l15.8-9.1m0 0l15.9 9.1" stroke="#224CA1" stroke-width="1.728" stroke-miterlimit="10" stroke-linecap="round" stroke-linejoin="bevel"/><path d="M78.8 86.3l-15.9 9.2m0 0l-15.8-9.2" stroke="#224CA1" stroke-width=".576" stroke-miterlimit="10" stroke-linecap="round" stroke-linejoin="bevel"/><path d="M1.2 60.4L17 69.6v35.2L1.2 95.6V60.4zM17 69.6l15.9-9.2v35.2L17 104.8V69.6z" fill="#18232D"/><path d="M32.9 95.6V60.4m0 35.2L17 104.8" stroke="#224CA1" stroke-width="1.728" stroke-miterlimit="10" stroke-linecap="round" stroke-linejoin="bevel"/><path d="M17 104.8V69.6" stroke="#224CA1" stroke-width=".576" stroke-miterlimit="10" stroke-linecap="round" stroke-linejoin="bevel"/><path d="M17 104.8L1.2 95.6m0 0V60.4" stroke="#224CA1" stroke-width="1.728" stroke-miterlimit="10" stroke-linecap="round" stroke-linejoin="bevel"/><path d="M1.2 60.4L17 51.3l15.9 9.1L17 69.6 1.2 60.4z" fill="#fff" stroke="#fff" stroke-width="1.44" stroke-miterlimit="10" stroke-linejoin="bevel"/><path d="M1.2 60.4L17 51.3m0 0l15.9 9.1" stroke="#224CA1" stroke-width="1.728" stroke-miterlimit="10" stroke-linecap="round" stroke-linejoin="bevel"/><path d="M32.9 60.4L17 69.6m0 0L1.2 60.4" stroke="#224CA1" stroke-width=".576" stroke-miterlimit="10" stroke-linecap="round" stroke-linejoin="bevel"/><path d="M55.2 108.5l-15.9 9.2-15.8-9.2 15.8-9.1 15.9 9.1z" fill="#fff" stroke="#fff" stroke-width="1.728" stroke-miterlimit="10" stroke-linecap="round" stroke-linejoin="bevel"/><path d="M118.2 10c0 1.1.7 2.1 2.1 2.9l5.8 3.4c2.8 1.6 7.3 1.6 10 0l5.8-3.4c1.4-.8 2.1-1.8 2.1-2.9v97c0 1-.7 2.1-2.1 2.9l-5.8 3.4c-2.8 1.6-7.3 1.6-10 0l-5.8-3.4c-1.4-.8-2.1-1.9-2.1-2.9V10z" fill="#18232D"/><path d="M144 107.1V10m0 97.1c0 1-.7 2.1-2.1 2.9l-5.8 3.4c-2.8 1.6-7.3 1.6-10 0l-5.8-3.4c-1.4-.8-2.1-1.9-2.1-2.9m0-.1V10" stroke="#224CA1" stroke-width="1.728" stroke-miterlimit="10" stroke-linecap="round" stroke-linejoin="bevel"/><path d="M118.2 10c0-1 .7-2.1 2.1-2.9l5.8-3.4c2.8-1.6 7.3-1.6 10 0l5.8 3.4c1.5.8 2.1 1.9 2.1 2.9s-.7 2.1-2.1 2.9l-5.8 3.4c-2.8 1.6-7.3 1.6-10 0l-5.8-3.4c-1.4-.8-2.1-1.8-2.1-2.9z" fill="#fff" stroke="#fff" stroke-width="1.44" stroke-miterlimit="10" stroke-linejoin="bevel"/><path d="M118.2 10c0-1 .7-2.1 2.1-2.9l5.8-3.4c2.8-1.6 7.3-1.6 10 0l5.8 3.4c1.5.8 2.1 1.9 2.1 2.9" stroke="#224CA1" stroke-width="1.728" stroke-miterlimit="10" stroke-linecap="round" stroke-linejoin="bevel"/><path d="M144 10c0 1-.7 2.1-2.1 2.9l-5.8 3.4c-2.8 1.6-7.3 1.6-10 0l-5.8-3.4c-1.4-.8-2.1-1.9-2.1-2.9" stroke="#224CA1" stroke-width=".576" stroke-miterlimit="10" stroke-linecap="round" stroke-linejoin="bevel"/><path d="M69.4 94.4l38.2 22.1v13.3l-38.2-22V94.4z" fill="#18232D"/><path d="M107.6 116.5l15.8-9.2v13.4l-15.8 9.1v-13.3z" fill="#18232D"/><path d="M123.4 120.7v-13.4m0 13.4l-15.8 9.1" stroke="#224CA1" stroke-width="1.728" stroke-miterlimit="10" stroke-linecap="round" stroke-linejoin="bevel"/><path d="M107.6 129.8v-13.3" stroke="#224CA1" stroke-width=".576" stroke-miterlimit="10" stroke-linecap="round" stroke-linejoin="bevel"/><path d="M107.6 129.8l-38.2-22m0 0V94.4" stroke="#224CA1" stroke-width="1.728" stroke-miterlimit="10" stroke-linecap="round" stroke-linejoin="bevel"/><path d="M69.4 94.4l15.8-9.1 38.2 22-15.8 9.2-38.2-22.1z" fill="#18232D"/><path d="M69.4 94.4l15.8-9.1m0 0l38.2 22" stroke="#224CA1" stroke-width="1.728" stroke-miterlimit="10" stroke-linecap="round" stroke-linejoin="bevel"/><path d="M123.4 107.3l-15.8 9.2m0 0L69.4 94.4" stroke="#224CA1" stroke-width=".576" stroke-miterlimit="10" stroke-linecap="round" stroke-linejoin="bevel"/><path d="M91.7 88.7l15.9 9.2v18.6l-15.9-9.2V88.7z" fill="#18232D"/><path d="M107.6 97.9l15.8-9.2v18.6l-15.8 9.2V97.9z" fill="#18232D"/><path d="M123.4 107.3V88.7m0 18.6l-15.8 9.2" stroke="#224CA1" stroke-width="1.728" stroke-miterlimit="10" stroke-linecap="round" stroke-linejoin="bevel"/><path d="M107.6 116.5V97.9" stroke="#224CA1" stroke-width=".576" stroke-miterlimit="10" stroke-linecap="round" stroke-linejoin="bevel"/><path d="M107.6 116.5l-15.9-9.2m0 0V88.7" stroke="#224CA1" stroke-width="1.728" stroke-miterlimit="10" stroke-linecap="round" stroke-linejoin="bevel"/><path d="M91.7 88.7l15.9-9.1 15.8 9.1-15.8 9.2-15.9-9.2z" fill="#18232D"/><path d="M91.7 88.7l15.9-9.1m0 0l15.8 9.1" stroke="#224CA1" stroke-width="1.728" stroke-miterlimit="10" stroke-linecap="round" stroke-linejoin="bevel"/><path d="M123.4 88.7l-15.8 9.2m0 0l-15.9-9.2" stroke="#224CA1" stroke-width=".576" stroke-miterlimit="10" stroke-linecap="round" stroke-linejoin="bevel"/><path d="M50.4 113.3c0 1.7 1.1 3.3 3.3 4.6 4.4 2.5 11.5 2.5 15.8 0 2.2-1.3 3.3-2.9 3.3-4.6v8.1c0 1.7-1.1 3.3-3.3 4.6-4.4 2.5-11.5 2.5-15.8 0-2.2-1.3-3.3-2.9-3.3-4.6v-8.1z" fill="#18232D"/><path d="M72.8 121.4v-8.1m0 8.1c0 1.7-1.1 3.3-3.3 4.6-4.4 2.5-11.5 2.5-15.8 0-2.2-1.3-3.3-2.9-3.3-4.6m0 0v-8.1" stroke="#224CA1" stroke-width="1.728" stroke-miterlimit="10" stroke-linecap="round" stroke-linejoin="bevel"/><path d="M50.4 113.3c0-1.7 1.1-3.3 3.3-4.6 4.4-2.5 11.5-2.5 15.8 0 2.2 1.3 3.3 2.9 3.3 4.6 0 1.7-1.1 3.3-3.3 4.6-4.4 2.5-11.5 2.5-15.8 0-2.2-1.3-3.3-3-3.3-4.6z" fill="#18232D"/><path d="M50.4 113.3c0-1.7 1.1-3.3 3.3-4.6 4.4-2.5 11.5-2.5 15.8 0 2.2 1.3 3.3 2.9 3.3 4.6" stroke="#224CA1" stroke-width="1.728" stroke-miterlimit="10" stroke-linecap="round" stroke-linejoin="bevel"/><path d="M72.8 113.3c0 1.7-1.1 3.3-3.3 4.6-4.4 2.5-11.5 2.5-15.8 0-2.2-1.3-3.3-2.9-3.3-4.6" stroke="#224CA1" stroke-width=".576" stroke-miterlimit="10" stroke-linecap="round" stroke-linejoin="bevel"/><path d="M68.1 125.6l15.9 9.1v8.7l-15.9-9.1v-8.7zm15.9 9.1l15.8-9.1v8.7L84 143.4v-8.7z" fill="#18232D"/><path d="M99.8 134.3v-8.7m0 8.7L84 143.4" stroke="#224CA1" stroke-width="1.728" stroke-miterlimit="10" stroke-linecap="round" stroke-linejoin="bevel"/><path d="M84 143.4v-8.7" stroke="#224CA1" stroke-width=".576" stroke-miterlimit="10" stroke-linecap="round" stroke-linejoin="bevel"/><path d="M84 143.4l-15.9-9.1m0 0v-8.7" stroke="#224CA1" stroke-width="1.728" stroke-miterlimit="10" stroke-linecap="round" stroke-linejoin="bevel"/><path d="M68.1 125.6l15.9-9.2 15.8 9.2-15.8 9.1-15.9-9.1z" fill="#fff" stroke="#fff" stroke-width="1.44" stroke-miterlimit="10" stroke-linejoin="bevel"/><path d="M68.1 125.6l15.9-9.2m0 0l15.8 9.2" stroke="#224CA1" stroke-width="1.728" stroke-miterlimit="10" stroke-linecap="round" stroke-linejoin="bevel"/><path d="M99.8 125.6L84 134.7m0 0l-15.9-9.1" stroke="#224CA1" stroke-width=".576" stroke-miterlimit="10" stroke-linecap="round" stroke-linejoin="bevel"/></svg>