<svg width="27" height="89" fill="none" xmlns="http://www.w3.org/2000/svg"><path d="M14.4 85.6c1.2-.7 1.9-2.1 1.9-4.2 0-4.1-2.9-9.1-6.4-11.2-1.8-1-3.4-1.1-4.5-.5l9.2-5.3c1.2-.7 2.8-.6 4.5.5 3.6 2.1 6.4 7.1 6.4 11.2 0 2.1-.7 3.5-1.9 4.2l-9.2 5.3z" fill="#18232D"/><path d="M14.4 64.5l-9.1 5.3m9.1-5.3c1.2-.7 2.8-.6 4.5.5 3.6 2.1 6.4 7.1 6.4 11.2 0 2.1-.7 3.5-1.9 4.2m.1-.1l-9.1 5.3" stroke="#224CA1" stroke-width="1.728" stroke-miterlimit="10" stroke-linecap="round" stroke-linejoin="bevel"/><path d="M14.4 85.6c-1.2.7-2.8.6-4.5-.5C6.3 83 3.5 78 3.5 73.9c0-2.1.7-3.5 1.9-4.2 1.2-.7 2.8-.6 4.5.5 3.6 2.1 6.4 7.1 6.4 11.2 0 2.1-.8 3.5-1.9 4.2z" fill="#fff" stroke="#fff" stroke-width="1.44" stroke-miterlimit="10" stroke-linejoin="bevel"/><path d="M14.4 85.6c-1.2.7-2.8.6-4.5-.5C6.3 83 3.5 78 3.5 73.9c0-2.1.7-3.5 1.9-4.2" stroke="#224CA1" stroke-width="1.728" stroke-miterlimit="10" stroke-linecap="round" stroke-linejoin="bevel"/><path d="M5.3 69.8c1.2-.7 2.8-.6 4.5.5 3.6 2.1 6.4 7.1 6.4 11.2 0 2.1-.7 3.5-1.9 4.2" stroke="#224CA1" stroke-width=".576" stroke-miterlimit="10" stroke-linecap="round" stroke-linejoin="bevel"/><path d="M16.2 67.1V13.6l9.2-5.3v53.5l-9.2 5.3z" fill="#18232D"/><path d="M16.2 13.6L3.4 6.2 12.6.9l12.8 7.4-9.2 5.3z" fill="#18232D"/><path d="M12.6.9L3.4 6.2M12.6.9l12.8 7.4" stroke="#224CA1" stroke-width="1.728" stroke-miterlimit="10" stroke-linecap="round" stroke-linejoin="bevel"/><path d="M25.4 8.3l-9.2 5.3" stroke="#224CA1" stroke-width=".576" stroke-miterlimit="10" stroke-linecap="round" stroke-linejoin="bevel"/><path d="M25.4 8.3v53.5m0 0l-9.2 5.3" stroke="#224CA1" stroke-width="1.728" stroke-miterlimit="10" stroke-linecap="round" stroke-linejoin="bevel"/><path d="M16.2 67.1L3.4 59.7V6.2l12.8 7.4v53.5z" fill="#fff" stroke="#fff" stroke-width="1.44" stroke-miterlimit="10" stroke-linejoin="bevel"/><path d="M16.2 67.1L3.4 59.7m0 0V6.2" stroke="#224CA1" stroke-width="1.728" stroke-miterlimit="10" stroke-linecap="round" stroke-linejoin="bevel"/><path d="M3.4 6.2l12.8 7.4m0 0v53.5" stroke="#224CA1" stroke-width=".576" stroke-miterlimit="10" stroke-linecap="round" stroke-linejoin="bevel"/></svg>