<svg width="62" height="36" fill="none" xmlns="http://www.w3.org/2000/svg"><g clip-path="url(#clip0_338_241)"><path d="M56.85 11.85c-.3-.3-.75-.6-1.05-.9L50.7 6.6c-1.95-1.35-4.35-2.25-6.9-2.4l.3.3-.3-.3-2.85-2.85c-.9-.9-2.1-1.35-3.3-1.35C35.4 0 33.6 1.35 33 3.45c-.6-.45-1.35-.6-2.1-.75h-.45c-.9 0-1.65.3-2.4.75C27.45 1.5 25.5 0 23.4 0c-1.2 0-2.4.45-3.3 1.2l-2.85 2.85-.3.3.3-.3c-2.55.3-4.95 1.2-6.9 2.55l-5.1 4.35c-.45.3-.75.6-1.05.9-2.55 2.55-4.2 6-4.2 9.75 0 7.5 6.15 13.65 13.65 13.65 6.9 0 12.6-5.25 13.5-12 1.05.6 2.1.9 3.45.9 1.2 0 2.4-.3 3.45-.9.9 6.75 6.6 11.85 13.5 11.85 7.5 0 13.65-6.15 13.65-13.65-.15-3.6-1.8-7.05-4.35-9.6zM13.65 31.8c-5.55 0-10.2-4.5-10.2-10.2 0-5.55 4.5-10.2 10.2-10.2 5.55 0 10.2 4.5 10.2 10.2-.15 5.7-4.65 10.2-10.2 10.2zm16.8-11.4c-1.65 0-3-1.35-3-3s1.35-3 3-3 3 1.35 3 3-1.35 3-3 3zM47.4 31.8c-5.55 0-10.2-4.5-10.2-10.2 0-5.55 4.5-10.2 10.2-10.2 5.55 0 10.2 4.5 10.2 10.2 0 5.7-4.65 10.2-10.2 10.2z" fill="#fff"/></g><defs><clipPath id="clip0_338_241"><path fill="#fff" d="M0 0h61.05v35.25H0z"/></clipPath></defs></svg>