<svg width="100" height="76" fill="none" xmlns="http://www.w3.org/2000/svg"><path d="M23.9 22.9l.3-18.1" stroke="#224CA1" stroke-width="1.728" stroke-miterlimit="10" stroke-linecap="round" stroke-linejoin="bevel"/><path d="M24.2 4.8l2.9 7.1-.3 18.1-2.9-7.1.3-18.1z" fill="#fff" stroke="#fff" stroke-width="1.44" stroke-miterlimit="10" stroke-linejoin="bevel"/><path d="M26.8 30l.3-18.1M26.8 30l-2.9-7.1m0 0l.3-18.1" stroke="#224CA1" stroke-width="1.728" stroke-miterlimit="10" stroke-linecap="round" stroke-linejoin="bevel"/><path d="M81.9 18.1l6.7-6-.4 18.1-6.7 6 .4-18.1z" fill="#fff" stroke="#fff" stroke-width="1.44" stroke-miterlimit="10" stroke-linejoin="bevel"/><path d="M88.2 30.2l.4-18.1m-.4 18.1l-6.7 6m0 0l.4-18.1M5 36l.3-18.1m76.2 18.3l.4-18.1" stroke="#224CA1" stroke-width="1.728" stroke-miterlimit="10" stroke-linecap="round" stroke-linejoin="bevel"/><path d="M5.3 17.9l9.5 4.9-.4 18L5 36l.3-18.1z" fill="#fff" stroke="#fff" stroke-width="1.44" stroke-miterlimit="10" stroke-linejoin="bevel"/><path d="M14.4 40.8l.4-18m-.4 18L5 36m0 0l.3-18.1" stroke="#224CA1" stroke-width="1.728" stroke-miterlimit="10" stroke-linecap="round" stroke-linejoin="bevel"/><path d="M86 34.7c.6-1.2.9-2.5 1.1-3.7l-.4 18c-.2 1.3-.5 2.5-1.1 3.7l.4-18z" fill="#fff" stroke="#fff" stroke-width="1.44" stroke-miterlimit="10" stroke-linejoin="bevel"/><path d="M87.1 30.9l11.6-2.4-.3 18.1L86.7 49l.4-18.1z" fill="#fff" stroke="#fff" stroke-width="1.44" stroke-miterlimit="10" stroke-linejoin="bevel"/><path d="M98.4 46.6l.3-18.1m-.3 18.1L86.7 49" stroke="#224CA1" stroke-width="1.728" stroke-miterlimit="10" stroke-linecap="round" stroke-linejoin="bevel"/><path d="M86.7 49l.4-18.1" stroke="#224CA1" stroke-width=".576" stroke-miterlimit="10" stroke-linecap="round" stroke-linejoin="bevel"/><path d="M86.7 49c-.2 1.3-.5 2.5-1.1 3.7m0 0l.4-18m-.4 18l.4-18" stroke="#224CA1" stroke-width="1.728" stroke-miterlimit="10" stroke-linecap="round" stroke-linejoin="bevel"/><path d="M2.1 28.9c.1 2.1.6 4.2 1.6 6.3l-.4 18.1c-.9-2.1-1.5-4.2-1.6-6.3l.4-18.1z" fill="#fff" stroke="#fff" stroke-width="1.44" stroke-miterlimit="10" stroke-linejoin="bevel"/><path d="M3.7 35.2l12.4.7-.4 18.1-12.4-.8.4-18z" fill="#fff" stroke="#fff" stroke-width="1.44" stroke-miterlimit="10" stroke-linejoin="bevel"/><path d="M16.1 35.9c.8 1.2 1.8 2.3 2.9 3.4l-.4 18.1c-1.2-1.1-2.1-2.3-2.9-3.4l.4-18.1z" fill="#fff" stroke="#fff" stroke-width="1.44" stroke-miterlimit="10" stroke-linejoin="bevel"/><path d="M18.6 57.4l.4-18.1m-.4 18.1c-1.2-1.1-2.1-2.3-2.9-3.4" stroke="#224CA1" stroke-width="1.728" stroke-miterlimit="10" stroke-linecap="round" stroke-linejoin="bevel"/><path d="M15.7 54l.4-18.1" stroke="#224CA1" stroke-width=".576" stroke-miterlimit="10" stroke-linecap="round" stroke-linejoin="bevel"/><path d="M15.7 54l-12.4-.8" stroke="#224CA1" stroke-width="1.728" stroke-miterlimit="10" stroke-linecap="round" stroke-linejoin="bevel"/><path d="M3.3 53.2l.4-18" stroke="#224CA1" stroke-width=".576" stroke-miterlimit="10" stroke-linecap="round" stroke-linejoin="bevel"/><path d="M3.3 53.2c-.9-2.1-1.5-4.2-1.6-6.3m0 .1l.4-18.1" stroke="#224CA1" stroke-width="1.728" stroke-miterlimit="10" stroke-linecap="round" stroke-linejoin="bevel"/><path d="M73.7 45.5c.8-.4 1.7-.8 2.4-1.2.8-.4 1.5-.9 2.2-1.4L78 61c-.7.5-1.4.9-2.2 1.4-.8.5-1.6.8-2.4 1.2l.3-18.1zm4.7-2.5l12 2-.4 18.1L78 61l.4-18z" fill="#fff" stroke="#fff" stroke-width="1.44" stroke-miterlimit="10" stroke-linejoin="bevel"/><path d="M90.4 45c2.1-1.7 3.8-3.6 5.1-5.5l-.4 18.1c-1.3 1.9-3 3.8-5.1 5.5l.4-18.1z" fill="#fff" stroke="#fff" stroke-width="1.44" stroke-miterlimit="10" stroke-linejoin="bevel"/><path d="M95.1 57.5l.4-18m-.4 18c-1.3 1.9-3 3.8-5.1 5.5" stroke="#224CA1" stroke-width="1.728" stroke-miterlimit="10" stroke-linecap="round" stroke-linejoin="bevel"/><path d="M90 63.1l.4-18.1" stroke="#224CA1" stroke-width=".576" stroke-miterlimit="10" stroke-linecap="round" stroke-linejoin="bevel"/><path d="M90 63.1L78 61" stroke="#224CA1" stroke-width="1.728" stroke-miterlimit="10" stroke-linecap="round" stroke-linejoin="bevel"/><path d="M78 61l.4-18" stroke="#224CA1" stroke-width=".576" stroke-miterlimit="10" stroke-linecap="round" stroke-linejoin="bevel"/><path d="M78 61c-.7.5-1.4.9-2.2 1.4-.8.5-1.6.8-2.4 1.2m-.1 0l.4-18.1M11.8 63.4l.4-18.1m61.1 18.3l.4-18.1" stroke="#224CA1" stroke-width="1.728" stroke-miterlimit="10" stroke-linecap="round" stroke-linejoin="bevel"/><path d="M12.2 45.3c1.1.8 2.3 1.7 3.6 2.4 1.3.8 2.6 1.5 4 2.2L19.5 68c-1.4-.7-2.7-1.4-4-2.2-1.3-.8-2.5-1.6-3.6-2.4l.3-18.1zm7.6 4.6l10.7-3.6-.4 18.1L19.5 68l.3-18.1z" fill="#fff" stroke="#fff" stroke-width="1.44" stroke-miterlimit="10" stroke-linejoin="bevel"/><path d="M30.5 46.3c1.9.7 3.8 1.3 5.8 1.8l-.4 18.1c-2-.5-3.9-1.1-5.8-1.8l.4-18.1zm5.8 1.8l.6 7.2-.4 18.1-.6-7.2.4-18.1z" fill="#fff" stroke="#fff" stroke-width="1.44" stroke-miterlimit="10" stroke-linejoin="bevel"/><path d="M36.9 55.3c3.5.6 7.1 1 10.8 1.2l-.4 18.1c-3.6-.2-7.2-.6-10.8-1.2l.4-18.1z" fill="#fff" stroke="#fff" stroke-width="1.44" stroke-miterlimit="10" stroke-linejoin="bevel"/><path d="M47.7 56.5l4.8-6.5-.4 18.1-4.8 6.5.4-18.1zm4.8-6.5c2.2 0 4.3-.2 6.5-.4l-.4 18.1c-2.1.3-4.3.4-6.5.4l.4-18.1z" fill="#fff" stroke="#fff" stroke-width="1.44" stroke-miterlimit="10" stroke-linejoin="bevel"/><path d="M59 49.5l7.8 5.7-.4 18.1-7.8-5.7.4-18.1z" fill="#fff" stroke="#fff" stroke-width="1.44" stroke-miterlimit="10" stroke-linejoin="bevel"/><path d="M66.8 55.2c3.4-.7 6.7-1.5 9.8-2.6l-.4 18.1c-3.1 1.1-6.4 2-9.8 2.6l.4-18.1z" fill="#fff" stroke="#fff" stroke-width="1.44" stroke-miterlimit="10" stroke-linejoin="bevel"/><path d="M76.2 70.7l.4-18.1m-.4 18.1c-3.1 1.1-6.4 2-9.8 2.6" stroke="#224CA1" stroke-width="1.728" stroke-miterlimit="10" stroke-linecap="round" stroke-linejoin="bevel"/><path d="M66.4 73.3l.4-18.1" stroke="#224CA1" stroke-width=".576" stroke-miterlimit="10" stroke-linecap="round" stroke-linejoin="bevel"/><path d="M66.4 73.3l-7.8-5.7" stroke="#224CA1" stroke-width="1.728" stroke-miterlimit="10" stroke-linecap="round" stroke-linejoin="bevel"/><path d="M58.6 67.6l.4-18.1" stroke="#224CA1" stroke-width=".576" stroke-miterlimit="10" stroke-linecap="round" stroke-linejoin="bevel"/><path d="M58.6 67.6c-2.1.3-4.3.4-6.5.4" stroke="#224CA1" stroke-width="1.728" stroke-miterlimit="10" stroke-linecap="round" stroke-linejoin="bevel"/><path d="M52.1 68.1l.4-18.1" stroke="#224CA1" stroke-width=".576" stroke-miterlimit="10" stroke-linecap="round" stroke-linejoin="bevel"/><path d="M52.1 68.1l-4.8 6.5" stroke="#224CA1" stroke-width="1.728" stroke-miterlimit="10" stroke-linecap="round" stroke-linejoin="bevel"/><path d="M47.3 74.6l.4-18.1" stroke="#224CA1" stroke-width=".576" stroke-miterlimit="10" stroke-linecap="round" stroke-linejoin="bevel"/><path d="M47.3 74.6c-3.6-.2-7.2-.6-10.8-1.2" stroke="#224CA1" stroke-width="1.728" stroke-miterlimit="10" stroke-linecap="round" stroke-linejoin="bevel"/><path d="M36.5 73.4l.4-18.1" stroke="#224CA1" stroke-width=".576" stroke-miterlimit="10" stroke-linecap="round" stroke-linejoin="bevel"/><path d="M36.5 73.4l-.6-7.2" stroke="#224CA1" stroke-width="1.728" stroke-miterlimit="10" stroke-linecap="round" stroke-linejoin="bevel"/><path d="M35.9 66.2l.4-18.1" stroke="#224CA1" stroke-width=".576" stroke-miterlimit="10" stroke-linecap="round" stroke-linejoin="bevel"/><path d="M35.9 66.2c-2-.5-3.9-1.1-5.8-1.8" stroke="#224CA1" stroke-width="1.728" stroke-miterlimit="10" stroke-linecap="round" stroke-linejoin="bevel"/><path d="M30.1 64.4l.4-18.1" stroke="#224CA1" stroke-width=".576" stroke-miterlimit="10" stroke-linecap="round" stroke-linejoin="bevel"/><path d="M30.1 64.4L19.5 68" stroke="#224CA1" stroke-width="1.728" stroke-miterlimit="10" stroke-linecap="round" stroke-linejoin="bevel"/><path d="M19.5 68l.3-18.1" stroke="#224CA1" stroke-width=".576" stroke-miterlimit="10" stroke-linecap="round" stroke-linejoin="bevel"/><path d="M19.5 68c-1.4-.7-2.7-1.4-4-2.2-1.3-.8-2.5-1.6-3.6-2.4m-.1 0l.4-18.1" stroke="#224CA1" stroke-width="1.728" stroke-miterlimit="10" stroke-linecap="round" stroke-linejoin="bevel"/><path d="M2.1 28.9l11.6-2.4c.2-1.3.5-2.5 1.1-3.7L5.3 18c1.3-1.9 3-3.8 5.1-5.5l12 2c.7-.5 1.4-.9 2.2-1.4.8-.5 1.6-.8 2.4-1.2l-2.9-7c3.1-1.1 6.4-2 9.8-2.6L41.8 8c2.1-.3 4.3-.4 6.5-.4L53.1 1c3.6.2 7.2.6 10.8 1.2l.7 7.2c2 .5 3.9 1.1 5.8 1.8L81 7.5c1.4.7 2.7 1.4 4 2.2 1.3.8 2.5 1.6 3.6 2.4L81.8 18c1.2 1.1 2.1 2.3 2.9 3.4l12.4.7c.9 2.1 1.5 4.2 1.6 6.3l-11.6 2.4c-.2 1.3-.5 2.5-1.1 3.7l9.5 4.8c-1.3 1.9-3 3.8-5.1 5.5l-12-2c-.7.5-1.4.9-2.2 1.4l-2.4 1.2 2.9 7c-3.1 1.1-6.4 2-9.8 2.6L59 49.3c-2.1.3-4.3.4-6.5.4l-4.8 6.6c-3.6-.2-7.2-.6-10.8-1.2l-.7-7.2c-2-.5-3.9-1.1-5.8-1.8l-10.6 3.6c-1.4-.7-2.7-1.4-4-2.2-1.3-.8-2.5-1.6-3.6-2.4l6.8-5.9c-1.2-1.1-2.1-2.3-2.9-3.4l-12.4-.7c-1-2-1.5-4.1-1.6-6.2z" fill="#18242F"/><path d="M2.1 28.9l11.6-2.4m0 0c.2-1.3.5-2.5 1.1-3.7" stroke="#224CA1" stroke-width="1.728" stroke-miterlimit="10" stroke-linecap="round" stroke-linejoin="bevel"/><path d="M14.8 22.8l-9.5-4.9" stroke="#224CA1" stroke-width=".576" stroke-miterlimit="10" stroke-linecap="round" stroke-linejoin="bevel"/><path d="M5.3 17.9c1.3-1.9 3-3.8 5.1-5.5m0 0l12.1 2.1m0 0c.7-.5 1.4-.9 2.2-1.4.8-.5 1.6-.8 2.4-1.2" stroke="#224CA1" stroke-width="1.728" stroke-miterlimit="10" stroke-linecap="round" stroke-linejoin="bevel"/><path d="M27.1 11.9l-2.9-7.1" stroke="#224CA1" stroke-width=".576" stroke-miterlimit="10" stroke-linecap="round" stroke-linejoin="bevel"/><path d="M24.2 4.8c3.1-1.1 6.4-2 9.8-2.6m0 0l7.9 5.7m0 0c2.1-.3 4.3-.4 6.5-.4m0-.1L53.1.9m0 0c3.6.2 7.2.6 10.8 1.2m0 0l.7 7.2m0 0c2 .5 3.9 1.1 5.8 1.8m0 0L81 7.5m0 0c1.4.7 2.7 1.4 4 2.2 1.3.8 2.5 1.6 3.6 2.4" stroke="#224CA1" stroke-width="1.728" stroke-miterlimit="10" stroke-linecap="round" stroke-linejoin="bevel"/><path d="M88.6 12.1l-6.7 6" stroke="#224CA1" stroke-width=".576" stroke-miterlimit="10" stroke-linecap="round" stroke-linejoin="bevel"/><path d="M81.9 18.1c1.2 1.1 2.1 2.3 2.9 3.4m0 0l12.4.8m0 0c.9 2.1 1.5 4.2 1.6 6.3" stroke="#224CA1" stroke-width="1.728" stroke-miterlimit="10" stroke-linecap="round" stroke-linejoin="bevel"/><path d="M98.7 28.5l-11.6 2.4m0 0c-.2 1.3-.5 2.5-1.1 3.7" stroke="#224CA1" stroke-width=".576" stroke-miterlimit="10" stroke-linecap="round" stroke-linejoin="bevel"/><path d="M86 34.7l9.5 4.8" stroke="#224CA1" stroke-width="1.728" stroke-miterlimit="10" stroke-linecap="round" stroke-linejoin="bevel"/><path d="M95.5 39.5c-1.3 1.9-3 3.8-5.1 5.5m0 0l-12-2m0 0c-.7.5-1.4.9-2.2 1.4l-2.4 1.2" stroke="#224CA1" stroke-width=".576" stroke-miterlimit="10" stroke-linecap="round" stroke-linejoin="bevel"/><path d="M73.7 45.5l2.9 7.1" stroke="#224CA1" stroke-width="1.728" stroke-miterlimit="10" stroke-linecap="round" stroke-linejoin="bevel"/><path d="M76.6 52.6c-3.1 1.1-6.4 2-9.8 2.6m0 0L59 49.5m0 0c-2.1.3-4.3.4-6.5.4m0 .1l-4.8 6.5m0 0c-3.6-.2-7.2-.6-10.8-1.2m0 0l-.6-7.2m0 0c-2-.5-3.9-1.1-5.8-1.8m0 0l-10.7 3.6m0 0c-1.4-.7-2.7-1.4-4-2.2-1.3-.8-2.5-1.6-3.6-2.4" stroke="#224CA1" stroke-width=".576" stroke-miterlimit="10" stroke-linecap="round" stroke-linejoin="bevel"/><path d="M12.2 45.3l6.8-6" stroke="#224CA1" stroke-width="1.728" stroke-miterlimit="10" stroke-linecap="round" stroke-linejoin="bevel"/><path d="M19 39.3c-1.2-1.1-2.1-2.3-2.9-3.4m0 0l-12.4-.7m0 0c-.9-2.1-1.5-4.2-1.6-6.3" stroke="#224CA1" stroke-width=".576" stroke-miterlimit="10" stroke-linecap="round" stroke-linejoin="bevel"/><path d="M77.3 31.5c.2-8.6-11.7-15.8-26.6-16.1-14.9-.3-27.1 6.4-27.3 15v-2.2c.2-8.6 12.4-15.3 27.3-15 14.9.3 26.8 7.5 26.6 16.1v2.2z" fill="#18242F"/><path d="M23.5 28.1l-.1 2.3m.1-2.3c.2-8.6 12.4-15.3 27.3-15 14.9.3 26.8 7.5 26.6 16.1m0 .1l-.1 2.2" stroke="#224CA1" stroke-width="1.728" stroke-miterlimit="10" stroke-linecap="round" stroke-linejoin="bevel"/><path d="M77.325 31.483c.185-8.614-11.75-15.857-26.66-16.177-14.908-.32-27.144 6.403-27.33 15.017-.184 8.614 11.752 15.857 26.66 16.177 14.91.32 27.145-6.403 27.33-15.017z" fill="#18242F"/><path d="M77.3 31.5c-.2 8.6-12.4 15.3-27.3 15-14.9-.3-26.8-7.5-26.6-16.1" stroke="#224CA1" stroke-width="1.728" stroke-miterlimit="10" stroke-linecap="round" stroke-linejoin="bevel"/><path d="M23.4 30.4c.2-8.6 12.4-15.3 27.3-15 14.9.3 26.8 7.5 26.6 16.1" stroke="#224CA1" stroke-width=".576" stroke-miterlimit="10" stroke-linecap="round" stroke-linejoin="bevel"/><path d="M58.61 28.893c.057-2.596-3.569-4.778-8.097-4.876-4.527-.097-8.243 1.928-8.299 4.524-.056 2.595 3.57 4.777 8.098 4.875 4.528.097 8.243-1.928 8.299-4.523z" stroke="#224CA1" stroke-width="1.728" stroke-miterlimit="10" stroke-linecap="round" stroke-linejoin="bevel"/></svg>