<svg width="60" height="51" fill="none" xmlns="http://www.w3.org/2000/svg"><g clip-path="url(#clip0_338_232)" fill="#fff"><path d="M29.85 13.5c-3.6 0-6.45 2.85-6.45 6.45 0 3 1.95 5.4 4.65 6.15v24.15h3.45V26.1c2.7-.75 4.65-3.3 4.65-6.15 0-3.6-2.85-6.45-6.3-6.45zm-14.1-3c-5.4 5.4-5.4 14.25 0 19.65l2.4-2.4c-4.05-4.05-4.05-10.65 0-14.7l-2.4-2.55z"/><path d="M11.25 2.4L8.7 0C-3 11.7-2.85 29.1 8.7 40.65l2.4-2.4C1.05 28.05 1.05 12.6 11.25 2.4zM41.4 13.05c4.05 4.05 4.05 10.65 0 14.7l2.4 2.4c5.4-5.4 5.4-14.25 0-19.65l-2.4 2.55z"/><path d="M48.45 2.4c10.2 10.2 10.2 25.5 0 35.7l2.4 2.4c11.55-11.55 11.7-29.1 0-40.65l-2.4 2.55z"/></g><defs><clipPath id="clip0_338_232"><path fill="#fff" d="M0 0h59.7v50.25H0z"/></clipPath></defs></svg>