<svg width="228" height="43" fill="none" xmlns="http://www.w3.org/2000/svg"><path fill-rule="evenodd" clip-rule="evenodd" d="M112.87 19.258c-.876.425-1.307 1.145-1.307 2.18 0 1.226.564 2.101 1.544 2.397.31.093 3.054.128 8.218.103 7.12-.034 7.784-.056 8.133-.27.834-.51 1.253-1.628 1.055-2.814-.103-.613-.592-1.252-1.193-1.558-.45-.229-.963-.244-8.258-.242-6.682.002-7.836.031-8.192.204zm29.452-.004c-.545.268-.813.553-1.085 1.15-.489 1.073-.158 2.46.748 3.131l.494.366 8.093.067 8.093.066.419.359c.588.502.848 1.175.784 2.033-.064.86-.401 1.417-1.082 1.787-.484.262-.709.277-4.067.28-3.201.003-3.601.027-4.029.249-.853.44-1.247 1.14-1.247 2.213 0 1.2.012 1.213 6.012 6.59 3.078 2.76 5.723 5.063 5.878 5.12.571.209 1.384.1 1.928-.257.916-.601 1.254-1.834.829-3.022-.167-.468-.644-.951-3.21-3.253l-3.014-2.703.568-.082c1.042-.15 1.63-.352 2.464-.843 3.039-1.788 4.228-5.9 2.726-9.424-.715-1.678-1.919-2.893-3.591-3.622l-.793-.346-8.253-.031c-7.18-.027-8.307-.004-8.665.172zm41.271-.01c-.255.101-.558.293-.672.426-.495.573-12.166 19.446-12.323 19.927-.358 1.1.12 2.387 1.095 2.952.465.27 1.459.273 1.918.007.479-.278.652-.507 1.959-2.606l1.131-1.816 7.721-.034 7.722-.034 1.238 2.008c.681 1.105 1.379 2.12 1.55 2.257.714.57 1.894.559 2.624-.023.68-.543 1.012-1.9.694-2.839-.119-.348-11.7-19.022-12.162-19.609-.57-.725-1.591-.977-2.495-.617zm17.683.054c-.55.284-.94.72-1.12 1.253-.187.551-.154 1.48.069 2.006.126.297 2.166 2.468 5.759 6.131l5.563 5.671v3.189c0 2.577.036 3.283.184 3.68.375 1.007 1.068 1.533 2.016 1.533.637 0 1.007-.157 1.463-.62.586-.594.612-.779.619-4.366l.006-3.365 5.57-5.654c4.014-4.074 5.637-5.804 5.812-6.194.289-.644.31-1.349.06-2.019-.246-.66-.499-.956-1.064-1.246-.605-.312-1.18-.31-1.781.003-.271.141-2.667 2.489-5.564 5.45-2.798 2.862-5.111 5.203-5.139 5.203-.029 0-2.352-2.349-5.163-5.22-2.81-2.872-5.306-5.324-5.547-5.45-.565-.297-1.15-.292-1.743.015zm-14.29 10.496l2.454 3.95-4.936.035c-2.715.02-4.959.01-4.987-.022-.065-.073 4.831-7.93 4.936-7.92.044.003 1.184 1.784 2.533 3.957z" fill="#fff"/><path d="M.314 2.932C.857 1.636 2.042.589 3.308.288c.696-.165 1.715-.052 2.527.28.667.273 1.135.777 11.086 11.907l10.39 11.622L37.584 12.6C46.925 2.146 47.923 1.07 48.6.713c1.316-.694 2.736-.67 3.957.066.367.222 3.124 3.226 8.442 9.198 8.968 10.072 8.47 9.394 8.462 11.53-.008 2.156.498 1.467-8.472 11.544-8.46 9.504-8.364 9.408-9.783 9.667-.82.15-1.934-.026-2.61-.412-.732-.419-1.592-1.397-1.956-2.227-.292-.666-.328-.895-.328-2.078 0-2.129-.27-1.743 6.775-9.644l6.11-6.851-4.334-4.853-4.334-4.854-10.302 11.525c-8.319 9.307-10.428 11.598-10.955 11.902-.589.34-.77.378-1.84.38-2.077.002-1.257.752-10.658-9.757l-8.283-9.26v10.788c0 6.74-.045 11.054-.12 11.499-.44 2.6-2.547 4.255-4.88 3.834-1.398-.252-2.532-1.194-3.16-2.626L0 39.331V3.683l.314-.751zm86.051 7.026C94.539.784 94.755.568 95.93.288c.749-.177 1.955-.026 2.656.333.888.454 1.718 1.378 2.125 2.366.299.724.342.98.337 2.026-.01 2.125.289 1.698-6.722 9.579l-6.154 6.918 6.06 6.782c7.004 7.84 6.821 7.58 6.821 9.709 0 1.09-.036 1.285-.389 2.089-.48 1.091-1.322 1.976-2.258 2.374-.93.395-2.208.391-3.171-.008-.683-.284-1.05-.673-8.687-9.211-9.138-10.215-8.653-9.557-8.646-11.738.004-1.09.053-1.45.273-1.995.22-.544 1.71-2.283 8.19-9.554z" fill="#fff"/></svg>