<svg width="73" height="154" fill="none" xmlns="http://www.w3.org/2000/svg"><path d="M39 134.5l-14 8.1" stroke="#224CA1" stroke-width="1.728" stroke-miterlimit="10" stroke-linecap="round" stroke-linejoin="bevel"/><path d="M25 142.6c1-.6 1.6-1.8 1.6-3.6V97.3l14-8.1v41.7c0 1.8-.6 3-1.6 3.6l-14 8.1z" fill="#1F2731"/><path d="M40.7 89.2l-14 8.1m14-8.1v41.7c0 1.8-.6 3-1.6 3.6m-.1 0l-14 8.1m-.4-68.3l-14 8.1" stroke="#224CA1" stroke-width="1.728" stroke-miterlimit="10" stroke-linecap="round" stroke-linejoin="bevel"/><path d="M10.6 82.4c.5-.3.8-.7 1.1-1.2l3.7-7.3 14-8.1-3.7 7.3c-.3.6-.7 1-1.1 1.2l-14 8.1z" fill="#1F2731"/><path d="M29.5 65.8l-14 8.1m14-8.1l-3.7 7.3c-.3.6-.7 1-1.1 1.2m-.1 0l-14 8.1" stroke="#224CA1" stroke-width="1.728" stroke-miterlimit="10" stroke-linecap="round" stroke-linejoin="bevel"/><path d="M41.9 152.3c.9-.5 1.6-1.7 1.6-3.3V90l14-8.1v59c-.1 1.6-.7 2.7-1.6 3.3l-14 8.1z" fill="#1F2731"/><path d="M57.6 82l-14 8.1m14-8.1v59c-.1 1.6-.7 2.7-1.6 3.3m-.1 0l-14 8m28.5-51.6l-14 8.1" stroke="#224CA1" stroke-width="1.728" stroke-miterlimit="10" stroke-linecap="round" stroke-linejoin="bevel"/><path d="M56.4 108.8c1.6-.9 2.1-3.5 1.1-6.6L44.4 61.6c-.9-2.8-2.9-5.4-4.9-6.6l14-8.1c2.1 1.3 4 3.8 4.9 6.6l13.1 40.6c1 3.1.5 5.7-1.1 6.6l-14 8.1zM39.4 55L19.7 43.6l14-8.1 19.7 11.4-14 8.1zM19.7 43.6c-1.4-.8-2.8-.9-3.8-.3l14-8.1c1-.6 2.4-.5 3.8.3l-14 8.1z" fill="#1F2731"/><path d="M29.9 35.2l-14 8.1m14-8.1c1-.6 2.4-.5 3.8.3" stroke="#224CA1" stroke-width="1.728" stroke-miterlimit="10" stroke-linecap="round" stroke-linejoin="bevel"/><path d="M33.7 35.5l-14 8.1" stroke="#224CA1" stroke-width=".576" stroke-miterlimit="10" stroke-linecap="round" stroke-linejoin="bevel"/><path d="M33.7 35.5l19.7 11.4" stroke="#224CA1" stroke-width="1.728" stroke-miterlimit="10" stroke-linecap="round" stroke-linejoin="bevel"/><path d="M53.4 46.9l-14 8.1" stroke="#224CA1" stroke-width=".576" stroke-miterlimit="10" stroke-linecap="round" stroke-linejoin="bevel"/><path d="M53.4 46.9c2.1 1.3 4 3.8 4.9 6.6l13.1 40.6c1 3.1.5 5.7-1.1 6.6m.1 0l-14 8.1" stroke="#224CA1" stroke-width="1.728" stroke-miterlimit="10" stroke-linecap="round" stroke-linejoin="bevel"/><path d="M37.4 45.4c1.9-1.1 3.2-3.5 3.2-7 0-1.4-.2-2.8-.6-4.2l14-8.1c.4 1.4.6 2.9.6 4.2 0 3.4-1.2 5.8-3.2 7l-14 8.1z" fill="#1F2731"/><path d="M54 26.1l-14 8.1m14-8.1c.4 1.4.6 2.9.6 4.2 0 3.4-1.2 5.8-3.2 7m0 0l-14 8.1m20.8-16.9l-14 8.1" stroke="#224CA1" stroke-width="1.728" stroke-miterlimit="10" stroke-linecap="round" stroke-linejoin="bevel"/><path d="M44.2 36.6c0-9.1-6.4-20.3-14.3-24.8-4-2.3-7.5-2.5-10.1-1l14-8.1c2.6-1.5 6.2-1.3 10.1 1 7.9 4.6 14.3 15.7 14.3 24.8l-14 8.1z" fill="#1F2731"/><path d="M33.7 2.7l-14 8.1m14-8.1c2.6-1.5 6.2-1.3 10.1 1 7.9 4.6 14.3 15.7 14.3 24.8m.1 0l-14 8.1" stroke="#224CA1" stroke-width="1.728" stroke-miterlimit="10" stroke-linecap="round" stroke-linejoin="bevel"/><path d="M40 34.2c.4 1.4.6 2.9.6 4.2 0 6.9-4.8 9.6-10.7 6.2C24 41.2 19.2 32.8 19.2 26c0-1.4.2-2.6.6-3.6L15.6 20c0-9.1 6.4-12.9 14.3-8.3s14.3 15.7 14.3 24.8L40 34.2zm14.7 75c-2.8-.1-6.1-3.5-7.4-7.4l-3.7-11.6v59c-.2 3.3-2.6 4.6-5.6 2.9-3.1-1.8-5.6-6.1-5.6-9.7v-41.7l-5.8-3.3V139c0 3.6-2.5 5-5.6 3.2-3.1-1.8-5.6-6.1-5.6-9.7V73.9l-3.7 7.3c-1.3 2.5-4.6 2-7.4-1.1C1.5 77 .3 72.5 1.6 70l13.1-25.5c.9-1.8 2.9-2 4.9-.9L39.4 55c2.1 1.2 4 3.8 4.9 6.6l13.1 40.6c1.4 4 .1 7.1-2.7 7z" fill="#fff" stroke="#BED6ED" stroke-width="1.44" stroke-miterlimit="10" stroke-linejoin="bevel"/><path d="M43.6 90.1v59c-.1 1.6-.7 2.7-1.6 3.3" stroke="#224CA1" stroke-width=".576" stroke-miterlimit="10" stroke-linecap="round" stroke-linejoin="bevel"/><path d="M56.4 108.8c-.5.3-1 .4-1.6.4-2.8-.1-6.1-3.5-7.4-7.4l-3.7-11.6" stroke="#224CA1" stroke-width="1.728" stroke-miterlimit="10" stroke-linecap="round" stroke-linejoin="bevel"/><path d="M39.4 55c2.1 1.3 4 3.8 4.9 6.6l13.1 40.6c1 3.1.5 5.7-1.1 6.6M19.7 43.6L39.4 55M15.9 43.3c1-.6 2.4-.5 3.8.3" stroke="#224CA1" stroke-width=".576" stroke-miterlimit="10" stroke-linecap="round" stroke-linejoin="bevel"/><path d="M10.6 82.4c-1.6.9-4.1.1-6.3-2.3C1.5 77 .3 72.5 1.6 70l13.1-25.5c.3-.6.7-1 1.1-1.2" stroke="#224CA1" stroke-width="1.728" stroke-miterlimit="10" stroke-linecap="round" stroke-linejoin="bevel"/><path d="M15.5 73.9l-3.7 7.3c-.3.6-.7 1-1.1 1.2" stroke="#224CA1" stroke-width=".576" stroke-miterlimit="10" stroke-linecap="round" stroke-linejoin="bevel"/><path d="M25 142.6c-1 .6-2.4.5-3.9-.4-3.1-1.8-5.6-6.1-5.6-9.7V73.9" stroke="#224CA1" stroke-width="1.728" stroke-miterlimit="10" stroke-linecap="round" stroke-linejoin="bevel"/><path d="M26.7 97.3V139c0 1.8-.6 3-1.6 3.6" stroke="#224CA1" stroke-width=".576" stroke-miterlimit="10" stroke-linecap="round" stroke-linejoin="bevel"/><path d="M32.4 100.6l-5.7-3.3m15.2 55c-1 .6-2.4.5-3.9-.4-3.1-1.8-5.6-6.1-5.6-9.7v-41.7" stroke="#224CA1" stroke-width="1.728" stroke-miterlimit="10" stroke-linecap="round" stroke-linejoin="bevel"/><path d="M40 34.2c.4 1.4.6 2.9.6 4.2 0 3.4-1.2 5.8-3.2 7" stroke="#224CA1" stroke-width=".576" stroke-miterlimit="10" stroke-linecap="round" stroke-linejoin="bevel"/><path d="M44.2 36.6L40 34.2" stroke="#224CA1" stroke-width="1.728" stroke-miterlimit="10" stroke-linecap="round" stroke-linejoin="bevel"/><path d="M19.7 10.8c2.6-1.5 6.2-1.3 10.1 1 7.9 4.6 14.3 15.7 14.3 24.8" stroke="#224CA1" stroke-width=".576" stroke-miterlimit="10" stroke-linecap="round" stroke-linejoin="bevel"/><path d="M15.5 20.1c0-4.6 1.6-7.8 4.2-9.3m-.1 11.7l-4.1-2.4m21.9 25.3c-1.9 1.1-4.6 1-7.6-.8-5.9-3.4-10.7-11.8-10.7-18.6 0-1.4.2-2.6.6-3.6" stroke="#224CA1" stroke-width="1.728" stroke-miterlimit="10" stroke-linecap="round" stroke-linejoin="bevel"/></svg>