<svg width="150" height="193" fill="none" xmlns="http://www.w3.org/2000/svg"><path d="M96.3 145.9L66.7 163l-19.8-11.4 29.7-17.1 19.7 11.4z" fill="#1B2832"/><path d="M66.7 163v28.3l-19.8-11.4v-28.3L66.7 163z" fill="#1B2832"/><path d="M46.9 179.9l19.8 11.4m-19.8-11.4v-28.3" stroke="#224CA1" stroke-width="1.728" stroke-miterlimit="10" stroke-linecap="round" stroke-linejoin="bevel"/><path d="M46.9 151.6L66.7 163" stroke="#224CA1" stroke-width=".576" stroke-miterlimit="10" stroke-linecap="round" stroke-linejoin="bevel"/><path d="M46.9 151.6l29.7-17.1m0 0l19.7 11.4" stroke="#224CA1" stroke-width="1.728" stroke-miterlimit="10" stroke-linecap="round" stroke-linejoin="bevel"/><path d="M96.3 145.9v28.3l-29.6 17.1V163l29.6-17.1z" fill="#FEFEFF" stroke="#FEFEFF" stroke-width="1.44" stroke-miterlimit="10" stroke-linejoin="bevel"/><path d="M96.3 145.9v28.3m0 0l-29.6 17.1" stroke="#224CA1" stroke-width="1.728" stroke-miterlimit="10" stroke-linecap="round" stroke-linejoin="bevel"/><path d="M66.7 191.3V163m0 0l29.6-17.1" stroke="#224CA1" stroke-width=".576" stroke-miterlimit="10" stroke-linecap="round" stroke-linejoin="bevel"/><path d="M119.7 47.5v28.3L100 64.4V36.1l19.7 11.4z" fill="#1B2832"/><path d="M119.7 75.8L91.2 92.3c-13.5 7.8-24.5 26.8-24.5 42.4v14.1l-19.8-11.4v-14.1c0-15.6 11-34.6 24.5-42.4l28.5-16.5 19.8 11.4z" fill="#1B2832"/><path d="M46.9 137.5l19.8 11.4m-19.8-11.4v-14.1c0-15.6 11-34.6 24.5-42.4l28.5-16.5" stroke="#224CA1" stroke-width="1.728" stroke-miterlimit="10" stroke-linecap="round" stroke-linejoin="bevel"/><path d="M100 64.4l19.7 11.4" stroke="#224CA1" stroke-width=".576" stroke-miterlimit="10" stroke-linecap="round" stroke-linejoin="bevel"/><path d="M100 64.4V36.1m0 0l19.7 11.4M100 36.1l19.7 11.4" stroke="#224CA1" stroke-width="1.728" stroke-miterlimit="10" stroke-linecap="round" stroke-linejoin="bevel"/><path d="M141.5 14.9c-4.4-2.6-10.6-2.2-17.3 1.7L45.6 62c-13.5 7.8-24.5 26.8-24.5 42.4v28.3L1.3 121.3V93c0-15.6 11-34.6 24.5-42.4l78.6-45.4c6.8-3.9 12.9-4.3 17.3-1.7l19.8 11.4z" fill="#1B2832"/><path d="M1.3 121.3l19.8 11.4M1.3 121.3V93c0-15.6 11-34.6 24.5-42.4l78.6-45.4c6.8-3.9 12.9-4.3 17.3-1.7m.1 0l19.7 11.4" stroke="#224CA1" stroke-width="1.728" stroke-miterlimit="10" stroke-linecap="round" stroke-linejoin="bevel"/><path d="M141.5 14.9c4.4 2.6 7.2 8.1 7.2 15.9v28.3c0 15.6-11 34.6-24.5 42.4l-27.9 16.1v14.1l-29.7 17.1v-14.1c0-15.6 11-34.6 24.5-42.4l28.5-16.5V47.5L50.1 87.7V116l-29 16.7v-28.3c0-15.6 11-34.6 24.5-42.4l78.6-45.4c6.8-3.9 12.9-4.3 17.3-1.7z" fill="#FEFEFF" stroke="#FEFEFF" stroke-width="1.44" stroke-miterlimit="10" stroke-linejoin="bevel"/><path d="M141.5 14.9c4.4 2.6 7.2 8.1 7.2 15.9v28.3c0 15.6-11 34.6-24.5 42.4l-27.9 16.1m0 0v14.2m0 0l-29.6 17.1" stroke="#224CA1" stroke-width="1.728" stroke-miterlimit="10" stroke-linecap="round" stroke-linejoin="bevel"/><path d="M66.7 148.9v-14.1c0-15.6 11-34.6 24.5-42.4l28.5-16.5m0-.1V47.5" stroke="#224CA1" stroke-width=".576" stroke-miterlimit="10" stroke-linecap="round" stroke-linejoin="bevel"/><path d="M119.7 47.5L50.1 87.7m0 0V116m0 0l-29 16.7" stroke="#224CA1" stroke-width="1.728" stroke-miterlimit="10" stroke-linecap="round" stroke-linejoin="bevel"/><path d="M21.1 132.7v-28.3c0-15.6 11-34.6 24.5-42.4l78.6-45.4c6.8-3.9 12.9-4.3 17.3-1.7" stroke="#224CA1" stroke-width=".576" stroke-miterlimit="10" stroke-linecap="round" stroke-linejoin="bevel"/></svg>