<svg width="241" height="187" fill="none" xmlns="http://www.w3.org/2000/svg"><path d="M.9 99.5c0 1.7 1.1 3.3 3.3 4.6l108.3 62.5c4.4 2.5 11.5 2.5 15.9 0l108.3-62.5c2.2-1.3 3.3-2.9 3.3-4.6V117c0 1.7-1.1 3.3-3.3 4.6l-108.3 62.5c-4.4 2.5-11.5 2.5-15.9 0L4.2 121.6C2 120.3.9 118.7.9 117V99.5z" fill="#18242F"/><path d="M240 117V99.5m0 17.5c0 1.7-1.1 3.3-3.3 4.6l-108.3 62.5c-4.4 2.5-11.5 2.5-15.9 0L4.2 121.6C2 120.3.9 118.7.9 117m0 0V99.5" stroke="#224CA1" stroke-width="1.728" stroke-miterlimit="10" stroke-linecap="round" stroke-linejoin="bevel"/><path d="M.9 99.5c0-1.7 1.1-3.3 3.3-4.6l108.3-62.5c4.4-2.5 11.5-2.5 15.9 0l108.3 62.5c2.2 1.3 3.3 2.9 3.3 4.6 0 1.7-1.1 3.3-3.3 4.6l-108.3 62.5c-4.4 2.5-11.5 2.5-15.9 0L4.2 104.1c-2.2-1.3-3.3-3-3.3-4.6z" fill="#18242F"/><path d="M.9 99.5c0-1.7 1.1-3.3 3.3-4.6l108.3-62.5c4.4-2.5 11.5-2.5 15.9 0l108.3 62.5c2.2 1.3 3.3 2.9 3.3 4.6" stroke="#224CA1" stroke-width="1.728" stroke-miterlimit="10" stroke-linecap="round" stroke-linejoin="bevel"/><path d="M240 99.5c0 1.7-1.1 3.3-3.3 4.6l-108.3 62.5c-4.4 2.5-11.5 2.5-15.9 0L4.2 104.1C2 102.8.9 101.2.9 99.5" stroke="#224CA1" stroke-width=".576" stroke-miterlimit="10" stroke-linecap="round" stroke-linejoin="bevel"/><path d="M41.1 104.5l88.1-50.9m70.6 50.9l-88.2-50.9m-60.4 56.7l88.1-50.9m50.4 50.9l-88.2-50.9m-40.3 56.7l88.2-50.9m30.2 50.9L91.5 65.2m-20.2 56.7L159.5 71m10 50.9L81.4 71m0 56.7l88.1-50.9m-10 50.9L71.3 76.8m20.2 56.7l88.1-50.9m-30.2 50.9L61.2 82.6m40.3 56.8l88.2-50.9m-50.4 50.9L51.2 88.5m60.4 56.7l88.2-50.9m-70.6 50.9L41.1 94.3" stroke="#224CA1" stroke-width=".288" stroke-miterlimit="10" stroke-linecap="round" stroke-linejoin="bevel"/><path d="M72.5 37.6l.6-29.8" stroke="#224CA1" stroke-width="1.728" stroke-miterlimit="10" stroke-linecap="round" stroke-linejoin="bevel"/><path d="M73.1 7.8l4.8 11.6-.7 29.8-4.7-11.6.6-29.8z" fill="#18242F"/><path d="M77.2 49.2l.7-29.8m-.7 29.8l-4.7-11.6m0 0l.6-29.8" stroke="#224CA1" stroke-width="1.728" stroke-miterlimit="10" stroke-linecap="round" stroke-linejoin="bevel"/><path d="M168.1 29.6l11.1-9.8-.6 29.8-11.2 9.8.7-29.8z" fill="#18242F"/><path d="M178.6 49.6l.6-29.8m-.6 29.8l-11.2 9.8m0 0l.7-29.8M41.3 59.2l.7-29.8m125.4 30l.7-29.8" stroke="#224CA1" stroke-width="1.728" stroke-miterlimit="10" stroke-linecap="round" stroke-linejoin="bevel"/><path d="M42 29.4l15.5 7.9-.6 29.8-15.6-7.9.7-29.8z" fill="#18242F"/><path d="M56.9 67.1l.6-29.8m-.6 29.8l-15.6-7.9m0 0l.7-29.8" stroke="#224CA1" stroke-width="1.728" stroke-miterlimit="10" stroke-linecap="round" stroke-linejoin="bevel"/><path d="M174.9 56.9c.9-2 1.5-4.1 1.8-6.1l-.6 29.8c-.3 2.1-.9 4.1-1.8 6.1l.6-29.8z" fill="#18242F"/><path d="M176.7 50.8l19.2-4-.7 29.8-19.1 4 .6-29.8z" fill="#18242F"/><path d="M195.2 76.6l.7-29.8m-.7 29.8l-19.1 4" stroke="#224CA1" stroke-width="1.728" stroke-miterlimit="10" stroke-linecap="round" stroke-linejoin="bevel"/><path d="M176.1 80.6l.6-29.8" stroke="#224CA1" stroke-width=".576" stroke-miterlimit="10" stroke-linecap="round" stroke-linejoin="bevel"/><path d="M176.1 80.6c-.3 2.1-.9 4.1-1.8 6.1m0 0l.6-29.8m-.6 29.8l.6-29.8" stroke="#224CA1" stroke-width="1.728" stroke-miterlimit="10" stroke-linecap="round" stroke-linejoin="bevel"/><path d="M36.6 47.4c.2 3.5 1.1 6.9 2.6 10.3l-.6 29.8c-1.5-3.4-2.4-6.9-2.6-10.3l.6-29.8zm2.6 10.3L59.6 59 59 88.8l-20.4-1.3.6-29.8zM59.6 59c1.3 1.9 2.9 3.8 4.8 5.7l-.6 29.8c-1.9-1.8-3.5-3.7-4.8-5.7l.6-29.8z" fill="#18242F"/><path d="M63.8 94.4l.6-29.8m-.6 29.8c-1.9-1.8-3.5-3.7-4.8-5.7" stroke="#224CA1" stroke-width="1.728" stroke-miterlimit="10" stroke-linecap="round" stroke-linejoin="bevel"/><path d="M59 88.8l.6-29.8" stroke="#224CA1" stroke-width=".576" stroke-miterlimit="10" stroke-linecap="round" stroke-linejoin="bevel"/><path d="M59 88.8l-20.4-1.3" stroke="#224CA1" stroke-width="1.728" stroke-miterlimit="10" stroke-linecap="round" stroke-linejoin="bevel"/><path d="M38.6 87.5l.6-29.8" stroke="#224CA1" stroke-width=".576" stroke-miterlimit="10" stroke-linecap="round" stroke-linejoin="bevel"/><path d="M38.6 87.5c-1.5-3.4-2.4-6.9-2.6-10.3m0 0l.6-29.8" stroke="#224CA1" stroke-width="1.728" stroke-miterlimit="10" stroke-linecap="round" stroke-linejoin="bevel"/><path d="M154.6 74.8c1.4-.6 2.7-1.3 4-2 1.3-.7 2.5-1.5 3.7-2.2l-.6 29.8c-1.2.8-2.4 1.5-3.7 2.2-1.3.7-2.7 1.4-4 2l.6-29.8zm7.7-4.2l19.9 3.3-.7 29.8-19.8-3.3.6-29.8zm19.9 3.3c3.4-2.9 6.2-5.9 8.3-9.1l-.6 29.8c-2.1 3.2-4.9 6.2-8.3 9.1l.6-29.8z" fill="#18242F"/><path d="M189.9 94.6l.6-29.8m-.6 29.8c-2.1 3.2-4.9 6.2-8.3 9.1" stroke="#224CA1" stroke-width="1.728" stroke-miterlimit="10" stroke-linecap="round" stroke-linejoin="bevel"/><path d="M181.5 103.7l.7-29.8" stroke="#224CA1" stroke-width=".576" stroke-miterlimit="10" stroke-linecap="round" stroke-linejoin="bevel"/><path d="M181.5 103.7l-19.8-3.3" stroke="#224CA1" stroke-width="1.728" stroke-miterlimit="10" stroke-linecap="round" stroke-linejoin="bevel"/><path d="M161.7 100.4l.6-29.8" stroke="#224CA1" stroke-width=".576" stroke-miterlimit="10" stroke-linecap="round" stroke-linejoin="bevel"/><path d="M161.7 100.4c-1.2.8-2.4 1.5-3.7 2.2-1.3.7-2.7 1.4-4 2m0 0l.6-29.8M52.7 104.2l.6-29.8M154 104.6l.6-29.8" stroke="#224CA1" stroke-width="1.728" stroke-miterlimit="10" stroke-linecap="round" stroke-linejoin="bevel"/><path d="M53.3 74.4c1.8 1.4 3.8 2.7 5.9 4 2.1 1.3 4.4 2.5 6.6 3.6l-.6 29.8c-2.3-1.1-4.5-2.3-6.6-3.6-2.1-1.3-4.1-2.6-5.9-4l.6-29.8zM65.9 82l17.4-5.9-.6 29.8-17.5 5.9.7-29.8z" fill="#18242F"/><path d="M83.3 76.1c3.1 1.2 6.3 2.2 9.6 3l-.6 29.9c-3.3-.8-6.5-1.9-9.6-3l.6-29.9zm9.6 3.1L94 91l-.6 29.8-1.1-11.8.6-29.8zM94 91c5.8 1.1 11.7 1.7 17.7 2l-.6 29.8c-6-.3-11.9-1-17.7-2L94 91z" fill="#18242F"/><path d="M111.8 93l7.8-10.8-.6 29.8-7.9 10.8.7-29.8z" fill="#18242F"/><path d="M119.6 82.2c3.6-.1 7.2-.3 10.7-.7l-.6 29.8c-3.5.4-7.1.7-10.7.7l.6-29.8z" fill="#18242F"/><path d="M130.3 81.4l13 9.4-.7 29.8-12.9-9.4.6-29.8z" fill="#18242F"/><path d="M143.3 90.8c5.6-1.1 11-2.5 16.1-4.4l-.6 29.8c-5.1 1.8-10.5 3.3-16.1 4.4l.6-29.8z" fill="#18242F"/><path d="M158.7 116.2l.7-29.8m-.7 29.8c-5.1 1.8-10.5 3.3-16.1 4.4" stroke="#224CA1" stroke-width="1.728" stroke-miterlimit="10" stroke-linecap="round" stroke-linejoin="bevel"/><path d="M142.6 120.6l.7-29.8" stroke="#224CA1" stroke-width=".576" stroke-miterlimit="10" stroke-linecap="round" stroke-linejoin="bevel"/><path d="M142.6 120.6l-12.9-9.4" stroke="#224CA1" stroke-width="1.728" stroke-miterlimit="10" stroke-linecap="round" stroke-linejoin="bevel"/><path d="M129.7 111.2l.6-29.8" stroke="#224CA1" stroke-width=".576" stroke-miterlimit="10" stroke-linecap="round" stroke-linejoin="bevel"/><path d="M129.7 111.2c-3.5.4-7.1.7-10.7.7" stroke="#224CA1" stroke-width="1.728" stroke-miterlimit="10" stroke-linecap="round" stroke-linejoin="bevel"/><path d="M119 112l.6-29.8" stroke="#224CA1" stroke-width=".576" stroke-miterlimit="10" stroke-linecap="round" stroke-linejoin="bevel"/><path d="M119 112l-7.9 10.8" stroke="#224CA1" stroke-width="1.728" stroke-miterlimit="10" stroke-linecap="round" stroke-linejoin="bevel"/><path d="M111.1 122.8l.7-29.8" stroke="#224CA1" stroke-width=".576" stroke-miterlimit="10" stroke-linecap="round" stroke-linejoin="bevel"/><path d="M111.1 122.8c-6-.3-11.9-1-17.7-2" stroke="#224CA1" stroke-width="1.728" stroke-miterlimit="10" stroke-linecap="round" stroke-linejoin="bevel"/><path d="M93.4 120.8L94 91" stroke="#224CA1" stroke-width=".576" stroke-miterlimit="10" stroke-linecap="round" stroke-linejoin="bevel"/><path d="M93.4 120.8L92.3 109" stroke="#224CA1" stroke-width="1.728" stroke-miterlimit="10" stroke-linecap="round" stroke-linejoin="bevel"/><path d="M92.3 109l.6-29.8" stroke="#224CA1" stroke-width=".576" stroke-miterlimit="10" stroke-linecap="round" stroke-linejoin="bevel"/><path d="M92.3 109c-3.3-.8-6.5-1.9-9.6-3" stroke="#224CA1" stroke-width="1.728" stroke-miterlimit="10" stroke-linecap="round" stroke-linejoin="bevel"/><path d="M82.7 105.9l.6-29.8" stroke="#224CA1" stroke-width=".576" stroke-miterlimit="10" stroke-linecap="round" stroke-linejoin="bevel"/><path d="M82.7 105.9l-17.5 5.9" stroke="#224CA1" stroke-width="1.728" stroke-miterlimit="10" stroke-linecap="round" stroke-linejoin="bevel"/><path d="M65.2 111.8l.7-29.8" stroke="#224CA1" stroke-width=".576" stroke-miterlimit="10" stroke-linecap="round" stroke-linejoin="bevel"/><path d="M65.2 111.8c-2.3-1.1-4.5-2.3-6.6-3.6-2.1-1.3-4.1-2.6-5.9-4m0 0l.6-29.8" stroke="#224CA1" stroke-width="1.728" stroke-miterlimit="10" stroke-linecap="round" stroke-linejoin="bevel"/><path d="M36.6 47.4l19.1-4c.3-2.1.9-4.1 1.8-6.1L42 29.4c2.1-3.2 4.9-6.2 8.3-9.1l19.8 3.3c1.2-.8 2.4-1.5 3.7-2.2 1.3-.7 2.7-1.4 4-2L73 7.8C78.1 6 83.5 4.5 89.1 3.4l12.9 9.4c3.5-.4 7.1-.7 10.7-.7l7.9-10.8c6 .3 11.9 1 17.7 2l1.1 11.8c3.3.8 6.5 1.9 9.6 3l17.5-5.9c2.3 1.1 4.5 2.3 6.6 3.6 2.1 1.3 4.1 2.6 5.9 4l-11.1 9.8c1.9 1.8 3.5 3.7 4.8 5.7l20.4 1.2c1.5 3.4 2.4 6.9 2.6 10.3l-19.1 4c-.3 2.1-.9 4.1-1.8 6.1l15.6 7.9c-2.1 3.2-4.9 6.2-8.3 9.1l-19.8-3.3c-1.2.8-2.4 1.5-3.7 2.2-1.3.7-2.7 1.4-4 2l4.8 11.6c-5.1 1.8-10.5 3.3-16.1 4.4l-12.9-9.4c-3.5.4-7.1.7-10.7.7l-7.9 10.8c-6-.3-11.9-1-17.7-2L93 79.1c-3.3-.8-6.5-1.9-9.6-3L65.9 82c-2.3-1.1-4.5-2.3-6.6-3.6-2.1-1.3-4.1-2.6-5.9-4l11.1-9.8c-1.9-1.8-3.5-3.7-4.8-5.7l-20.4-1.2c-1.6-3.4-2.5-6.8-2.7-10.3z" fill="#18242F"/><path d="M36.6 47.4l19.1-4m0 0c.3-2.1.9-4.1 1.8-6.1" stroke="#224CA1" stroke-width="1.728" stroke-miterlimit="10" stroke-linecap="round" stroke-linejoin="bevel"/><path d="M57.5 37.3L42 29.4" stroke="#224CA1" stroke-width=".576" stroke-miterlimit="10" stroke-linecap="round" stroke-linejoin="bevel"/><path d="M42 29.4c2.1-3.2 4.9-6.2 8.3-9.1m0 0l19.9 3.3m0 0c1.2-.8 2.4-1.5 3.7-2.2 1.3-.7 2.7-1.4 4-2" stroke="#224CA1" stroke-width="1.728" stroke-miterlimit="10" stroke-linecap="round" stroke-linejoin="bevel"/><path d="M77.9 19.4L73.1 7.8" stroke="#224CA1" stroke-width=".576" stroke-miterlimit="10" stroke-linecap="round" stroke-linejoin="bevel"/><path d="M73.1 7.8C78.2 6 83.6 4.5 89.2 3.4m0 0l13 9.4m0 0c3.5-.4 7.1-.7 10.7-.7m0 0l7.8-10.9m0 0c6 .3 11.9 1 17.7 2m.1 0l1.1 11.9m0 0c3.3.8 6.5 1.9 9.6 3m-.1 0l17.5-5.9m0 0c2.3 1.1 4.5 2.3 6.6 3.6 2.1 1.3 4.1 2.6 5.9 4" stroke="#224CA1" stroke-width="1.728" stroke-miterlimit="10" stroke-linecap="round" stroke-linejoin="bevel"/><path d="M179.2 19.8l-11.1 9.8" stroke="#224CA1" stroke-width=".576" stroke-miterlimit="10" stroke-linecap="round" stroke-linejoin="bevel"/><path d="M168.1 29.6c1.9 1.8 3.5 3.7 4.8 5.7m0-.1l20.4 1.3m0 0c1.5 3.4 2.4 6.9 2.6 10.3" stroke="#224CA1" stroke-width="1.728" stroke-miterlimit="10" stroke-linecap="round" stroke-linejoin="bevel"/><path d="M195.9 46.8l-19.2 4m0 0c-.3 2.1-.9 4.1-1.8 6.1" stroke="#224CA1" stroke-width=".576" stroke-miterlimit="10" stroke-linecap="round" stroke-linejoin="bevel"/><path d="M174.9 56.9l15.6 7.9" stroke="#224CA1" stroke-width="1.728" stroke-miterlimit="10" stroke-linecap="round" stroke-linejoin="bevel"/><path d="M190.5 64.8c-2.1 3.2-4.9 6.2-8.3 9.1m0 0l-19.9-3.3m0 0c-1.2.8-2.4 1.5-3.7 2.2-1.3.7-2.7 1.4-4 2" stroke="#224CA1" stroke-width=".576" stroke-miterlimit="10" stroke-linecap="round" stroke-linejoin="bevel"/><path d="M154.6 74.8l4.8 11.6" stroke="#224CA1" stroke-width="1.728" stroke-miterlimit="10" stroke-linecap="round" stroke-linejoin="bevel"/><path d="M159.4 86.4c-5.1 1.8-10.5 3.3-16.1 4.4m0 0l-13-9.4m0 0c-3.5.4-7.1.7-10.7.7m0 .1L111.8 93m0 0c-6-.3-11.9-1-17.7-2m-.1 0l-1.1-11.8m0 0c-3.3-.8-6.5-1.9-9.6-3m0-.1L65.9 82m0 0c-2.3-1.1-4.5-2.3-6.6-3.6-2.1-1.3-4.1-2.6-5.9-4" stroke="#224CA1" stroke-width=".576" stroke-miterlimit="10" stroke-linecap="round" stroke-linejoin="bevel"/><path d="M53.3 74.4l11.1-9.8" stroke="#224CA1" stroke-width="1.728" stroke-miterlimit="10" stroke-linecap="round" stroke-linejoin="bevel"/><path d="M64.4 64.6c-1.9-1.8-3.5-3.7-4.8-5.7m0 .1l-20.4-1.3m0 0c-1.5-3.4-2.4-6.9-2.6-10.3" stroke="#224CA1" stroke-width=".576" stroke-miterlimit="10" stroke-linecap="round" stroke-linejoin="bevel"/><path d="M160.6 51.7c.3-14.2-19.3-26.1-43.9-26.6-24.5-.5-44.7 10.5-45 24.7l.1-3.7c.3-14.2 20.4-25.2 45-24.7 24.5.5 44.2 12.4 43.9 26.6l-.1 3.7z" fill="#18242F"/><path d="M71.8 46.2v3.6m0-3.6c.3-14.2 20.4-25.2 45-24.7 24.5.5 44.2 12.4 43.9 26.6m0 0l-.1 3.6" stroke="#224CA1" stroke-width="1.728" stroke-miterlimit="10" stroke-linecap="round" stroke-linejoin="bevel"/><path d="M160.568 51.709c.304-14.136-19.325-26.022-43.841-26.548-24.517-.527-44.638 10.506-44.941 24.641-.304 14.136 19.325 26.022 43.841 26.548 24.517.527 44.638-10.506 44.941-24.641z" fill="#18242F"/><path d="M160.6 51.7c-.3 14.2-20.4 25.2-45 24.7-24.5-.5-44.2-12.4-43.9-26.6" stroke="#224CA1" stroke-width="1.728" stroke-miterlimit="10" stroke-linecap="round" stroke-linejoin="bevel"/><path d="M71.8 49.8c.3-14.2 20.4-25.2 45-24.7 24.5.5 44.2 12.4 43.9 26.6" stroke="#224CA1" stroke-width=".576" stroke-miterlimit="10" stroke-linecap="round" stroke-linejoin="bevel"/><path d="M129.735 47.44c.092-4.306-5.876-7.928-13.33-8.088-7.454-.16-13.572 3.202-13.665 7.509-.092 4.307 5.876 7.928 13.33 8.088 7.454.16 13.572-3.201 13.665-7.508z" stroke="#224CA1" stroke-width="1.728" stroke-miterlimit="10" stroke-linecap="round" stroke-linejoin="bevel"/></svg>