<svg width="241" height="260" fill="none" xmlns="http://www.w3.org/2000/svg"><g clip-path="url(#clip0_361_544)"><path d="M165.4 247.3c.7.4 1.8.2 3.1-.5 1.8-1 3.1-2.5 3.8-4.5.7-1.9 1-4.3 1-7.1v-6.9c0-2.8-.3-4.8-1-5.9-.2-.3-.4-.5-.7-.7l-7.9-4.5c.3.1.5.4.7.7.7 1.1 1 3.1 1 5.9v6.9c0 2.8-.3 5.2-1 7.1-.7 1.9-2 3.4-3.8 4.5-1.3.8-2.4 1-3.1.5l7.9 4.5z" fill="#18232D"/><path d="M163.8 217.1l7.9 4.5m-7.9-4.5c.3.1.5.4.7.7.7 1.1 1 3.1 1 5.9v6.9c0 2.8-.3 5.2-1 7.1-.7 1.9-2 3.4-3.8 4.5-1.3.8-2.4 1-3.1.5m-.1 0l7.9 4.6m-7.9-4.6l7.9 4.6m-1.6-30.2l7.9 4.5" stroke="#224CA1" stroke-width="1.728" stroke-miterlimit="10" stroke-linecap="round" stroke-linejoin="bevel"/><path d="M176.6 214.2c-2-1.1-4.7-.7-8.1 1.3-4.2 2.4-7.2 5.8-9.2 10.3-2 4.5-3 9.7-3 15.7s1 10.1 3 12.2c.3.4.7.7 1.1.9l-7.9-4.5c-.4-.2-.8-.5-1.1-.9-2-2.2-3-6.2-3-12.2 0-6 1-11.2 3-15.7s5.1-7.9 9.2-10.3c3.4-2 6.1-2.4 8.1-1.3l7.9 4.5z" fill="#18232D"/><path d="M152.6 250.1l7.9 4.6m-7.9-4.6c-.4-.2-.8-.5-1.1-.9-2-2.2-3-6.2-3-12.2 0-6 1-11.2 3-15.7s5.1-7.9 9.2-10.3c3.4-2 6.1-2.4 8.1-1.3m-.1 0l7.9 4.5" stroke="#224CA1" stroke-width="1.728" stroke-miterlimit="10" stroke-linecap="round" stroke-linejoin="bevel"/><path d="M168.5 253.4c-4.2 2.4-7.2 2.5-9.2.3-2-2.2-3-6.2-3-12.2 0-6 1-11.2 3-15.7s5.1-7.9 9.2-10.3c4.1-2.4 7.2-2.5 9.2-.3 2 2.2 3 6.2 3 12.2 0 6-1 11.2-3 15.7-1.9 4.5-5 7.9-9.2 10.3zm0-6.7c1.8-1 3.1-2.5 3.8-4.5.7-1.9 1-4.3 1-7.1v-6.9c0-2.8-.3-4.8-1-5.9-.7-1.1-2-1.2-3.8-.1-1.8 1-3.1 2.5-3.8 4.5-.7 1.9-1 4.3-1 7.1v6.9c0 2.8.3 4.8 1 5.9.8 1.1 2 1.2 3.8.1z" fill="#18232D"/><path d="M165.4 247.3c-.3-.1-.5-.4-.7-.7-.7-1.1-1-3.1-1-5.9v-6.9c0-2.8.3-5.2 1-7.1.7-1.9 2-3.4 3.8-4.5 1.3-.8 2.4-1 3.1-.5" stroke="#224CA1" stroke-width="1.728" stroke-miterlimit="10" stroke-linecap="round" stroke-linejoin="bevel"/><path d="M171.7 221.6c.3.1.5.4.7.7.7 1.1 1 3.1 1 5.9v6.9c0 2.8-.3 5.2-1 7.1-.7 1.9-2 3.4-3.8 4.5-1.3.8-2.4 1-3.1.5" stroke="#224CA1" stroke-width=".576" stroke-miterlimit="10" stroke-linecap="round" stroke-linejoin="bevel"/><path d="M160.5 254.7c-.4-.2-.8-.5-1.1-.9-2-2.2-3-6.2-3-12.2 0-6 1-11.2 3-15.7s5.1-7.9 9.2-10.3c3.4-2 6.1-2.4 8.1-1.3" stroke="#224CA1" stroke-width=".576" stroke-miterlimit="10" stroke-linecap="round" stroke-linejoin="bevel"/><path d="M176.6 214.2c.4.2.8.5 1.1.9 2 2.2 3 6.2 3 12.2 0 6-1 11.2-3 15.7s-5.1 7.9-9.2 10.3c-3.4 2-6.1 2.4-8.1 1.3" stroke="#224CA1" stroke-width="1.728" stroke-miterlimit="10" stroke-linecap="round" stroke-linejoin="bevel"/><path d="M219 174c.7.4 1.8.2 3.1-.5 1.8-1 3.1-2.5 3.8-4.5.7-1.9 1-4.3 1-7.1V155c0-2.8-.3-4.8-1-5.9-.2-.3-.4-.5-.7-.7l-7.9-4.5c.3.1.5.4.7.7.7 1.1 1 3.1 1 5.9v6.9c0 2.8-.3 5.2-1 7.1-.7 1.9-2 3.4-3.8 4.5-1.3.8-2.4 1-3.1.5l7.9 4.5z" fill="#18232D"/><path d="M217.4 143.9l7.9 4.5m-7.9-4.5c.3.1.5.4.7.7.7 1.1 1 3.1 1 5.9v6.9c0 2.8-.3 5.2-1 7.1-.7 1.9-2 3.4-3.8 4.5-1.3.8-2.4 1-3.1.5m-.1 0l7.9 4.5m-7.9-4.5l7.9 4.5m-1.6-30.1l7.9 4.5" stroke="#224CA1" stroke-width="1.728" stroke-miterlimit="10" stroke-linecap="round" stroke-linejoin="bevel"/><path d="M230.2 141c-2-1.1-4.7-.7-8.1 1.3-4.2 2.4-7.2 5.8-9.2 10.3-2 4.5-3 9.7-3 15.7s1 10.1 3 12.2c.3.4.7.7 1.1.9l-7.9-4.5c-.4-.2-.8-.5-1.1-.9-2-2.2-3-6.2-3-12.2 0-6 1-11.2 3-15.7s5.1-7.9 9.2-10.3c3.4-2 6.1-2.4 8.1-1.3l7.9 4.5z" fill="#18232D"/><path d="M206.2 176.9l7.9 4.5m-7.9-4.5c-.4-.2-.8-.5-1.1-.9-2-2.2-3-6.2-3-12.2 0-6 1-11.2 3-15.7s5.1-7.9 9.2-10.3c3.4-2 6.1-2.4 8.1-1.3m-.1 0l7.9 4.5" stroke="#224CA1" stroke-width="1.728" stroke-miterlimit="10" stroke-linecap="round" stroke-linejoin="bevel"/><path d="M222.1 180.2c-4.2 2.4-7.2 2.5-9.2.3-2-2.2-3-6.2-3-12.2 0-6 1-11.2 3-15.7s5.1-7.9 9.2-10.3c4.1-2.4 7.2-2.5 9.2-.3 2 2.2 3 6.2 3 12.2 0 6-1 11.2-3 15.7-1.9 4.4-5 7.9-9.2 10.3zm0-6.7c1.8-1 3.1-2.5 3.8-4.5.7-1.9 1-4.3 1-7.1V155c0-2.8-.3-4.8-1-5.9-.7-1.1-2-1.2-3.8-.1-1.8 1-3.1 2.5-3.8 4.5-.7 1.9-1 4.3-1 7.1v6.9c0 2.8.3 4.8 1 5.9.8 1.1 2 1.2 3.8.1z" fill="#18232D"/><path d="M219 174c-.3-.1-.5-.4-.7-.7-.7-1.1-1-3.1-1-5.9v-6.9c0-2.8.3-5.2 1-7.1.7-1.9 2-3.4 3.8-4.5 1.3-.8 2.4-1 3.1-.5" stroke="#224CA1" stroke-width="1.728" stroke-miterlimit="10" stroke-linecap="round" stroke-linejoin="bevel"/><path d="M225.3 148.4c.3.1.5.4.7.7.7 1.1 1 3.1 1 5.9v6.9c0 2.8-.3 5.2-1 7.1-.7 1.9-2 3.4-3.8 4.5-1.3.8-2.4 1-3.1.5" stroke="#224CA1" stroke-width=".576" stroke-miterlimit="10" stroke-linecap="round" stroke-linejoin="bevel"/><path d="M214.1 181.4c-.4-.2-.8-.5-1.1-.9-2-2.2-3-6.2-3-12.2 0-6 1-11.2 3-15.7s5.1-7.9 9.2-10.3c3.4-2 6.1-2.4 8.1-1.3" stroke="#224CA1" stroke-width=".576" stroke-miterlimit="10" stroke-linecap="round" stroke-linejoin="bevel"/><path d="M230.2 141c.4.2.8.5 1.1.9 2 2.2 3 6.2 3 12.2 0 6-1 11.2-3 15.7s-5.1 7.9-9.2 10.3c-3.4 2-6.1 2.4-8.1 1.3" stroke="#224CA1" stroke-width="1.728" stroke-miterlimit="10" stroke-linecap="round" stroke-linejoin="bevel"/><path d="M185.8 213.4c1.4.8 3.4.5 5.9-1 3.5-2 5.9-4.9 7.2-8.6 1.3-3.7 2-8.2 2-13.6V177c0-5.3-.7-9.1-2-11.3-.3-.6-.8-1-1.2-1.3l-15-8.7c.5.3.9.7 1.2 1.3 1.3 2.2 2 5.9 2 11.3v13.2c0 5.3-.7 9.9-2 13.6-1.3 3.7-3.7 6.6-7.2 8.6-2.6 1.5-4.6 1.8-5.9 1l15 8.7z" fill="#18232D"/><path d="M182.7 155.9l15 8.7m-15-8.7c.5.3.9.7 1.2 1.3 1.3 2.2 2 5.9 2 11.3v13.2c0 5.3-.7 9.9-2 13.6-1.3 3.7-3.7 6.6-7.2 8.6-2.6 1.5-4.6 1.8-5.9 1m0-.1l15 8.6m-15-8.6l15 8.6m-3.1-57.5l15 8.7" stroke="#224CA1" stroke-width="1.728" stroke-miterlimit="10" stroke-linecap="round" stroke-linejoin="bevel"/><path d="M207.2 150.5c-3.7-2.2-8.9-1.4-15.4 2.4-7.9 4.6-13.8 11.1-17.6 19.7-3.8 8.5-5.7 18.5-5.7 29.9 0 11.4 1.9 19.2 5.7 23.3.7.7 1.4 1.3 2.2 1.8l-15-8.7c-.8-.5-1.5-1-2.2-1.8-3.8-4.1-5.7-11.9-5.7-23.3s1.9-21.4 5.7-29.9c3.8-8.5 9.7-15.1 17.6-19.7 6.5-3.8 11.7-4.6 15.4-2.4l15 8.7z" fill="#18232D"/><path d="M161.3 218.9l15.1 8.6m-15.1-8.6c-.8-.5-1.5-1-2.2-1.8-3.8-4.1-5.7-11.9-5.7-23.3s1.9-21.4 5.7-29.9c3.8-8.5 9.7-15.1 17.6-19.7 6.5-3.8 11.7-4.6 15.4-2.4m.1 0l15 8.7m-21.4 62.9c-.5-.3-.9-.7-1.2-1.3-1.3-2.2-2-5.9-2-11.3v-13.2c0-5.3.7-9.9 2-13.6 1.3-3.7 3.7-6.6 7.2-8.6 2.6-1.5 4.6-1.8 6-1" stroke="#224CA1" stroke-width="1.728" stroke-miterlimit="10" stroke-linecap="round" stroke-linejoin="bevel"/><path d="M191.8 225.1c-7.9 4.6-13.8 4.8-17.6.6-3.8-4.1-5.7-11.9-5.7-23.3s1.9-21.4 5.7-29.9c3.8-8.5 9.7-15.1 17.6-19.7 7.9-4.6 13.8-4.8 17.6-.6 3.8 4.1 5.7 11.9 5.7 23.3s-1.9 21.4-5.7 29.9c-3.9 8.6-9.7 15.2-17.6 19.7zm0-12.7c3.5-2 5.9-4.9 7.2-8.6 1.3-3.7 2-8.2 2-13.6V177c0-5.3-.7-9.1-2-11.3-1.3-2.2-3.7-2.3-7.2-.3-3.5 2-5.9 4.9-7.2 8.6-1.3 3.7-2 8.2-2 13.6v13.2c0 5.3.7 9.1 2 11.3 1.3 2.2 3.7 2.3 7.2.3z" fill="#18232D"/><path d="M197.7 164.6c.5.3.9.7 1.2 1.3 1.3 2.2 2 5.9 2 11.3v13.2c0 5.3-.7 9.9-2 13.6-1.3 3.7-3.7 6.6-7.2 8.6-2.6 1.5-4.6 1.8-5.9 1" stroke="#224CA1" stroke-width=".576" stroke-miterlimit="10" stroke-linecap="round" stroke-linejoin="bevel"/><path d="M176.4 227.5c-.8-.5-1.5-1-2.2-1.8-3.8-4.1-5.7-11.9-5.7-23.3s1.9-21.4 5.7-29.9c3.8-8.5 9.7-15.1 17.6-19.7 6.5-3.8 11.7-4.6 15.4-2.4" stroke="#224CA1" stroke-width=".576" stroke-miterlimit="10" stroke-linecap="round" stroke-linejoin="bevel"/><path d="M207.2 150.5c.8.5 1.5 1 2.2 1.8 3.8 4.1 5.7 11.9 5.7 23.3s-1.9 21.4-5.7 29.9c-3.8 8.5-9.7 15.1-17.6 19.7-6.5 3.8-11.7 4.6-15.4 2.4" stroke="#224CA1" stroke-width="1.728" stroke-miterlimit="10" stroke-linecap="round" stroke-linejoin="bevel"/><path d="M52.2 211.2l-16.3-9.4 15.7-9 16.3 9.4-15.7 9z" fill="#18232D"/><path d="M51.6 192.8l-15.7 9m15.7-9l16.3 9.4m0 0l-15.7 9m15.7-9l-15.7 9m2.6-44.8l-15.7 9" stroke="#224CA1" stroke-width="1.728" stroke-miterlimit="10" stroke-linecap="round" stroke-linejoin="bevel"/><path d="M39.1 175.4l12.4-11.5 15.6-9-12.3 11.5-15.7 9z" fill="#18232D"/><path d="M67.1 154.9l-15.6 9m15.6-9l-12.3 11.5m0 0l-15.7 9" stroke="#224CA1" stroke-width="1.728" stroke-miterlimit="10" stroke-linecap="round" stroke-linejoin="bevel"/><path d="M78.1 238.2v-12.1l15.6-9v12.1l-15.6 9z" fill="#18232D"/><path d="M78.1 226.1l-12.9-7.4 15.7-9 12.8 7.4-15.6 9z" fill="#18232D"/><path d="M65.2 218.7V161l15.7-9.1v57.8l-15.7 9z" fill="#18232D"/><path d="M65.2 161l-19.9-11.5 15.7-9.1 19.9 11.5-15.7 9.1z" fill="#18232D"/><path d="M61 140.4l-15.7 9.1m15.7-9.1l19.9 11.5" stroke="#224CA1" stroke-width="1.728" stroke-miterlimit="10" stroke-linecap="round" stroke-linejoin="bevel"/><path d="M80.9 151.9L65.2 161" stroke="#224CA1" stroke-width=".576" stroke-miterlimit="10" stroke-linecap="round" stroke-linejoin="bevel"/><path d="M80.9 151.9v57.8" stroke="#224CA1" stroke-width="1.728" stroke-miterlimit="10" stroke-linecap="round" stroke-linejoin="bevel"/><path d="M80.9 209.7l-15.7 9" stroke="#224CA1" stroke-width=".576" stroke-miterlimit="10" stroke-linecap="round" stroke-linejoin="bevel"/><path d="M80.9 209.7l12.8 7.4" stroke="#224CA1" stroke-width="1.728" stroke-miterlimit="10" stroke-linecap="round" stroke-linejoin="bevel"/><path d="M93.7 217.1l-15.6 9" stroke="#224CA1" stroke-width=".576" stroke-miterlimit="10" stroke-linecap="round" stroke-linejoin="bevel"/><path d="M93.7 217.1v12.1m0 0l-15.6 9" stroke="#224CA1" stroke-width="1.728" stroke-miterlimit="10" stroke-linecap="round" stroke-linejoin="bevel"/><path d="M35.9 213.9v-12.1l16.3 9.4v-46.8l-.8-.4-12.3 11.5-8.3-12.3 14.5-13.7L65.2 161v57.7l12.8 7.4v12.1l-42.1-24.3z" fill="#18232D"/><path d="M78.1 226.1v12.1m-12.9-19.5l12.9 7.4M65.2 161v57.7m-19.9-69.2L65.2 161" stroke="#224CA1" stroke-width=".576" stroke-miterlimit="10" stroke-linecap="round" stroke-linejoin="bevel"/><path d="M30.8 163.1l14.5-13.6m-6.2 25.9l-8.3-12.3" stroke="#224CA1" stroke-width="1.728" stroke-miterlimit="10" stroke-linecap="round" stroke-linejoin="bevel"/><path d="M51.5 163.9l-12.4 11.5" stroke="#224CA1" stroke-width=".576" stroke-miterlimit="10" stroke-linecap="round" stroke-linejoin="bevel"/><path d="M52.2 164.4l-.7-.5m.7 47.3v-46.8" stroke="#224CA1" stroke-width="1.728" stroke-miterlimit="10" stroke-linecap="round" stroke-linejoin="bevel"/><path d="M35.9 201.8l16.3 9.4" stroke="#224CA1" stroke-width=".576" stroke-miterlimit="10" stroke-linecap="round" stroke-linejoin="bevel"/><path d="M35.9 213.9v-12.1m42.2 36.4l-42.2-24.3" stroke="#224CA1" stroke-width="1.728" stroke-miterlimit="10" stroke-linecap="round" stroke-linejoin="bevel"/><path d="M100.4 245.1l-8.4-4.8 8.1-4.7 8.3 4.8-8 4.7z" fill="#18232D"/><path d="M100.1 235.6l-8.1 4.7m8.1-4.7l8.3 4.8m0 0l-8 4.7m8-4.7l-8 4.7m1.3-23l-8 4.6" stroke="#224CA1" stroke-width="1.728" stroke-miterlimit="10" stroke-linecap="round" stroke-linejoin="bevel"/><path d="M93.7 226.7l6.3-5.9 8-4.6-6.3 5.9-8 4.6z" fill="#18232D"/><path d="M108 216.2l-8 4.6m8-4.6l-6.3 5.9m0 0l-8 4.6" stroke="#224CA1" stroke-width="1.728" stroke-miterlimit="10" stroke-linecap="round" stroke-linejoin="bevel"/><path d="M113.6 258.9v-6.2l8.1-4.6v6.2l-8.1 4.6z" fill="#18232D"/><path d="M113.6 252.7l-6.6-3.8 8.1-4.6 6.6 3.8-8.1 4.6z" fill="#18232D"/><path d="M107 248.9v-29.6l8.1-4.6v29.6l-8.1 4.6z" fill="#18232D"/><path d="M107 219.3l-10.2-5.9 8.1-4.6 10.2 5.9-8.1 4.6z" fill="#18232D"/><path d="M104.9 208.8l-8.1 4.6m8.1-4.6l10.2 5.9" stroke="#224CA1" stroke-width="1.728" stroke-miterlimit="10" stroke-linecap="round" stroke-linejoin="bevel"/><path d="M115.1 214.7l-8.1 4.6" stroke="#224CA1" stroke-width=".576" stroke-miterlimit="10" stroke-linecap="round" stroke-linejoin="bevel"/><path d="M115.1 214.7v29.6" stroke="#224CA1" stroke-width="1.728" stroke-miterlimit="10" stroke-linecap="round" stroke-linejoin="bevel"/><path d="M115.1 244.3l-8.1 4.6" stroke="#224CA1" stroke-width=".576" stroke-miterlimit="10" stroke-linecap="round" stroke-linejoin="bevel"/><path d="M115.1 244.3l6.6 3.8" stroke="#224CA1" stroke-width="1.728" stroke-miterlimit="10" stroke-linecap="round" stroke-linejoin="bevel"/><path d="M121.7 248.1l-8.1 4.6" stroke="#224CA1" stroke-width=".576" stroke-miterlimit="10" stroke-linecap="round" stroke-linejoin="bevel"/><path d="M121.7 248.1v6.2m0 0l-8.1 4.6" stroke="#224CA1" stroke-width="1.728" stroke-miterlimit="10" stroke-linecap="round" stroke-linejoin="bevel"/><path d="M92 246.5v-6.2l8.4 4.8v-24l-.4-.2-6.3 5.9-4.3-6.3 7.4-7 10.2 5.9V249l6.6 3.8v6.2L92 246.5z" fill="#18232D"/><path d="M113.6 252.7v6.2m-6.6-10l6.6 3.8m-6.6-33.4v29.6m-10.2-35.5l10.2 5.9" stroke="#224CA1" stroke-width=".576" stroke-miterlimit="10" stroke-linecap="round" stroke-linejoin="bevel"/><path d="M89.4 220.4l7.4-7m-3.1 13.3l-4.3-6.3" stroke="#224CA1" stroke-width="1.728" stroke-miterlimit="10" stroke-linecap="round" stroke-linejoin="bevel"/><path d="M100 220.8l-6.3 5.9" stroke="#224CA1" stroke-width=".576" stroke-miterlimit="10" stroke-linecap="round" stroke-linejoin="bevel"/><path d="M100.4 221.1l-.4-.3m.4 24.3v-24" stroke="#224CA1" stroke-width="1.728" stroke-miterlimit="10" stroke-linecap="round" stroke-linejoin="bevel"/><path d="M92 240.3l8.4 4.8" stroke="#224CA1" stroke-width=".576" stroke-miterlimit="10" stroke-linecap="round" stroke-linejoin="bevel"/><path d="M92 246.5v-6.2m21.6 18.6L92 246.5" stroke="#224CA1" stroke-width="1.728" stroke-miterlimit="10" stroke-linecap="round" stroke-linejoin="bevel"/><path d="M84.6 178.4c-.2.1-.4.3-.6.6-.6 1-.9 2.7-.9 5.2v6.1c0 2.5.3 4.6.9 6.3.6 1.7 1.7 3 3.3 4 1.2.7 2.1.8 2.8.5l7.3-4.2c-.6.4-1.6.2-2.8-.5-1.6-.9-2.7-2.3-3.3-4-.6-1.7-.9-3.8-.9-6.3V180c0-2.5.3-4.2.9-5.2.2-.3.4-.5.6-.6l-7.3 4.2z" fill="#18232D"/><path d="M97.4 196.8l-7.3 4.2m7.3-4.2c-.6.4-1.6.2-2.8-.5-1.6-.9-2.7-2.3-3.3-4-.6-1.7-.9-3.8-.9-6.3v-6c0-2.5.3-4.2.9-5.2.2-.3.4-.5.6-.6m0 0l-7.3 4.2m7.3-4.2l-7.3 4.2m12.8 18.4l-7.3 4.2" stroke="#224CA1" stroke-width="1.728" stroke-miterlimit="10" stroke-linecap="round" stroke-linejoin="bevel"/><path d="M94.5 207.6c.4-.2.7-.5 1-.8 1.8-1.9 2.7-5.5 2.7-10.8 0-5.3-.9-9.9-2.7-13.9-1.8-4-4.5-7-8.2-9.1-3-1.8-5.4-2.1-7.1-1.1l7.3-4.2c1.7-1 4.1-.6 7.1 1.1 3.7 2.1 6.4 5.2 8.2 9.1 1.8 4 2.7 8.6 2.7 13.9 0 5.3-.9 8.9-2.7 10.8-.3.3-.6.6-1 .8l-7.3 4.2z" fill="#18232D"/><path d="M87.5 167.6l-7.3 4.2m7.3-4.2c1.7-1 4.1-.6 7.1 1.1 3.7 2.1 6.4 5.2 8.2 9.1 1.8 4 2.7 8.6 2.7 13.9 0 5.3-.9 8.9-2.7 10.8-.3.3-.6.6-1 .8m0 .1l-7.3 4.2" stroke="#224CA1" stroke-width="1.728" stroke-miterlimit="10" stroke-linecap="round" stroke-linejoin="bevel"/><path d="M87.4 206.5c-3.7-2.1-6.4-5.2-8.2-9.1-1.8-4-2.7-8.6-2.7-13.9 0-5.3.9-8.9 2.7-10.8 1.8-1.9 4.5-1.8 8.2.3 3.7 2.1 6.4 5.2 8.2 9.1 1.8 4 2.7 8.6 2.7 13.9 0 5.3-.9 8.9-2.7 10.8-1.9 1.9-4.6 1.8-8.2-.3zm0-5.9c1.6.9 2.7.9 3.3-.1.6-1 .9-2.7.9-5.2v-6.1c0-2.5-.3-4.6-.9-6.3-.6-1.7-1.7-3-3.3-4-1.6-1-2.7-.9-3.3.1-.6 1-.9 2.7-.9 5.2v6.1c0 2.5.3 4.6.9 6.3.5 1.7 1.6 3 3.3 4z" fill="#18232D"/><path d="M84.6 178.4c.6-.4 1.6-.2 2.8.5 1.6.9 2.7 2.3 3.3 4 .6 1.7.9 3.8.9 6.3v6.1c0 2.5-.3 4.2-.9 5.2-.2.3-.4.5-.6.6" stroke="#224CA1" stroke-width="1.728" stroke-miterlimit="10" stroke-linecap="round" stroke-linejoin="bevel"/><path d="M90.1 201c-.6.4-1.6.2-2.8-.5-1.6-.9-2.7-2.3-3.3-4-.6-1.7-.9-3.8-.9-6.3v-6.1c0-2.5.3-4.2.9-5.2.2-.3.4-.5.6-.6" stroke="#224CA1" stroke-width=".576" stroke-miterlimit="10" stroke-linecap="round" stroke-linejoin="bevel"/><path d="M80.2 171.8c1.7-1 4.1-.6 7.1 1.1 3.7 2.1 6.4 5.2 8.2 9.1 1.8 4 2.7 8.6 2.7 13.9 0 5.3-.9 8.9-2.7 10.8-.3.3-.6.6-1 .8" stroke="#224CA1" stroke-width=".576" stroke-miterlimit="10" stroke-linecap="round" stroke-linejoin="bevel"/><path d="M94.5 207.6c-1.7 1-4.1.6-7.1-1.1-3.7-2.1-6.4-5.2-8.2-9.1-1.8-4-2.7-8.6-2.7-13.9 0-5.3.9-8.9 2.7-10.8.3-.3.6-.6 1-.8" stroke="#224CA1" stroke-width="1.728" stroke-miterlimit="10" stroke-linecap="round" stroke-linejoin="bevel"/><path d="M18 127.3c-.2.1-.4.3-.6.6-.6 1-.9 2.7-.9 5.2v6.1c0 2.5.3 4.6.9 6.3.6 1.7 1.7 3 3.3 4 1.2.7 2.1.8 2.8.5l7.3-4.2c-.6.4-1.6.2-2.8-.5-1.6-.9-2.7-2.3-3.3-4-.6-1.7-.9-3.8-.9-6.3v-6.1c0-2.5.3-4.2.9-5.2.2-.3.4-.5.6-.6l-7.3 4.2z" fill="#18232D"/><path d="M30.8 145.8l-7.3 4.2m7.3-4.2c-.6.4-1.6.2-2.8-.5-1.6-.9-2.7-2.3-3.3-4-.6-1.7-.9-3.8-.9-6.3v-6.1c0-2.5.3-4.2.9-5.2.2-.3.4-.5.6-.6m0 0l-7.3 4.2m7.3-4.2l-7.3 4.2m12.8 18.5l-7.3 4.2" stroke="#224CA1" stroke-width="1.728" stroke-miterlimit="10" stroke-linecap="round" stroke-linejoin="bevel"/><path d="M27.9 156.6c.4-.2.7-.5 1-.8 1.8-1.9 2.7-5.5 2.7-10.8 0-5.3-.9-9.9-2.7-13.9-1.8-4-4.5-7-8.2-9.1-3-1.8-5.4-2.1-7.1-1.1l7.3-4.2c1.7-1 4.1-.6 7.1 1.1 3.7 2.1 6.4 5.2 8.2 9.1 1.8 4 2.7 8.6 2.7 13.9 0 5.3-.9 8.9-2.7 10.8-.3.3-.6.6-1 .8l-7.3 4.2z" fill="#18232D"/><path d="M20.9 116.6l-7.3 4.2m7.3-4.2c1.7-1 4.1-.6 7.1 1.1 3.7 2.1 6.4 5.2 8.2 9.1 1.8 4 2.7 8.6 2.7 13.9 0 5.3-.9 8.9-2.7 10.8-.3.3-.6.6-1 .8m0 .1l-7.3 4.2" stroke="#224CA1" stroke-width="1.728" stroke-miterlimit="10" stroke-linecap="round" stroke-linejoin="bevel"/><path d="M20.8 155.4c-3.7-2.1-6.4-5.2-8.2-9.1-1.8-4-2.7-8.6-2.7-13.9 0-5.3.9-8.9 2.7-10.8 1.8-1.9 4.5-1.8 8.2.3 3.7 2.1 6.4 5.2 8.2 9.1 1.8 4 2.7 8.6 2.7 13.9 0 5.3-.9 8.9-2.7 10.8-1.8 2-4.6 1.9-8.2-.3zm0-5.9c1.6.9 2.7.9 3.3-.1.6-1 .9-2.7.9-5.2v-6.1c0-2.5-.3-4.6-.9-6.3-.6-1.7-1.7-3-3.3-4-1.6-.9-2.7-.9-3.3.1-.6 1-.9 2.7-.9 5.2v6.1c0 2.5.3 4.6.9 6.3.5 1.8 1.7 3.1 3.3 4z" fill="#18232D"/><path d="M18 127.3c.6-.4 1.6-.2 2.8.5 1.6.9 2.7 2.3 3.3 4 .6 1.7.9 3.8.9 6.3v6.1c0 2.5-.3 4.2-.9 5.2-.2.3-.4.5-.6.6" stroke="#224CA1" stroke-width="1.728" stroke-miterlimit="10" stroke-linecap="round" stroke-linejoin="bevel"/><path d="M23.5 150c-.6.4-1.6.2-2.8-.5-1.6-.9-2.7-2.3-3.3-4-.6-1.7-.9-3.8-.9-6.3v-6.1c0-2.5.3-4.2.9-5.2.2-.3.4-.5.6-.6" stroke="#224CA1" stroke-width=".576" stroke-miterlimit="10" stroke-linecap="round" stroke-linejoin="bevel"/><path d="M13.6 120.8c1.7-1 4.1-.6 7.1 1.1 3.7 2.1 6.4 5.2 8.2 9.1 1.8 4 2.7 8.6 2.7 13.9 0 5.3-.9 8.9-2.7 10.8-.3.3-.6.6-1 .8" stroke="#224CA1" stroke-width=".576" stroke-miterlimit="10" stroke-linecap="round" stroke-linejoin="bevel"/><path d="M27.9 156.6c-1.7 1-4.1.6-7.1-1.1-3.7-2.1-6.4-5.2-8.2-9.1-1.8-4-2.7-8.6-2.7-13.9 0-5.3.9-8.9 2.7-10.8.3-.3.6-.6 1-.8m142 75l8.4 4.9" stroke="#224CA1" stroke-width="1.728" stroke-miterlimit="10" stroke-linecap="round" stroke-linejoin="bevel"/><path d="M164 200.8l-7.1 4.1-8.4-4.8 7.1-4.2 8.4 4.9z" fill="#18232D"/><path d="M148.5 200.1l8.4 4.8m-8.4-4.8l7.1-4.2m0 0l8.4 4.9" stroke="#224CA1" stroke-width="1.728" stroke-miterlimit="10" stroke-linecap="round" stroke-linejoin="bevel"/><path d="M149.6 182.9v26.2l-8.4-4.8V178l8.4 4.9zm0 26.2l-9.1 5.3-8.5-4.9 9.2-5.2 8.4 4.8z" fill="#18232D"/><path d="M140.5 214.4v6.8l-8.5-4.9v-6.8l8.5 4.9z" fill="#18232D"/><path d="M132 216.3l8.5 4.9m-8.5-4.9v-6.8" stroke="#224CA1" stroke-width="1.728" stroke-miterlimit="10" stroke-linecap="round" stroke-linejoin="bevel"/><path d="M132 209.5l8.5 4.9" stroke="#224CA1" stroke-width=".576" stroke-miterlimit="10" stroke-linecap="round" stroke-linejoin="bevel"/><path d="M132 209.5l9.2-5.2" stroke="#224CA1" stroke-width="1.728" stroke-miterlimit="10" stroke-linecap="round" stroke-linejoin="bevel"/><path d="M141.2 204.3l8.4 4.8" stroke="#224CA1" stroke-width=".576" stroke-miterlimit="10" stroke-linecap="round" stroke-linejoin="bevel"/><path d="M141.2 204.3V178m0 0l8.4 4.9m-8.4-4.9l8.4 4.9" stroke="#224CA1" stroke-width="1.728" stroke-miterlimit="10" stroke-linecap="round" stroke-linejoin="bevel"/><path d="M156.9 172.6l-11.2 6.4-8.4-4.8 11.2-6.5 8.4 4.9zm-11.2 6.4l-8.1 17-8.4-4.8 8.1-17 8.4 4.8z" fill="#18232D"/><path d="M129.2 191.2l8.4 4.8m-8.4-4.8l8.1-17" stroke="#224CA1" stroke-width="1.728" stroke-miterlimit="10" stroke-linecap="round" stroke-linejoin="bevel"/><path d="M137.3 174.2l8.4 4.8" stroke="#224CA1" stroke-width=".576" stroke-miterlimit="10" stroke-linecap="round" stroke-linejoin="bevel"/><path d="M137.3 174.2l11.2-6.5m0 0l8.4 4.9" stroke="#224CA1" stroke-width="1.728" stroke-miterlimit="10" stroke-linecap="round" stroke-linejoin="bevel"/><path d="M140.5 221.2v-6.8l9.1-5.3v-26.2l-.4.3-6.9 14.4-4.7-1.5 8.1-17 11.2-6.4V205l7.2-4.1v6.8l-23.6 13.5z" fill="#18232D"/><path d="M145.7 179l11.2-6.4M137.6 196l8.1-17" stroke="#224CA1" stroke-width=".576" stroke-miterlimit="10" stroke-linecap="round" stroke-linejoin="bevel"/><path d="M142.2 197.6l-4.6-1.6m11.5-12.9l-6.9 14.5m7.4-14.7l-.5.2" stroke="#224CA1" stroke-width="1.728" stroke-miterlimit="10" stroke-linecap="round" stroke-linejoin="bevel"/><path d="M149.6 209.1v-26.2m-9.1 31.5l9.1-5.3m-9.1 12.1v-6.8" stroke="#224CA1" stroke-width=".576" stroke-miterlimit="10" stroke-linecap="round" stroke-linejoin="bevel"/><path d="M164 207.6l-23.5 13.6m23.5-20.4v6.8" stroke="#224CA1" stroke-width="1.728" stroke-miterlimit="10" stroke-linecap="round" stroke-linejoin="bevel"/><path d="M156.9 204.9l7.1-4.1" stroke="#224CA1" stroke-width=".576" stroke-miterlimit="10" stroke-linecap="round" stroke-linejoin="bevel"/><path d="M156.9 172.6v32.3" stroke="#224CA1" stroke-width="1.728" stroke-miterlimit="10" stroke-linecap="round" stroke-linejoin="bevel"/><path d="M.9 95c0 1.7 1.1 3.3 3.3 4.6l108.3 62.5c4.4 2.5 11.5 2.5 15.9 0l108.3-62.5c2.2-1.3 3.3-2.9 3.3-4.6v17.6c0 1.7-1.1 3.3-3.3 4.6l-108.3 62.5c-4.4 2.5-11.5 2.5-15.9 0L4.2 117.1C2 115.8.9 114.2.9 112.5V95z" fill="#18232D"/><path d="M240 112.5V95m0 17.5c0 1.7-1.1 3.3-3.3 4.6l-108.3 62.5c-4.4 2.5-11.5 2.5-15.9 0L4.2 117.1C2 115.8.9 114.2.9 112.5m0 0V95" stroke="#224CA1" stroke-width="1.728" stroke-miterlimit="10" stroke-linecap="round" stroke-linejoin="bevel"/><path d="M.9 95c0-1.7 1.1-3.3 3.3-4.6l108.3-62.5c4.4-2.5 11.5-2.5 15.9 0l108.3 62.5c2.2 1.3 3.3 2.9 3.3 4.6 0 1.7-1.1 3.3-3.3 4.6l-108.3 62.5c-4.4 2.5-11.5 2.5-15.9 0L4.2 99.6C2 98.3.9 96.6.9 95z" fill="#18232D"/><path d="M.9 95c0-1.7 1.1-3.3 3.3-4.6l108.3-62.5c4.4-2.5 11.5-2.5 15.9 0l108.3 62.5c2.2 1.3 3.3 2.9 3.3 4.6" stroke="#224CA1" stroke-width="1.728" stroke-miterlimit="10" stroke-linecap="round" stroke-linejoin="bevel"/><path d="M240 95c0 1.7-1.1 3.3-3.3 4.6l-108.3 62.5c-4.4 2.5-11.5 2.5-15.9 0L4.2 99.6C2 98.3.9 96.6.9 95" stroke="#224CA1" stroke-width=".576" stroke-miterlimit="10" stroke-linecap="round" stroke-linejoin="bevel"/></g><defs><clipPath id="clip0_361_544"><path fill="#fff" d="M0 0h240.9v259.8H0z"/></clipPath></defs></svg>