<svg width="245" height="297" fill="none" xmlns="http://www.w3.org/2000/svg"><g clip-path="url(#clip0_361_11)"><path d="M.9 174.8c0 1.7 1.1 3.3 3.3 4.6l108.3 62.5c4.4 2.5 11.5 2.5 15.9 0l108.3-62.5c2.2-1.3 3.3-2.9 3.3-4.6v17.6c0 1.7-1.1 3.3-3.3 4.6l-108.3 62.5c-4.4 2.5-11.5 2.5-15.9 0L4.2 197C2 195.7.9 194.1.9 192.4v-17.6z" fill="#1F2731"/><path d="M240 192.4v-17.6m0 17.6c0 1.7-1.1 3.3-3.3 4.6l-108.3 62.5c-4.4 2.5-11.5 2.5-15.9 0L4.2 197C2 195.7.9 194.1.9 192.4m0 0v-17.6" stroke="#224CA1" stroke-width="1.728" stroke-miterlimit="10" stroke-linecap="round" stroke-linejoin="bevel"/><path d="M.9 174.8c0-1.7 1.1-3.3 3.3-4.6l108.3-62.5c4.4-2.5 11.5-2.5 15.9 0l108.3 62.5c2.2 1.3 3.3 2.9 3.3 4.6 0 1.7-1.1 3.3-3.3 4.6l-108.3 62.5c-4.4 2.5-11.5 2.5-15.9 0L4.2 179.4C2 178.2.9 176.5.9 174.8z" fill="#1F2731"/><path d="M.9 174.8c0-1.7 1.1-3.3 3.3-4.6l108.3-62.5c4.4-2.5 11.5-2.5 15.9 0l108.3 62.5c2.2 1.3 3.3 2.9 3.3 4.6" stroke="#224CA1" stroke-width="1.728" stroke-miterlimit="10" stroke-linecap="round" stroke-linejoin="bevel"/><path d="M240 174.8c0 1.7-1.1 3.3-3.3 4.6l-108.3 62.5c-4.4 2.5-11.5 2.5-15.9 0L4.2 179.4C2 178.1.9 176.5.9 174.8" stroke="#224CA1" stroke-width=".576" stroke-miterlimit="10" stroke-linecap="round" stroke-linejoin="bevel"/><path d="M193.4 184.2c-3.1 1.8-7.5 1.5-12.2-1.2l-95.8-55.3c-9.6-5.5-17.3-18.9-17.3-30 0-5.5 1.9-9.4 5.1-11.2 3.1-1.8 7.5-1.5 12.2 1.2l95.8 55.3c9.6 5.5 17.3 18.9 17.3 30-.1 5.5-2 9.4-5.1 11.2z" fill="#1F2731"/><path d="M193.4 184.2c-3.1 1.8-7.5 1.5-12.2-1.2l-95.8-55.3c-9.6-5.5-17.3-18.9-17.3-30 0-5.5 1.9-9.4 5.1-11.2" stroke="#224CA1" stroke-width="1.728" stroke-miterlimit="10" stroke-linecap="round" stroke-linejoin="bevel"/><path d="M95.4 124.9c2.5-1.5 4.1-4.6 4.1-9 0-8.9-6.2-19.6-13.9-24.1-3.8-2.2-7.3-2.4-9.8-1l44.9-25.9c2.5-1.5 6-1.2 9.8 1 7.7 4.4 13.9 15.2 13.9 24.1 0 4.4-1.6 7.5-4.1 9l-44.9 25.9z" fill="#1F2731"/><path d="M120.7 64.9L75.8 90.8m44.9-25.9c2.5-1.5 6-1.2 9.8 1 7.7 4.4 13.9 15.2 13.9 24.1 0 4.4-1.6 7.5-4.1 9m0-.1l-44.9 26" stroke="#224CA1" stroke-width="1.728" stroke-miterlimit="10" stroke-linecap="round" stroke-linejoin="bevel"/><path d="M95.4 124.9c-2.5 1.5-6 1.2-9.8-1-7.7-4.4-13.9-15.2-13.9-24.1 0-4.4 1.6-7.5 4.1-9 2.5-1.5 6-1.2 9.8 1 7.7 4.4 13.9 15.2 13.9 24.1 0 4.4-1.5 7.5-4.1 9z" fill="#1F2731"/><path d="M95.4 124.9c-2.5 1.5-6 1.2-9.8-1-7.7-4.4-13.9-15.2-13.9-24.1 0-4.4 1.6-7.5 4.1-9" stroke="#224CA1" stroke-width="1.728" stroke-miterlimit="10" stroke-linecap="round" stroke-linejoin="bevel"/><path d="M75.8 90.8c2.5-1.5 6-1.2 9.8 1 7.7 4.4 13.9 15.2 13.9 24.1 0 4.4-1.6 7.5-4.1 9" stroke="#224CA1" stroke-width=".576" stroke-miterlimit="10" stroke-linecap="round" stroke-linejoin="bevel"/><path d="M143.4 152.6c2.5-1.5 4.1-4.6 4.1-9 0-8.9-6.2-19.6-13.9-24.1-3.8-2.2-7.3-2.4-9.8-1l44.9-25.9c2.5-1.5 6-1.2 9.8 1 7.7 4.4 13.9 15.2 13.9 24.1 0 4.4-1.6 7.5-4.1 9l-44.9 25.9z" fill="#1F2731"/><path d="M168.7 92.6l-44.9 25.9m44.9-25.9c2.5-1.5 6-1.2 9.8 1 7.7 4.4 13.9 15.2 13.9 24.1 0 4.4-1.6 7.5-4.1 9m0-.1l-44.9 26" stroke="#224CA1" stroke-width="1.728" stroke-miterlimit="10" stroke-linecap="round" stroke-linejoin="bevel"/><path d="M143.4 152.6c-2.5 1.5-6 1.2-9.8-1-7.7-4.4-13.9-15.2-13.9-24.1 0-4.4 1.6-7.5 4.1-9 2.5-1.5 6-1.2 9.8 1 7.7 4.4 13.9 15.2 13.9 24.1 0 4.4-1.5 7.5-4.1 9z" fill="#1F2731"/><path d="M143.4 152.6c-2.5 1.5-6 1.2-9.8-1-7.7-4.4-13.9-15.2-13.9-24.1 0-4.4 1.6-7.5 4.1-9" stroke="#224CA1" stroke-width="1.728" stroke-miterlimit="10" stroke-linecap="round" stroke-linejoin="bevel"/><path d="M123.8 118.5c2.5-1.5 6-1.2 9.8 1 7.7 4.4 13.9 15.2 13.9 24.1 0 4.4-1.6 7.5-4.1 9" stroke="#224CA1" stroke-width=".576" stroke-miterlimit="10" stroke-linecap="round" stroke-linejoin="bevel"/><path d="M190.2 179.6c2.5-1.5 4.1-4.6 4.1-9 0-8.9-6.2-19.6-13.9-24.1-3.8-2.2-7.3-2.4-9.8-1l44.9-25.9c2.5-1.5 6-1.2 9.8 1 7.7 4.4 13.9 15.2 13.9 24.1 0 4.4-1.6 7.5-4.1 9l-44.9 25.9z" fill="#1F2731"/><path d="M215.5 119.6l-44.9 25.9m44.9-25.9c2.5-1.5 6-1.2 9.8 1 7.7 4.4 13.9 15.2 13.9 24.1 0 4.4-1.6 7.5-4.1 9m0 0l-44.9 25.9" stroke="#224CA1" stroke-width="1.728" stroke-miterlimit="10" stroke-linecap="round" stroke-linejoin="bevel"/><path d="M190.2 179.6c-2.5 1.5-6 1.2-9.8-1-7.7-4.4-13.9-15.2-13.9-24.1 0-4.4 1.6-7.5 4.1-9 2.5-1.5 6-1.2 9.8 1 7.7 4.4 13.9 15.2 13.9 24.1 0 4.4-1.5 7.5-4.1 9z" fill="#1F2731"/><path d="M190.2 179.6c-2.5 1.5-6 1.2-9.8-1-7.7-4.4-13.9-15.2-13.9-24.1 0-4.4 1.6-7.5 4.1-9" stroke="#224CA1" stroke-width="1.728" stroke-miterlimit="10" stroke-linecap="round" stroke-linejoin="bevel"/><path d="M170.6 145.5c2.5-1.5 6-1.2 9.8 1 7.7 4.4 13.9 15.2 13.9 24.1 0 4.4-1.6 7.5-4.1 9" stroke="#224CA1" stroke-width=".576" stroke-miterlimit="10" stroke-linecap="round" stroke-linejoin="bevel"/><path d="M193.4 184.2c3.1-1.8 5.1-5.7 5.1-11.2 0-11-7.8-24.5-17.3-30L85.3 87.7c-4.8-2.8-9.1-3-12.2-1.2L118 60.6c3.1-1.8 7.5-1.5 12.2 1.2l95.8 55.3c9.6 5.5 17.3 18.9 17.3 30 0 5.5-1.9 9.4-5.1 11.2l-44.8 25.9z" fill="#1F2731"/><path d="M118 60.6L73.1 86.5M118 60.6c3.1-1.8 7.5-1.5 12.2 1.2l95.8 55.3c9.6 5.5 17.3 18.9 17.3 30 0 5.5-1.9 9.4-5.1 11.2m0-.1l-44.8 26" stroke="#224CA1" stroke-width="1.728" stroke-miterlimit="10" stroke-linecap="round" stroke-linejoin="bevel"/><path d="M73.1 86.5c3.1-1.8 7.5-1.5 12.2 1.2l95.8 55.3c9.6 5.5 17.3 18.9 17.3 30 0 5.5-1.9 9.4-5.1 11.2" stroke="#224CA1" stroke-width=".576" stroke-miterlimit="10" stroke-linecap="round" stroke-linejoin="bevel"/><path d="M184.3 169.6c-1 .6-2.4.5-4-.4-3.1-1.8-5.7-6.2-5.7-9.8 0-1.8.6-3.1 1.7-3.7 1-.6 2.4-.5 4 .4 3.1 1.8 5.7 6.2 5.7 9.8-.1 1.9-.7 3.2-1.7 3.7z" fill="#1F2731"/><path d="M184.3 169.6c-1 .6-2.4.5-4-.4-3.1-1.8-5.7-6.2-5.7-9.8 0-1.8.6-3.1 1.7-3.7" stroke="#224CA1" stroke-width="1.728" stroke-miterlimit="10" stroke-linecap="round" stroke-linejoin="bevel"/><path d="M176.3 155.8c1-.6 2.4-.5 4 .4 3.1 1.8 5.7 6.2 5.7 9.8 0 1.8-.6 3.1-1.7 3.7" stroke="#224CA1" stroke-width=".576" stroke-miterlimit="10" stroke-linecap="round" stroke-linejoin="bevel"/><path d="M137.8 142.5c-1 .6-2.4.5-4-.4-3.1-1.8-5.7-6.2-5.7-9.8 0-1.8.6-3.1 1.7-3.7 1-.6 2.4-.5 4 .4 3.1 1.8 5.7 6.2 5.7 9.8-.1 1.8-.7 3.1-1.7 3.7z" fill="#1F2731"/><path d="M137.8 142.5c-1 .6-2.4.5-4-.4-3.1-1.8-5.7-6.2-5.7-9.8 0-1.8.6-3.1 1.7-3.7" stroke="#224CA1" stroke-width="1.728" stroke-miterlimit="10" stroke-linecap="round" stroke-linejoin="bevel"/><path d="M129.8 128.6c1-.6 2.4-.5 4 .4 3.1 1.8 5.7 6.2 5.7 9.8 0 1.8-.6 3.1-1.7 3.7" stroke="#224CA1" stroke-width=".576" stroke-miterlimit="10" stroke-linecap="round" stroke-linejoin="bevel"/><path d="M89.6 114.3c-1 .6-2.4.5-4-.4-3.1-1.8-5.7-6.2-5.7-9.8 0-1.8.6-3.1 1.7-3.7 1-.6 2.4-.5 4 .4 3.1 1.8 5.7 6.2 5.7 9.8-.1 1.8-.7 3.1-1.7 3.7z" fill="#1F2731"/><path d="M89.6 114.3c-1 .6-2.4.5-4-.4-3.1-1.8-5.7-6.2-5.7-9.8 0-1.8.6-3.1 1.7-3.7" stroke="#224CA1" stroke-width="1.728" stroke-miterlimit="10" stroke-linecap="round" stroke-linejoin="bevel"/><path d="M81.6 100.4c1-.6 2.4-.5 4 .4 3.1 1.8 5.7 6.2 5.7 9.8 0 1.8-.6 3.1-1.7 3.7" stroke="#224CA1" stroke-width=".576" stroke-miterlimit="10" stroke-linecap="round" stroke-linejoin="bevel"/><path d="M120.7 96.8V71.2l22.2-12.8V84l-22.2 12.8z" fill="#1F2731"/><path d="M120.7 71.2L98.5 58.4l22.2-12.8 22.2 12.8-22.2 12.8z" fill="#BED6ED" stroke="#BED6ED" stroke-width="1.44" stroke-miterlimit="10" stroke-linejoin="bevel"/><path d="M120.7 45.6L98.5 58.4m22.2-12.8l22.2 12.8" stroke="#224CA1" stroke-width="1.728" stroke-miterlimit="10" stroke-linecap="round" stroke-linejoin="bevel"/><path d="M142.9 58.4l-22.2 12.8" stroke="#224CA1" stroke-width=".576" stroke-miterlimit="10" stroke-linecap="round" stroke-linejoin="bevel"/><path d="M142.9 58.4V84m0 0l-22.2 12.8" stroke="#224CA1" stroke-width="1.728" stroke-miterlimit="10" stroke-linecap="round" stroke-linejoin="bevel"/><path d="M120.7 96.8L98.5 84V58.4l22.2 12.8v25.6z" fill="#BED6ED" stroke="#BED6ED" stroke-width="1.44" stroke-miterlimit="10" stroke-linejoin="bevel"/><path d="M120.7 96.8L98.5 84m0 0V58.4" stroke="#224CA1" stroke-width="1.728" stroke-miterlimit="10" stroke-linecap="round" stroke-linejoin="bevel"/><path d="M98.5 58.4l22.2 12.8m0 0v25.6" stroke="#224CA1" stroke-width=".576" stroke-miterlimit="10" stroke-linecap="round" stroke-linejoin="bevel"/><path d="M196.6 20.6v89.2l-10-5.8V14.8l10 5.8z" fill="#1F2731"/><path d="M186.6 104l10 5.8m-10-5.8V14.8m0 0l10 5.8m-40.9 25.7l10 5.7" stroke="#224CA1" stroke-width="1.728" stroke-miterlimit="10" stroke-linecap="round" stroke-linejoin="bevel"/><path d="M171.4 68.4c.2.1.4.3.5.5.1.2.2.5.2.8 0 .3-.1.7-.2 1-.1.3-.3.7-.5 1.1l-1.3 2.3-1.3 2.3-1.3 2.3-1.3 2.3-10-5.7 1.3-2.3 1.3-2.3 1.3-2.3 1.3-2.3c.2-.4.4-.7.5-1.1.1-.4.2-.7.2-1 0-.3-.1-.6-.2-.8-.1-.2-.3-.4-.5-.5l10 5.7zM166 81.2v6.2l-10-5.8v-6.1l10 5.7z" fill="#1F2731"/><path d="M156 81.6l10 5.8m-10-5.8v-6.1" stroke="#224CA1" stroke-width="1.728" stroke-miterlimit="10" stroke-linecap="round" stroke-linejoin="bevel"/><path d="M156 75.5l10 5.7" stroke="#224CA1" stroke-width=".576" stroke-miterlimit="10" stroke-linecap="round" stroke-linejoin="bevel"/><path d="M156 75.5l1.3-2.3 1.3-2.3 1.3-2.3 1.3-2.3c.2-.4.4-.7.5-1.1.1-.4.2-.7.2-1 0-.3-.1-.6-.2-.8-.1-.2-.3-.4-.5-.5m.2-.2l10 5.7m-10-5.7l10 5.7m15.2-53.6l10 5.8" stroke="#224CA1" stroke-width="1.728" stroke-miterlimit="10" stroke-linecap="round" stroke-linejoin="bevel"/><path d="M165.7 52c-.2-.1-.5-.2-.7-.3-.2-.1-.5-.2-.8-.2-.3-.1-.5-.1-.8-.1h-.9l-10-5.7h.9c.3 0 .6 0 .8.1.3.1.5.1.8.2.2.1.5.2.7.3l10 5.7z" fill="#1F2731"/><path d="M152.6 45.6l9.9 5.8m-9.9-5.8h.9c.3 0 .6 0 .8.1.3.1.5.1.8.2.2.1.5.2.7.3m-.1.1l10 5.7" stroke="#224CA1" stroke-width="1.728" stroke-miterlimit="10" stroke-linecap="round" stroke-linejoin="bevel"/><path d="M204.6 6.6l-12.5 7.3-12.6 7.2-12.5 7.2-12.5 7.3-10-5.8 12.5-7.2 12.6-7.3 12.5-7.2L194.7.9l9.9 5.7zm-50.1 29V56l-10-5.7V29.8l10 5.8zm0 20.4c-.3.3-.6.6-.9 1-.3.3-.6.7-.8 1-.2.3-.5.7-.8 1.1-.3.4-.5.8-.7 1.2l-2.8 4.9-2.8 4.9-2.8 4.9-2.8 4.9c-.5.8-.9 1.7-1.3 2.5-.4.9-.7 1.7-.9 2.6-.2.9-.4 1.7-.6 2.5-.1.8-.2 1.6-.2 2.4 0 .8.1 1.5.2 2.2.1.7.3 1.3.6 1.9.3.6.6 1.1.9 1.5.4.4.8.8 1.3 1.1l-10-5.7c-.5-.3-.9-.6-1.3-1.1-.4-.4-.7-.9-.9-1.5-.3-.6-.4-1.2-.6-1.9-.1-.7-.2-1.4-.2-2.2 0-.8.1-1.6.2-2.4.1-.8.3-1.7.6-2.5.3-.9.6-1.7.9-2.6.4-.9.8-1.7 1.3-2.5l2.8-4.9 2.8-4.9 2.8-4.9 2.8-4.9c.2-.4.5-.8.7-1.2.2-.4.5-.8.8-1.1.3-.4.5-.7.8-1 .3-.3.6-.7.9-1l10 5.7z" fill="#1F2731"/><path d="M130 90.9l9.9 5.7m-9.9-5.7c-.5-.3-.9-.6-1.3-1.1-.4-.4-.7-.9-.9-1.5-.3-.6-.4-1.2-.6-1.9-.1-.7-.2-1.4-.2-2.2 0-.8.1-1.6.2-2.4.1-.8.3-1.7.6-2.5.3-.9.6-1.7.9-2.6.4-.9.8-1.7 1.3-2.5l2.8-4.9 2.8-4.9 2.8-4.9 2.8-4.9c.2-.4.5-.8.7-1.2.2-.4.5-.8.8-1.1.3-.4.5-.7.8-1 .3-.3.6-.7.9-1" stroke="#224CA1" stroke-width="1.728" stroke-miterlimit="10" stroke-linecap="round" stroke-linejoin="bevel"/><path d="M144.5 50.3l10 5.7" stroke="#224CA1" stroke-width=".576" stroke-miterlimit="10" stroke-linecap="round" stroke-linejoin="bevel"/><path d="M144.5 50.3V29.8" stroke="#224CA1" stroke-width="1.728" stroke-miterlimit="10" stroke-linecap="round" stroke-linejoin="bevel"/><path d="M144.5 29.8l10 5.8" stroke="#224CA1" stroke-width=".576" stroke-miterlimit="10" stroke-linecap="round" stroke-linejoin="bevel"/><path d="M144.5 29.8l12.5-7.2 12.6-7.3 12.5-7.2L194.7.9m0 0l9.9 5.7" stroke="#224CA1" stroke-width="1.728" stroke-miterlimit="10" stroke-linecap="round" stroke-linejoin="bevel"/><path d="M204.6 6.6V105l-2 1.2-2 1.2-2 1.2-2 1.2V20.6l-8.5 4.9-8.5 4.9-8.5 4.9-8.5 4.9v11.2h.9c.3 0 .6 0 .8.1.3.1.5.1.8.2.3.1.5.2.7.3l2.8 1.6 2.8 1.6 2.8 1.6 2.8 1.6c1 .6 1.7 1.5 2.2 2.6.5 1.1.7 2.5.7 4s-.2 3.2-.7 4.9c-.5 1.7-1.2 3.5-2.2 5.2l-1.3 2.2-1.3 2.2-1.3 2.2-1.3 2.2-1.5.9-1.5.9-1.5.9-1.5.9v-6l1.3-2.3 1.3-2.3 1.3-2.3 1.3-2.3c.2-.4.4-.7.5-1.1.1-.4.2-.7.2-1 0-.3-.1-.6-.2-.8-.1-.2-.3-.4-.5-.5l-2.8-1.6-2.8-1.6-2.8-1.6-2.8-1.6c-.1-.1-.2-.1-.3-.1h-.4c-.1 0-.3 0-.4.1-.1 0-.3.1-.4.2-.1.1-.3.2-.4.3-.1.1-.3.2-.4.4-.1.2-.2.3-.4.4-.1.2-.2.3-.3.5l-2.8 4.9-2.8 4.9-2.8 4.9-2.8 4.9c-.1.2-.2.4-.3.5-.1.2-.1.4-.2.5-.1.2-.1.4-.1.5v1c0 .1.1.3.1.4.1.1.1.2.2.3.1.1.2.2.3.2l1.3.7 1.3.7 1.3.7 1.3.7v6.4l-1.4.8-1.4.8-1.4.8-1.4.8-1.3-.7-1.3-.7-1.3-.7-1.3-.7c-.5-.3-.9-.6-1.3-1.1-.4-.4-.7-.9-.9-1.5-.2-.6-.4-1.2-.6-1.9-.1-.7-.2-1.4-.2-2.2 0-.8.1-1.6.2-2.4.1-.8.3-1.7.6-2.5s.6-1.7.9-2.6c.4-.9.8-1.7 1.3-2.5l2.8-4.9 2.8-4.9 2.8-4.9 2.8-4.9c.2-.4.5-.8.7-1.2.2-.4.5-.8.8-1.1.3-.3.5-.7.8-1 .3-.3.6-.7.9-1V35.9l12.5-7.2 12.5-7.2 12.5-7.2 12.7-7.7z" fill="#1F2731"/><path d="M204.6 6.6v98.5m0 0l-2 1.2-2 1.1-2 1.2-2 1.2" stroke="#224CA1" stroke-width="1.728" stroke-miterlimit="10" stroke-linecap="round" stroke-linejoin="bevel"/><path d="M196.6 109.8V20.6" stroke="#224CA1" stroke-width=".576" stroke-miterlimit="10" stroke-linecap="round" stroke-linejoin="bevel"/><path d="M196.6 20.6l-8.5 4.9-8.6 4.9-8.5 4.9-8.5 4.9m0 0v11.2" stroke="#224CA1" stroke-width="1.728" stroke-miterlimit="10" stroke-linecap="round" stroke-linejoin="bevel"/><path d="M162.5 51.4h.9c.3 0 .6 0 .8.1.3.1.5.1.8.2.3.1.5.2.7.3" stroke="#224CA1" stroke-width=".576" stroke-miterlimit="10" stroke-linecap="round" stroke-linejoin="bevel"/><path d="M165.7 52l2.8 1.6m0 0l2.9 1.7m0 0l2.8 1.6m0 0l2.9 1.7m0 0c1 .6 1.7 1.5 2.2 2.6.5 1.1.7 2.5.7 4s-.2 3.2-.7 4.9c-.5 1.7-1.2 3.5-2.2 5.2l-1.3 2.2-1.3 2.2-1.3 2.2-1.3 2.2" stroke="#224CA1" stroke-width="1.728" stroke-miterlimit="10" stroke-linecap="round" stroke-linejoin="bevel"/><path d="M172.1 83.9l-1.6.9-1.5.8-1.5.9-1.5.9" stroke="#224CA1" stroke-width="1.728" stroke-miterlimit="10" stroke-linecap="round" stroke-linejoin="bevel"/><path d="M166 87.4v-6.2m0 0l1.3-2.3 1.3-2.3 1.3-2.3 1.3-2.3c.2-.4.4-.7.5-1.1.1-.4.2-.7.2-1 0-.3-.1-.6-.2-.8-.1-.2-.3-.4-.5-.5" stroke="#224CA1" stroke-width=".576" stroke-miterlimit="10" stroke-linecap="round" stroke-linejoin="bevel"/><path d="M171.4 68.4l-2.9-1.6m0 0l-2.8-1.6m0 0l-2.9-1.7m0 0l-2.8-1.6m0 0c-.1-.1-.2-.1-.3-.1h-.4c-.1 0-.3 0-.4.1-.1 0-.3.1-.4.2-.1.1-.3.2-.4.3-.1.1-.3.2-.4.4-.1.2-.2.3-.4.4-.1.2-.2.3-.3.5l-2.8 4.9-2.8 4.9-2.8 4.9-2.8 4.9c-.1.2-.2.4-.3.5-.1.2-.1.4-.2.5-.1.2-.1.4-.1.5v1c0 .1.1.3.1.4.1.1.1.2.2.3.1.1.2.2.3.2m-.2.1l1.3.7m0 0l1.3.7m0 0l1.3.8m0 0l1.2.7m0 0v6.5m0 0l-1.4.8-1.5.9-1.4.8-1.5.8m0 0l-1.2-.7m0 0l-1.3-.7m0 0l-1.2-.7m0 0l-1.3-.7" stroke="#224CA1" stroke-width="1.728" stroke-miterlimit="10" stroke-linecap="round" stroke-linejoin="bevel"/><path d="M139.9 96.6c-.5-.3-.9-.6-1.3-1.1-.4-.4-.7-.9-.9-1.5-.2-.6-.4-1.2-.6-1.9-.1-.7-.2-1.4-.2-2.2 0-.8.1-1.6.2-2.4.1-.8.3-1.7.6-2.5s.6-1.7.9-2.6c.4-.9.8-1.7 1.3-2.5l2.8-4.9 2.8-4.9 2.8-4.9 2.8-4.9c.2-.4.5-.8.7-1.2.2-.4.5-.8.8-1.1.3-.3.5-.7.8-1 .3-.3.6-.7.9-1m.2 0V35.6m0 0l12.5-7.3 12.5-7.2 12.6-7.2 12.5-7.3" stroke="#224CA1" stroke-width=".576" stroke-miterlimit="10" stroke-linecap="round" stroke-linejoin="bevel"/><path d="M49.5 93.2l12.6 7.3" stroke="#224CA1" stroke-width="1.728" stroke-miterlimit="10" stroke-linecap="round" stroke-linejoin="bevel"/><path d="M51 123.6v41.2c0 1.8.6 3 1.6 3.6L40 161.1c-1-.6-1.6-1.8-1.6-3.6v-41.2l12.6 7.3z" fill="#1F2731"/><path d="M40.1 161.2l12.6 7.3m-12.6-7.3c-1-.6-1.6-1.8-1.6-3.6v-41.2m0 0l12.5 7.2m-12.5-7.2l12.5 7.2" stroke="#224CA1" stroke-width="1.728" stroke-miterlimit="10" stroke-linecap="round" stroke-linejoin="bevel"/><path d="M62.1 100.5l3.7 7.2c.3.5.7.9 1.1 1.2l-12.6-7.3c-.5-.3-.8-.7-1.1-1.2l-3.7-7.2 12.6 7.3z" fill="#1F2731"/><path d="M54.4 101.7l12.5 7.2m-12.5-7.2c-.5-.3-.8-.7-1.1-1.2l-3.7-7.2m-.1-.1l12.6 7.3" stroke="#224CA1" stroke-width="1.728" stroke-miterlimit="10" stroke-linecap="round" stroke-linejoin="bevel"/><path d="M34.3 116.5v58c0 1.8.6 3 1.6 3.6l-12.6-7.3c-1-.6-1.6-1.8-1.6-3.6v-58l12.6 7.3z" fill="#1F2731"/><path d="M23.4 170.9l12.5 7.2m-12.5-7.2c-1-.6-1.6-1.8-1.6-3.6v-58m-.1 0l12.6 7.2m-12.6-7.2l12.6 7.2" stroke="#224CA1" stroke-width="1.728" stroke-miterlimit="10" stroke-linecap="round" stroke-linejoin="bevel"/><path d="M61.8 70.2c-1-.6-2.4-.5-3.8.3l-12.6-7.3c1.4-.8 2.8-.9 3.8-.3l12.6 7.3z" fill="#1F2731"/><path d="M58 70.5L38.5 81.8l-12.6-7.3 19.5-11.3L58 70.5z" fill="#1F2731"/><path d="M38.5 81.8c-2 1.2-4 3.7-4.9 6.5l-13 40.2c-1 3.1-.5 5.6 1.1 6.5l-12.6-7.3c-1.6-.9-2.1-3.5-1.1-6.5L21 81c.9-2.8 2.9-5.3 4.9-6.5l12.6 7.3z" fill="#1F2731"/><path d="M9.1 127.8l12.6 7.2m-12.6-7.2c-1.6-.9-2.1-3.5-1.1-6.5l13-40.2c.9-2.8 2.9-5.3 4.9-6.5" stroke="#224CA1" stroke-width="1.728" stroke-miterlimit="10" stroke-linecap="round" stroke-linejoin="bevel"/><path d="M25.9 74.5l12.6 7.3" stroke="#224CA1" stroke-width=".576" stroke-miterlimit="10" stroke-linecap="round" stroke-linejoin="bevel"/><path d="M25.9 74.5l19.5-11.3" stroke="#224CA1" stroke-width="1.728" stroke-miterlimit="10" stroke-linecap="round" stroke-linejoin="bevel"/><path d="M45.4 63.2L58 70.5" stroke="#224CA1" stroke-width=".576" stroke-miterlimit="10" stroke-linecap="round" stroke-linejoin="bevel"/><path d="M45.4 63.2c1.4-.8 2.8-.9 3.8-.3m0 0l12.6 7.3" stroke="#224CA1" stroke-width="1.728" stroke-miterlimit="10" stroke-linecap="round" stroke-linejoin="bevel"/><path d="M38.4 60.9c-.4 1.4-.6 2.8-.6 4.2 0 3.4 1.2 5.8 3.1 6.9l-12.6-7.3c-1.9-1.1-3.1-3.5-3.1-6.9 0-1.4.2-2.8.6-4.2l12.6 7.3z" fill="#1F2731"/><path d="M28.4 64.8L40.9 72m-12.5-7.2c-1.9-1.1-3.1-3.5-3.1-6.9 0-1.4.2-2.8.6-4.2m-.1 0l12.6 7.2m-12.6-7.2l12.6 7.2" stroke="#224CA1" stroke-width="1.728" stroke-miterlimit="10" stroke-linecap="round" stroke-linejoin="bevel"/><path d="M58.5 37.7c-2.6-1.5-6.1-1.3-10 1-7.8 4.5-14.2 15.5-14.2 24.6L21.7 56c0-9.1 6.4-20.1 14.2-24.6 3.9-2.3 7.5-2.5 10-1l12.6 7.3z" fill="#1F2731"/><path d="M21.7 56l12.6 7.3M21.7 56c0-9.1 6.4-20.1 14.2-24.6 3.9-2.3 7.5-2.5 10-1m0 .1l12.6 7.2" stroke="#224CA1" stroke-width="1.728" stroke-miterlimit="10" stroke-linecap="round" stroke-linejoin="bevel"/><path d="M58.5 49.3c.4 1 .6 2.2.6 3.6 0 6.8-4.8 15-10.6 18.4-5.9 3.4-10.6.6-10.6-6.1 0-1.4.2-2.8.6-4.2l-4.1 2.4c0-9.1 6.4-20.1 14.2-24.6 7.8-4.5 14.2-.9 14.2 8.2l-4.3 2.3zm14.6 57.3c-2.8 3.1-6 3.5-7.3 1.1l-3.7-7.2v58.4c-.2 3.4-2.6 7.5-5.5 9.2-3 1.8-5.5.3-5.5-3.2v-41.2l-5.7 3.3v41.2c0 3.5-2.5 7.8-5.5 9.6-3 1.8-5.5.3-5.5-3.2v-58L30.6 128c-1.3 3.9-4.5 7.2-7.3 7.4-2.8.1-4-2.9-2.7-6.9l13-40.2c.9-2.8 2.9-5.3 4.9-6.5L58 70.5c2-1.1 4-.9 4.9.9l13 25.2c1.2 2.5 0 7-2.8 10z" fill="#1F2731"/><path d="M58 70.5c1.4-.8 2.8-.9 3.8-.3M38.5 81.8L58 70.5M21.7 135c-1.6-.9-2.1-3.5-1.1-6.5l13-40.2c.9-2.8 2.9-5.3 4.9-6.5" stroke="#224CA1" stroke-width=".576" stroke-miterlimit="10" stroke-linecap="round" stroke-linejoin="bevel"/><path d="M34.3 116.5L30.6 128c-1.3 3.9-4.5 7.2-7.3 7.4-.6 0-1.2-.1-1.6-.4" stroke="#224CA1" stroke-width="1.728" stroke-miterlimit="10" stroke-linecap="round" stroke-linejoin="bevel"/><path d="M35.9 178.1c-1-.6-1.6-1.8-1.6-3.6v-58" stroke="#224CA1" stroke-width=".576" stroke-miterlimit="10" stroke-linecap="round" stroke-linejoin="bevel"/><path d="M45.4 126.9v41.2c0 3.5-2.5 7.8-5.5 9.6-1.5.9-2.9 1-3.9.4m15-54.5l-5.6 3.3" stroke="#224CA1" stroke-width="1.728" stroke-miterlimit="10" stroke-linecap="round" stroke-linejoin="bevel"/><path d="M52.7 168.5c-1-.6-1.6-1.8-1.6-3.6v-41.2" stroke="#224CA1" stroke-width=".576" stroke-miterlimit="10" stroke-linecap="round" stroke-linejoin="bevel"/><path d="M62.1 100.5v58.4c-.2 3.4-2.6 7.5-5.5 9.2-1.5.9-2.9 1-3.9.4" stroke="#224CA1" stroke-width="1.728" stroke-miterlimit="10" stroke-linecap="round" stroke-linejoin="bevel"/><path d="M66.9 108.9c-.5-.3-.8-.7-1.1-1.2l-3.7-7.2" stroke="#224CA1" stroke-width=".576" stroke-miterlimit="10" stroke-linecap="round" stroke-linejoin="bevel"/><path d="M61.8 70.2c.4.3.8.7 1.1 1.2l13 25.2c1.3 2.5.1 6.9-2.7 10-2.2 2.4-4.6 3.2-6.2 2.3" stroke="#224CA1" stroke-width="1.728" stroke-miterlimit="10" stroke-linecap="round" stroke-linejoin="bevel"/><path d="M34.3 63.3c0-9.1 6.4-20.1 14.2-24.6 3.9-2.3 7.5-2.5 10-1" stroke="#224CA1" stroke-width=".576" stroke-miterlimit="10" stroke-linecap="round" stroke-linejoin="bevel"/><path d="M38.4 60.9l-4.1 2.4" stroke="#224CA1" stroke-width="1.728" stroke-miterlimit="10" stroke-linecap="round" stroke-linejoin="bevel"/><path d="M40.9 72c-1.9-1.1-3.1-3.5-3.1-6.9 0-1.4.2-2.8.6-4.2" stroke="#224CA1" stroke-width=".576" stroke-miterlimit="10" stroke-linecap="round" stroke-linejoin="bevel"/><path d="M58.5 49.3c.4 1 .6 2.2.6 3.6 0 6.8-4.8 15-10.6 18.4-2.9 1.7-5.6 1.9-7.5.7m21.7-25.1l-4.2 2.4m0-11.6c2.6 1.5 4.2 4.7 4.2 9.2" stroke="#224CA1" stroke-width="1.728" stroke-miterlimit="10" stroke-linecap="round" stroke-linejoin="bevel"/></g><defs><clipPath id="clip0_361_11"><path fill="#fff" d="M0 0h244.2v296.6H0z"/></clipPath></defs></svg>