<svg width="241" height="159" fill="none" xmlns="http://www.w3.org/2000/svg"><path d="M.9 70.7c0 1.7 1.1 3.3 3.3 4.6l108.3 62.5c4.4 2.5 11.5 2.5 15.9 0l108.3-62.5c2.2-1.3 3.3-2.9 3.3-4.6v17.6c0 1.7-1.1 3.3-3.3 4.6l-108.3 62.5c-4.4 2.5-11.5 2.5-15.9 0L4.2 92.9C2 91.6.9 90 .9 88.3V70.7z" fill="#1B2832"/><path d="M240 88.3V70.7m0 17.6c0 1.7-1.1 3.3-3.3 4.6l-108.3 62.5c-4.4 2.5-11.5 2.5-15.9 0L4.2 92.9C2 91.6.9 90 .9 88.3m0 0V70.7" stroke="#224CA1" stroke-width="1.728" stroke-miterlimit="10" stroke-linecap="round" stroke-linejoin="bevel"/><path d="M.9 70.7c0-1.7 1.1-3.3 3.3-4.6L112.5 3.6c4.4-2.5 11.5-2.5 15.9 0l108.3 62.5c2.2 1.3 3.3 2.9 3.3 4.6 0 1.7-1.1 3.3-3.3 4.6l-108.3 62.5c-4.4 2.5-11.5 2.5-15.9 0L4.2 75.3C2 74 .9 72.4.9 70.7z" fill="#1B2832"/><path d="M.9 70.7c0-1.7 1.1-3.3 3.3-4.6L112.5 3.6c4.4-2.5 11.5-2.5 15.9 0l108.3 62.5c2.2 1.3 3.3 2.9 3.3 4.6" stroke="#224CA1" stroke-width="1.728" stroke-miterlimit="10" stroke-linecap="round" stroke-linejoin="bevel"/><path d="M240 70.7c0 1.7-1.1 3.3-3.3 4.6l-108.3 62.5c-4.4 2.5-11.5 2.5-15.9 0L4.2 75.3C2 74 .9 72.4.9 70.7" stroke="#224CA1" stroke-width=".576" stroke-miterlimit="10" stroke-linecap="round" stroke-linejoin="bevel"/></svg>