<svg width="241" height="237" fill="none" xmlns="http://www.w3.org/2000/svg"><path d="M.9 149c0 1.7 1.1 3.3 3.3 4.6l108.3 62.5c4.4 2.5 11.5 2.5 15.9 0l108.3-62.5c2.2-1.3 3.3-2.9 3.3-4.6v17.6c0 1.7-1.1 3.3-3.3 4.6l-108.3 62.5c-4.4 2.5-11.5 2.5-15.9 0L4.2 171.1C2 169.8.9 168.2.9 166.5V149z" fill="#17222F"/><path d="M240 166.5V149m0 17.5c0 1.7-1.1 3.3-3.3 4.6l-108.3 62.5c-4.4 2.5-11.5 2.5-15.9 0L4.2 171.1C2 169.8.9 168.2.9 166.5m0 0V149" stroke="#224CA1" stroke-width="1.728" stroke-miterlimit="10" stroke-linecap="round" stroke-linejoin="bevel"/><path d="M.9 149c0-1.7 1.1-3.3 3.3-4.6l108.3-62.5c4.4-2.5 11.5-2.5 15.9 0l108.3 62.5c2.2 1.3 3.3 2.9 3.3 4.6 0 1.7-1.1 3.3-3.3 4.6l-108.3 62.5c-4.4 2.5-11.5 2.5-15.9 0L4.2 153.6C2 152.3.9 150.6.9 149z" fill="#17222F"/><path d="M.9 149c0-1.7 1.1-3.3 3.3-4.6l108.3-62.5c4.4-2.5 11.5-2.5 15.9 0l108.3 62.5c2.2 1.3 3.3 2.9 3.3 4.6" stroke="#224CA1" stroke-width="1.728" stroke-miterlimit="10" stroke-linecap="round" stroke-linejoin="bevel"/><path d="M240 149c0 1.7-1.1 3.3-3.3 4.6l-108.3 62.5c-4.4 2.5-11.5 2.5-15.9 0L4.2 153.6C2 152.3.9 150.7.9 149" stroke="#224CA1" stroke-width=".576" stroke-miterlimit="10" stroke-linecap="round" stroke-linejoin="bevel"/><path d="M114.3 175.7c-1.2.7-2.9.6-4.8-.5l-57.2-33c-3.7-2.2-6.8-7.4-6.8-11.8v-31l79.1-45.7v31c0 4.3 3.1 9.6 6.8 11.8l57.2 33c1.9 1.1 3.6 1.2 4.8.5l-79.1 45.7z" fill="#17222F"/><path d="M45.5 99.5l-10.2-5.8L114.4 48l10.2 5.9-79.1 45.6z" fill="#17222F"/><path d="M114.4 48L35.3 93.7M114.4 48l10.2 5.9" stroke="#224CA1" stroke-width="1.728" stroke-miterlimit="10" stroke-linecap="round" stroke-linejoin="bevel"/><path d="M124.6 53.9L45.5 99.5" stroke="#224CA1" stroke-width=".576" stroke-miterlimit="10" stroke-linecap="round" stroke-linejoin="bevel"/><path d="M124.6 53.9v31c0 4.3 3.1 9.6 6.8 11.8l57.2 33c1.9 1.1 3.6 1.2 4.8.5m0-.1l-79.1 45.6m79.1-45.6l-79.1 45.6" stroke="#224CA1" stroke-width="1.728" stroke-miterlimit="10" stroke-linecap="round" stroke-linejoin="bevel"/><path d="M121.5 188.2c3.1-1.8 5-5.6 5-11v-31l79.1-45.7v31c0 5.4-1.9 9.2-5 11l-79.1 45.7z" fill="#17222F"/><path d="M126.4 146.3l-10.1-5.9 79-45.7 10.2 5.9-79.1 45.7z" fill="#17222F"/><path d="M195.3 94.7l-79 45.7m79-45.7l10.2 5.9" stroke="#224CA1" stroke-width="1.728" stroke-miterlimit="10" stroke-linecap="round" stroke-linejoin="bevel"/><path d="M205.5 100.6l-79.1 45.7" stroke="#224CA1" stroke-width=".576" stroke-miterlimit="10" stroke-linecap="round" stroke-linejoin="bevel"/><path d="M205.5 100.6v31c0 5.4-1.9 9.2-5 11m0 0l-79 45.6" stroke="#224CA1" stroke-width="1.728" stroke-miterlimit="10" stroke-linecap="round" stroke-linejoin="bevel"/><path d="M121.5 188.2c-3.1 1.8-7.3 1.5-12-1.2l-57.2-33c-9.4-5.4-17-18.6-17-29.4v-31l10.2 5.9v31c0 4.3 3.1 9.6 6.8 11.8l57.2 33c1.9 1.1 3.6 1.2 4.8.5 1.2-.7 2-2.2 2-4.4v-31l10.2 5.9v31c-.1 5.3-2 9.1-5 10.9z" fill="#17222F"/><path d="M121.5 188.2c-3.1 1.8-7.3 1.5-12-1.2l-57.2-33c-9.4-5.4-17-18.6-17-29.4v-31" stroke="#224CA1" stroke-width="1.728" stroke-miterlimit="10" stroke-linecap="round" stroke-linejoin="bevel"/><path d="M35.3 93.7l10.2 5.8m0 0v31c0 4.3 3.1 9.6 6.8 11.8l57.2 33c1.9 1.1 3.6 1.2 4.8.5" stroke="#224CA1" stroke-width=".576" stroke-miterlimit="10" stroke-linecap="round" stroke-linejoin="bevel"/><path d="M114.3 175.7c1.2-.7 2-2.2 2-4.4v-31" stroke="#224CA1" stroke-width="1.728" stroke-miterlimit="10" stroke-linecap="round" stroke-linejoin="bevel"/><path d="M116.3 140.4l10.1 5.9m0 0v31c0 5.4-1.9 9.2-5 11" stroke="#224CA1" stroke-width=".576" stroke-miterlimit="10" stroke-linecap="round" stroke-linejoin="bevel"/><path d="M124.6 46.6L45.5 92.3" stroke="#224CA1" stroke-width="1.728" stroke-miterlimit="10" stroke-linecap="round" stroke-linejoin="bevel"/><path d="M45.5 92.3V64.5c0-2.2.8-3.7 2-4.4l79.1-45.7c-1.2.7-2 2.2-2 4.4v27.8L45.5 92.3z" fill="#17222F"/><path d="M126.6 14.5L47.5 60.1m79.1-45.6c-1.2.7-2 2.2-2 4.4v27.8m0-.1L45.5 92.3" stroke="#224CA1" stroke-width="1.728" stroke-miterlimit="10" stroke-linecap="round" stroke-linejoin="bevel"/><path d="M126.4 139v-27.8c0-10.8-7.6-24-17-29.4l-57.2-33c-4.7-2.7-8.9-3-12-1.2L119.4 2c3.1-1.8 7.3-1.5 12 1.2l57.2 33c9.4 5.4 17 18.6 17 29.4v27.8L126.4 139z" fill="#17222F"/><path d="M119.4 2L40.3 47.7M119.4 2c3.1-1.8 7.3-1.5 12 1.2l57.2 33c9.4 5.4 17 18.6 17 29.4v27.8m-.1-.1L126.4 139" stroke="#224CA1" stroke-width="1.728" stroke-miterlimit="10" stroke-linecap="round" stroke-linejoin="bevel"/><path d="M126.4 139l-10.2-5.9v-27.8c0-4.3-3.1-9.6-6.8-11.8l-57.2-33c-1.9-1.1-3.6-1.2-4.8-.5-1.2.7-2 2.2-2 4.4v27.8l-10.2-5.9V58.6c0-5.4 1.9-9.2 5-11 3.1-1.8 7.3-1.5 12 1.2l57.2 33c9.4 5.4 17 18.6 17 29.4V139z" fill="#17222F"/><path d="M126.4 139l-10.1-5.9m0 0v-27.8c0-4.3-3.1-9.6-6.8-11.8l-57.2-33c-1.9-1.1-3.6-1.2-4.8-.5" stroke="#224CA1" stroke-width="1.728" stroke-miterlimit="10" stroke-linecap="round" stroke-linejoin="bevel"/><path d="M47.5 60.1c-1.2.7-2 2.2-2 4.4v27.8" stroke="#224CA1" stroke-width=".576" stroke-miterlimit="10" stroke-linecap="round" stroke-linejoin="bevel"/><path d="M45.5 92.3l-10.2-5.9m0 0V58.6c0-5.4 1.9-9.2 5-11" stroke="#224CA1" stroke-width="1.728" stroke-miterlimit="10" stroke-linecap="round" stroke-linejoin="bevel"/><path d="M40.3 47.7c3.1-1.8 7.3-1.5 12 1.2l57.2 33c9.4 5.4 17 18.6 17 29.4V139" stroke="#224CA1" stroke-width=".576" stroke-miterlimit="10" stroke-linecap="round" stroke-linejoin="bevel"/><path d="M59.2 66.8c1-.6 2.4-.5 4 .4l47.5 27.4c3.1 1.8 5.6 6.2 5.6 9.8v54.8c0 1.8-.6 3.1-1.7 3.7-1 .6-2.4.5-4-.4l-47.5-27.4c-3.1-1.8-5.6-6.2-5.6-9.8V70.5c0-1.8.7-3.1 1.7-3.7z" fill="#17222F"/><path d="M59.2 66.8c1-.6 2.4-.5 4 .4l47.5 27.4c3.1 1.8 5.6 6.2 5.6 9.8v54.8c0 1.8-.6 3.1-1.7 3.7" stroke="#224CA1" stroke-width=".576" stroke-miterlimit="10" stroke-linecap="round" stroke-linejoin="bevel"/><path d="M114.6 162.9c-1 .6-2.4.5-4-.4l-47.5-27.4c-3.1-1.8-5.6-6.2-5.6-9.8V70.5c0-1.8.6-3.1 1.7-3.7" stroke="#224CA1" stroke-width="1.728" stroke-miterlimit="10" stroke-linecap="round" stroke-linejoin="bevel"/><path d="M40.3 47.7c3.1-1.8 7.3-1.5 12 1.2l57.2 33c9.4 5.4 17 18.6 17 29.4V139" stroke="#224CA1" stroke-width=".576" stroke-miterlimit="10" stroke-linecap="round" stroke-linejoin="bevel"/><path d="M52.7 40.2c3.1-1.8 7.3-1.5 12 1.2l57.2 33c9.4 5.4 17 18.6 17 29.4v27.8" stroke="#224CA1" stroke-width=".576" stroke-miterlimit="10" stroke-linecap="round" stroke-linejoin="bevel"/><path d="M64.1 33.6c3.1-1.8 7.3-1.5 12 1.2l57.2 33c9.4 5.4 17 18.6 17 29.4V125" stroke="#224CA1" stroke-width=".576" stroke-miterlimit="10" stroke-linecap="round" stroke-linejoin="bevel"/><path d="M75.4 27.1c3.1-1.8 7.3-1.5 12 1.2l57.2 33c9.4 5.4 17 18.6 17 29.4v27.8" stroke="#224CA1" stroke-width=".576" stroke-miterlimit="10" stroke-linecap="round" stroke-linejoin="bevel"/><path d="M86.8 20.5c3.1-1.8 7.3-1.5 12 1.2l57.2 33c9.4 5.4 17 18.6 17 29.4v27.8" stroke="#224CA1" stroke-width=".576" stroke-miterlimit="10" stroke-linecap="round" stroke-linejoin="bevel"/><path d="M98.2 14c3.1-1.8 7.3-1.5 12 1.2l57.2 33c9.4 5.4 17 18.6 17 29.4v27.8" stroke="#224CA1" stroke-width=".576" stroke-miterlimit="10" stroke-linecap="round" stroke-linejoin="bevel"/><path d="M109.5 7.4c3.1-1.8 7.3-1.5 12 1.2l57.2 33c9.4 5.4 17 18.6 17 29.4v27.8m-57 40.2v31c0 5.4-1.9 9.2-5 11m16.4-48.5v31c0 5.4-1.9 9.2-5 11m16.4-48.5v31c0 5.4-1.9 9.2-5 11m16.5-48.5v31c0 5.4-1.9 9.2-5 11m16.4-48.5v31c0 5.4-1.9 9.2-5 11m16.4-48.5v31c0 5.4-1.9 9.2-5 11m14.7-47.9l-79.1 45.7m79.1-18.8l-79.1 45.6m78-35.7l-79 45.6m80.1-68.4l-79.1 45.7m79.1-80.6l-79.1 45.7m79.1-58.9l-79.1 45.7M202.5 52l-79.1 45.7m70.8-57.2l-79.1 45.7m68.2-53l-79.1 45.7m66.6-53L91.7 71.6m66.6-52.9L79.2 64.3m66.6-52.9L66.7 57m66.6-52.9l-79 45.6m79-45.6l-79 45.6m79-45.6l-79 45.6m79-45.6l-79 45.6m79-45.6l-79 45.6M125.6.9L46.5 46.5m19 90V68.6m8.4 72.7V73.4m8.5 72.7V78.3m8.5 72.7V83.1m8.5 72.7V87.9m8.5 72.7V92.8M57.1 73.1l59.2 33.3M57.1 82.9l59.2 33.3M57.2 92.8l59.1 33.2m-59.1-23.4l59.1 33.2m-59.1-23.4l59.1 33.1m-59-23.3l59 33.1" stroke="#224CA1" stroke-width=".576" stroke-miterlimit="10" stroke-linecap="round" stroke-linejoin="bevel"/></svg>