<svg width="241" height="249" fill="none" xmlns="http://www.w3.org/2000/svg"><path d="M191.1 177.6l-6.9 25.8-2.5 9.3-6.8 6.9-7.6 7.5-11.3 11.4-35.2 9.4-35.1-9.4-11.4-11.4-7.5-7.5-6.9-6.9-2.5-9.3-6.9-25.8 9.4-35.2 25.8-25.7 15.5-4.2 10.3-2.7 9.3-2.5 19.6 5.2 15.6 4.2 25.7 25.7 9.4 35.2z" fill="#18232D"/><path d="M156 157.3l12 29.3-26.9 2.7 14.9-32zm0 0l25.7 8.6 9.4 11.7-9.4-35.2-25.7-25.7-19.5-2.7-15.7 6.2-15.7-6.2 15.7-6.7 15.7 6.7 24.9 16.7-5.4 26.6z" stroke="#224CA1" stroke-width=".576" stroke-miterlimit="10" stroke-linecap="round" stroke-linejoin="bevel"/><path d="M152.3 213.9l-11.2-24.6-20.3 28.9 31.5-4.3zm0 0l-11.2 22.3 26.9-13.3 2.5-16.6-2.5-19.7 13.7-20.7 2 29.8 7.4-18.1-6.9 25.8-2.5 9.3-13.7 10.2-12 15.6-14.9-2.3-20.3-18-20.3-28.9-11.1 24.6-18.3-7.6-13.2-10.6 2 17 6.9 6.9 7.5 7.5 11.4 11.4-12-15.6-13.8-10.2-2.5-9.3-6.9-25.8 9.4-35.2" stroke="#224CA1" stroke-width=".576" stroke-miterlimit="10" stroke-linecap="round" stroke-linejoin="bevel"/><path d="M59.9 142.4l20.3-11.7 5.5-14 19.4-2.7-24.9 16.7 24.9 1.5 15.7-12 15.7 12 24.9-1.5 20.3 35.2v-23.5l-20.3-11.7-5.4-14-15.6-4.2-19.6-5.2-9.3 2.5-10.3 2.7-15.5 4.2-25.8 25.7zm0 0v23.5l-9.4 11.7 7.4 18.1 2-29.8 25.8-8.6 35.1-3.2 15.7-21.9 19.5 25.1-35.2-3.2 20.3 35.2h-40.6l20.3-35.2-15.7-21.9-19.4 25.1 14.8 32-26.8-2.7-13.8-20.7 20.3-35.2 5.5 26.6-12 29.3-2.6 19.7 2.6 16.6 26.8 13.3-11.1-22.3 31.4 4.3-20.3 18h40.6l-20.3 11.7-20.3-11.7-14.8 2.3 35.1 9.4" stroke="#224CA1" stroke-width=".576" stroke-miterlimit="10" stroke-linecap="round" stroke-linejoin="bevel"/><path d="M152.3 213.9l18.2-7.6 13.2-10.6-2 17-6.8 6.9-7.6 7.5-11.3 11.4-35.2 9.4" stroke="#224CA1" stroke-width=".576" stroke-miterlimit="10" stroke-linecap="round" stroke-linejoin="bevel"/><path d="M1 70.8c0 1.7 1.1 3.3 3.3 4.6L112.6 138c4.4 2.5 11.5 2.5 15.9 0l108.3-62.5c2.2-1.3 3.3-2.9 3.3-4.6v17.6c0 1.7-1.1 3.3-3.3 4.6l-108.3 62.5c-4.4 2.5-11.5 2.5-15.9 0L4.3 93C2.1 91.7 1 90.1 1 88.4V70.8z" fill="#18232D"/><path d="M240.1 88.4V70.8m0 17.6c0 1.7-1.1 3.3-3.3 4.6l-108.3 62.5c-4.4 2.5-11.5 2.5-15.9 0L4.3 93C2.1 91.7 1 90.1 1 88.4m0 0V70.8" stroke="#224CA1" stroke-width="1.728" stroke-miterlimit="10" stroke-linecap="round" stroke-linejoin="bevel"/><path d="M1 70.8c0-1.7 1.1-3.3 3.3-4.6L112.6 3.7c4.4-2.5 11.5-2.5 15.9 0l108.3 62.5c2.2 1.3 3.3 2.9 3.3 4.6 0 1.7-1.1 3.3-3.3 4.6L128.5 138c-4.4 2.5-11.5 2.5-15.9 0L4.3 75.4C2.1 74.2 1 72.5 1 70.8z" fill="#18232D"/><path d="M1 70.8c0-1.7 1.1-3.3 3.3-4.6L112.6 3.7c4.4-2.5 11.5-2.5 15.9 0l108.3 62.5c2.2 1.3 3.3 2.9 3.3 4.6" stroke="#224CA1" stroke-width="1.728" stroke-miterlimit="10" stroke-linecap="round" stroke-linejoin="bevel"/><path d="M240.1 70.8c0 1.7-1.1 3.3-3.3 4.6L128.5 138c-4.4 2.5-11.5 2.5-15.9 0L4.3 75.4C2.1 74.1 1 72.5 1 70.8" stroke="#224CA1" stroke-width=".576" stroke-miterlimit="10" stroke-linecap="round" stroke-linejoin="bevel"/><path d="M157.4 42.3s.1-.4.1-1v15.2c0 .7-.1 1-.1 1V42.3z" fill="#18232D"/><path d="M157.4 56.5V41.3m0 15.2c0 .7-.1 1-.1 1m.1 0V42.3m0 15.2V42.3" stroke="#224CA1" stroke-width="1.882" stroke-miterlimit="10" stroke-linecap="round" stroke-linejoin="bevel"/><path d="M47.6 40.1c0 11 10 20.1 13.7 22.2 6.1 3.5 8.7 5 8.7 5v15.2s-2.6-1.5-8.7-5c-3.7-2.1-13.7-11.3-13.7-22.2V40.1zM70 67.4s3.5 7.7 5.5 12.6c2 4.9 8.6 4.6 11.2 3.1 2.6-1.5 4.7-2.7 4.7-2.7v15.2s-2 1.2-4.7 2.7c-2.6 1.5-9.2 1.7-11.2-3.1-2-4.9-5.5-12.6-5.5-12.6V67.4z" fill="#18232D"/><path d="M91.4 80.4s8.3 4.8 14.5 8.4c6.3 3.6 16.4 1.1 19.3-1.6 2.9-2.7 7-6.4 7-6.4V96s-4.1 3.7-7 6.4c-2.9 2.7-13 5.3-19.3 1.6-6.3-3.6-14.5-8.4-14.5-8.4V80.4zm40.8.4l11.4 6.6v15.2l-11.4-6.5V80.8zm11.4 6.6l46-26.5v15.2l-46 26.5V87.4z" fill="#18232D"/><path d="M189.6 76.1V60.9m0 15.2l-46 26.5" stroke="#224CA1" stroke-width="1.882" stroke-miterlimit="10" stroke-linecap="round" stroke-linejoin="bevel"/><path d="M143.6 102.6V87.4" stroke="#224CA1" stroke-width=".627" stroke-miterlimit="10" stroke-linecap="round" stroke-linejoin="bevel"/><path d="M143.6 102.6l-11.4-6.5" stroke="#224CA1" stroke-width="1.882" stroke-miterlimit="10" stroke-linecap="round" stroke-linejoin="bevel"/><path d="M132.2 96.1V80.8" stroke="#224CA1" stroke-width=".627" stroke-miterlimit="10" stroke-linecap="round" stroke-linejoin="bevel"/><path d="M132.2 96.1s-4.1 3.7-7 6.4c-2.9 2.7-13 5.3-19.3 1.6-6.3-3.6-14.5-8.4-14.5-8.4" stroke="#224CA1" stroke-width="1.882" stroke-miterlimit="10" stroke-linecap="round" stroke-linejoin="bevel"/><path d="M91.4 95.6V80.4" stroke="#224CA1" stroke-width=".627" stroke-miterlimit="10" stroke-linecap="round" stroke-linejoin="bevel"/><path d="M91.4 95.6s-2 1.2-4.7 2.7c-2.6 1.5-9.2 1.7-11.2-3.1-2-4.9-5.5-12.6-5.5-12.6" stroke="#224CA1" stroke-width="1.882" stroke-miterlimit="10" stroke-linecap="round" stroke-linejoin="bevel"/><path d="M70 82.6V67.4" stroke="#224CA1" stroke-width=".627" stroke-miterlimit="10" stroke-linecap="round" stroke-linejoin="bevel"/><path d="M70 82.6s-2.6-1.5-8.7-5c-3.7-2.1-13.7-11.3-13.7-22.2m0-.1V40.1" stroke="#224CA1" stroke-width="1.882" stroke-miterlimit="10" stroke-linecap="round" stroke-linejoin="bevel"/><path d="M47.6 40.1c0-7 4.1-14.8 16.6-22.1 32-18.5 57.3-12.9 71.8-4.6 19.9 11.5 21.5 24.2 21.5 27.8 0 .7-.1 1-.1 1l32.2 18.6-45.9 26.5-11.4-6.6s-4.1 3.7-7 6.4c-2.9 2.7-13 5.3-19.3 1.6-6.3-3.6-14.5-8.4-14.5-8.4s-2 1.2-4.7 2.7c-2.6 1.5-9.2 1.7-11.2-3.1-2-4.9-5.5-12.6-5.5-12.6s-2.6-1.5-8.7-5c-3.8-2.1-13.8-11.2-13.8-22.2z" fill="#18232D"/><path d="M47.6 40.1c0-7 4.1-14.8 16.6-22.1 32-18.5 57.3-12.9 71.8-4.6 19.9 11.5 21.5 24.2 21.5 27.8" stroke="#224CA1" stroke-width="1.882" stroke-miterlimit="10" stroke-linecap="round" stroke-linejoin="bevel"/><path d="M157.4 41.3c0 .7-.1 1-.1 1" stroke="#224CA1" stroke-width=".627" stroke-miterlimit="10" stroke-linecap="round" stroke-linejoin="bevel"/><path d="M157.4 42.3l32.2 18.6" stroke="#224CA1" stroke-width="1.882" stroke-miterlimit="10" stroke-linecap="round" stroke-linejoin="bevel"/><path d="M189.6 60.9l-46 26.5m0 0l-11.4-6.6m0 0s-4.1 3.7-7 6.4c-2.9 2.7-13 5.3-19.3 1.6-6.3-3.6-14.5-8.4-14.5-8.4m0 0s-2 1.2-4.7 2.7c-2.6 1.5-9.2 1.7-11.2-3.1-2-4.9-5.5-12.6-5.5-12.6m0 0s-2.6-1.5-8.7-5c-3.7-2.1-13.7-11.3-13.7-22.2" stroke="#224CA1" stroke-width=".627" stroke-miterlimit="10" stroke-linecap="round" stroke-linejoin="bevel"/></svg>