<svg width="104" height="36" fill="none" xmlns="http://www.w3.org/2000/svg"><path d="M82.608 21.646h.456v-.912c-.342 0-.57.114-.683.456.114.228.227.342.227.456zM71.116 31.899c.228-.114.455-.114.569-.114 0-.57 0-.912.114-1.026l.341.228c.114-.227.114-.455.114-.57.341.229.569.456.682.57.114-.114.228-.114.456-.114v-.911l.227-.228.57.57v-.798c.227.342.454.57.682.798h.455c.114-.456.114-.684.114-.57 0-.57-.228-.797-.57-.797.342 0-.227.341-1.706.911a33.05 33.05 0 01-2.276.684c-.113 0-.227.227-.227.57-.114-.115.114.227.455.797zm-11.379 2.734c.342 0 .57-.114.683-.342.114-.228.228-.456.455-.683.114.114.228.341.114.683l.341-.683c.228.227.456.455.456.911h.796c-.341-.456-.569-.911-.91-1.367-.57-.684-.797-1.253-.683-1.709l-.683 1.367c-.455.684-.569 1.025-.569 1.14-.227.227-.113.455 0 .683zm-.227-.114v-.342h-.228v.342h.228zm-7.851 0l.682-.114-.113-1.14c-.342.229-.57.456-.683.684l.114.57zm-7.965-.114h.341c.228-.342.341-.684.569-.911.114.114.341.227.341.341 0-.341-.114-.57-.227-.911l-.57.57-.682.683c0 .228.114.228.228.228zm-6.372 0h.569c-.342-.342-.57-.57-.683-.797 0 0 .114.341.114.797zm-.57-.57c0-.114.114-.114.456-.227 0-.228-.114-.342-.455-.57l-.342.342c.114.228.228.341.342.455zm-.568.57c.114-.57.114-.797.114-.797-.342.341-.683.57-.91.797h.796zm-7.055 0l.683-.228c-.57-.456-.797-.797-.797-.911 0 .456.114.911.114 1.14zm-7.282-.228c0-.228-.228-.57-.683-1.025-.114.342-.114.683 0 1.14 0 0 .228-.115.683-.115zM0 19.025c.114-.114.114-.114.114-.227.569-.228.91-.684.91-1.254 0-.227 0-.455-.114-.797s-.114-.57-.114-.684c0-.57.342-.797 1.025-.911l.34.228c.57-.342.797-.57.797-.57h2.959c.227.114.341.228.227.228h13.2s1.024.114 3.072.456c1.934.228 3.413.455 4.437.57.797.113 1.252.227 1.48.341.341.228.682.57 1.138 1.025.227.228.568.342.91.342.341 0 .569-.114.569-.228-.57-.683-.91-1.139-1.138-1.253a44.155 44.155 0 00-4.665-.797c-1.48-.228-2.504-.342-3.186-.57-1.024-.228-1.821-.57-2.39-.797-.114 0-.228-.456-.228-1.254 0-.57-.227-1.025-.796-1.253-.114-.341-.114-.683-.227-.911-.683-.912-1.252-1.595-1.593-2.05.455 0 .682-.115.682-.456V.342L17.637 0h.796v7.86c.683-.227 1.024-.455.91-.455h.228s.114.114.228.114c.341 0 .569-.228.682-.57.228-1.48.455-3.417.342-5.924.341 2.734.569 4.671.796 6.038.57.342.683.456.455.456h11.72c.228 0 .456-.114.57-.456-.228-.228-.342-.57-.228-1.139h.569c0 .114.113.228.227.228l.228-.228c0-.57.114-1.14.227-1.481.228.228.57.456 1.138.456.114 0 .342 0 .683-.114.341 0 .455-.114.569-.114.114 0 .569.114 1.365.228.797.114 1.252.228 1.366.228.796 0 1.251-.228 1.365-.57-.796-.684-1.138-1.025-1.138-.911.455-.684.797-1.14 1.252-1.254 1.138-.57 2.048-.797 2.73-.797.114 0 .228.114.456.228.114.114.227.228.341.228h4.552l10.468.683-4.21.228c-1.366.114-2.39.228-3.072.342-.114 0-.228.114-.228.114-.91.228-1.365.455-1.593.683h-.91c-.114.342-.114.798-.114 1.367h-1.934c0-.683-.228-1.025-.683-1.025-.228 0-.797.114-1.82.342 0 .456 0 .683-.114.911-.228.228-.57.342-.797.57-.455.342-.683.57-.683.683 0 .57.228.798.797.798h1.48c.113 0 .34-.114.682-.57l.455.342h.455c.569-.684 1.024-1.253 1.252-1.709h4.324v.228c-.342.114-.57.228-.57.342 0 .114 0 .228-.113.57 0 .341-.114.455-.114.569 0-.456.228 0 .683 1.253l7.168.798c.114 0 .228 0 .455-.114.114-.114.342-.114.456-.114.569 0 1.706.114 3.186.455.455.57.796 1.026 1.024 1.368.113 0 .341.114.569.114h6.03c.114 0 .341.113.797.227.455.114.682.228.796.228h4.096c.57-.57 1.707-.911 3.414-.911 1.48 0 2.276 0 2.617.114.341.228.569.455.797.683.341.114.569.114.796.114.114.228.114.342.228.456h15.361c.113-.114.114-.228.114-.342h1.137c.569.456.911.684 1.252.57v1.823c-1.138.341-1.934.57-2.503.57H86.363c-.227.227-.341.227-.341.227H68.954c-.227 0-.227.114-.227.228-1.252 0-2.162.114-2.504.228a13.024 13.024 0 00-.683 1.595c-.569 0-.796.114-1.024.228.797.113 1.252.57 1.366 1.48.341 0 .569 0 .796-.114.228 0 .342-.113.456-.113-.114 0 .34.341 1.251.911h10.923c.114 0 .57.228 1.252.57.797.341 1.138.57 1.252.57-.114 0 .114-.115.455-.342h1.707c.341.57.569.797.569.683 0 .114-.342.797-.91 2.05 0 .342.227.57.682.798v.456c-.227.114-.341.114-.455.114-.228-.228-.455-.456-.569-.684h-.227c-1.366 1.937-2.276 3.19-2.845 4.101.227.57-.228 1.026-1.252 1.595-.227.114-.455.114-.569.114v.342c-.796.456-1.479.798-1.82.912-.456.227-.683.455-.91.683-.342.456-.57.456-.797.456-.455.341-.91.683-1.252 1.025-.796.456-1.593.797-2.503 1.14l-.569.569c-2.39.797-3.413 1.253-3.072 1.253-18.775 0-32.998 0-42.67.114-.113 0-.227 0-.341-.114-.114-.114-.228-.114-.341-.114-.114 0-.114 0-.228.114 0 .114-.114.114-.228.114-.113 0-1.138-.114-2.958-.228-1.934-.114-2.845-.228-2.959-.228-.113 0-.227.114-.34.228l-.228.228s-.114-.114-.455-.228h-1.821c-.683 0-1.138-.228-1.48-.57-.227-.227-.34-.455-.454-.57-.456-.113-.91-.34-1.366-.683-.227-.227-.455-.455-.569-.683-.341-.114-.796-.456-1.138-.798a21 21 0 00-2.048-1.822c-.114-.57-.683-.798-1.024-1.026-.569-.57-1.138-1.367-1.707-2.506C4.096 27 3.527 27 3.527 27c-.341.456-.682.683-.91.683-.683 0-1.024-.455-1.024-1.253 0-.57.228-.911.796-1.367 0-.797-.227-1.253-.796-1.253-.569 0-.797.228-.797.57H0v-5.355z" fill="#fff"/></svg>