<svg width="66" height="66" fill="none" xmlns="http://www.w3.org/2000/svg"><path fill-rule="evenodd" clip-rule="evenodd" d="M12.11 7.067c-1.594 1.613-2.037 2.122-2.09 2.408-.055.3.036.566.524 1.535 1.187 2.357 1.579 4.103 1.662 7.405.068 2.717-.033 3.587-.833 7.191-.926 4.169-1.23 6.498-1.35 10.357-.076 2.43.037 4.099.388 5.685.717 3.251 2.284 5.963 4.96 8.588 2.917 2.858 6.728 5.334 14.198 9.22C32.038 60.74 32.616 61 33.003 61c.388 0 .966-.26 3.434-1.544 8-4.162 12.019-6.846 14.91-9.957 3.712-3.992 4.932-7.838 4.595-14.48-.19-3.77-.425-5.438-1.35-9.607-.756-3.401-.858-4.309-.79-6.997.083-3.311.483-5.09 1.661-7.393.857-1.674.911-1.53-1.52-4.005L51.98 5.02h-.492c-.331 0-.757.123-1.308.379-3.137 1.452-6.649 2.125-9.485 1.815-2.122-.231-4.532-.9-6.39-1.77-1.146-.538-1.461-.537-2.62.007-2.684 1.26-6.126 1.985-8.647 1.822-2.386-.155-4.936-.823-7.292-1.91-1.363-.63-1.3-.66-3.636 1.703zm21.62 11.227c.133.13.945 1.902 1.809 3.95.86 2.043 1.623 3.769 1.694 3.835.07.066 1.774.355 3.786.642 2.012.287 3.793.592 3.958.677.39.203.668.788.568 1.2-.05.21-.99 1.245-2.837 3.13l-2.762 2.816 1.058 4.235c.582 2.33 1.082 4.42 1.112 4.645.048.359.008.458-.322.793-.27.274-.472.383-.712.383-.238 0-1.45-.648-4.207-2.25l-3.872-2.25-3.872 2.25c-2.57 1.494-3.976 2.25-4.181 2.25-.373 0-.853-.36-.999-.75-.086-.229.107-1.151 1.002-4.795l1.108-4.511-2.762-2.817c-1.847-1.884-2.787-2.92-2.837-3.129-.1-.412.177-.997.568-1.2.165-.085 1.946-.39 3.958-.677 2.012-.287 3.716-.576 3.786-.642.07-.066.842-1.814 1.714-3.883.873-2.07 1.675-3.84 1.784-3.936a1.053 1.053 0 011.458.034z" fill="#0050A2"/></svg>