<svg width="66" height="66" fill="none" xmlns="http://www.w3.org/2000/svg"><path fill-rule="evenodd" clip-rule="evenodd" d="M12.46 5.138c-1.872.408-3.575 1.383-4.938 2.826-1.004 1.064-1.639 2.123-2.145 3.58l-.361 1.04-.014 9.357c-.01 5.882.02 8.992.08 8.373.315-3.266 1.304-6.731 2.74-9.602l.533-1.066v-3.06c0-2.955.01-3.09.271-3.915.631-1.985 2.127-3.455 4.147-4.072.686-.21 1.016-.23 3.807-.23h3.056l1.065-.532c2.875-1.437 6.361-2.43 9.605-2.737.623-.06-2.357-.096-8.101-.1-7.1-.004-9.231.026-9.744.138zm23.21-.039c3.264.32 6.693 1.287 9.507 2.683l1.186.588 3.03.001c3.329.001 3.7.052 4.908.665 1.423.722 2.552 2.067 3.05 3.635.262.824.271.961.271 3.898v3.043l.719 1.493c1.389 2.888 2.293 6.278 2.603 9.756.021.24.034-3.773.028-8.92l-.01-9.358-.362-1.04c-.57-1.64-1.129-2.529-2.376-3.775-1.246-1.247-2.135-1.805-3.777-2.375l-1.04-.361-9.36-.015c-5.966-.009-9.004.02-8.377.082zm-4.597 3.117c-1.126.114-2.965.397-3.038.468-.07.069 1.11 15.647 1.194 15.762.018.024.42-.085.893-.242a9.188 9.188 0 015.733 0c.474.157.876.266.893.242.085-.116 1.265-15.694 1.195-15.762-.288-.28-5.33-.624-6.87-.468zm-7.117 1.623c-5.054 1.96-9.436 5.68-12.319 10.46-.99 1.642-2.19 4.302-2.018 4.474.053.054 16.493 1.439 16.54 1.393.006-.006-.29-3.742-.657-8.302-.41-5.08-.71-8.288-.778-8.285-.061.003-.406.12-.768.26zm16.52 8.02c-.367 4.563-.663 8.302-.656 8.31.023.026 16.544-1.312 16.586-1.344.166-.128-1.14-2.99-2.066-4.526-2.232-3.701-5.21-6.64-8.931-8.811-1.216-.71-3.337-1.697-3.99-1.857l-.275-.068-.668 8.296zM8.649 28.037c-.033.054-.148.663-.255 1.352-.27 1.74-.27 5.47 0 7.217.107.693.23 1.295.274 1.34.093.095 15.576-1.117 15.704-1.23.048-.041-.036-.442-.187-.89-.597-1.779-.597-3.883 0-5.662.15-.448.235-.849.187-.89-.048-.042-3.339-.332-7.313-.643A938.357 938.357 0 019.272 28c-.31-.034-.59-.018-.623.036zm40.525.564c-4.135.34-7.549.649-7.586.686-.037.037.055.433.205.88.596 1.775.596 3.881 0 5.656-.15.447-.242.843-.205.88.105.104 15.637 1.33 15.724 1.24.143-.146.427-2.45.493-4.002.066-1.557-.077-3.832-.328-5.215-.124-.682-.142-.711-.457-.727-.18-.009-3.712.262-7.846.602zM5.002 44.049l.014 9.357.361 1.04c.57 1.641 1.13 2.53 2.376 3.776C9 59.468 9.888 60.027 11.53 60.597l1.04.361 9.361.014c5.884.01 8.995-.02 8.375-.08-3.266-.315-6.733-1.304-9.605-2.74l-1.065-.532H16.58c-2.79 0-3.121-.02-3.807-.23-2.02-.617-3.516-2.086-4.147-4.071-.261-.825-.27-.96-.27-3.915v-3.06l-.534-1.066c-1.436-2.871-2.425-6.336-2.74-9.602-.06-.619-.09 2.491-.08 8.373zm55.931-8.825c-.139 2.776-1.225 6.817-2.6 9.676l-.71 1.478v3.043c0 2.937-.01 3.074-.272 3.898-.63 1.985-2.127 3.454-4.147 4.072-.685.21-1.016.229-3.806.229h-3.056l-1.066.533c-2.875 1.436-6.36 2.43-9.605 2.737-.628.06 2.288.098 8.047.106 9.857.014 9.644.026 11.334-.627 1.191-.46 2.132-1.094 3.179-2.14 1.047-1.047 1.68-1.988 2.141-3.18.66-1.703.648-1.5.617-11.352-.016-4.953-.04-8.766-.056-8.473zM17.807 40.48c-4.466.368-8.151.7-8.188.738-.172.172 1.028 2.832 2.018 4.474 2.576 4.27 6.24 7.611 10.677 9.733 1.131.54 2.445 1.056 2.5.98.03-.038 1.292-16.345 1.282-16.542a.072.072 0 00-.087-.067c-.045.008-3.736.315-8.202.684zm22.107.034c.033.41.324 4.158.646 8.33l.585 7.583.274-.067c1.036-.252 3.707-1.605 5.42-2.745 2.549-1.697 5.083-4.23 6.776-6.774 1.142-1.717 2.494-4.383 2.746-5.42l.068-.275-8.025-.633c-4.414-.349-8.144-.659-8.288-.689-.261-.055-.262-.051-.202.69zm-10.757 1.092c0 .086-.272 3.636-.603 7.888-.332 4.252-.566 7.767-.52 7.81.246.237 2.71.471 4.955.472 2.253 0 4.713-.232 4.955-.47.045-.044-.189-3.56-.52-7.812-.332-4.252-.603-7.802-.603-7.888 0-.124-.191-.091-.904.154a11.29 11.29 0 01-1.916.432 9.036 9.036 0 01-3.941-.432c-.712-.245-.903-.278-.903-.154z" fill="#0050A2"/></svg>