<svg width="66" height="66" fill="none" xmlns="http://www.w3.org/2000/svg"><path fill-rule="evenodd" clip-rule="evenodd" d="M31.171 5.198a9.751 9.751 0 00-1.506.606c-1.36.695-22.513 12.219-22.88 12.464-.189.126-.443.41-.564.63-.214.386-.221.56-.221 5.176 0 5.12-.004 5.08.555 5.603.36.338 1.027.496 1.513.36.217-.061 5.322-2.799 11.345-6.084 6.024-3.285 11.362-6.175 11.864-6.422 1.308-.643 2.138-.643 3.446 0 .502.247 5.842 3.138 11.867 6.424 6.025 3.286 11.133 6.024 11.352 6.083.488.134 1.141-.023 1.504-.362.558-.521.554-.482.554-5.602 0-4.616-.007-4.79-.22-5.177a2.137 2.137 0 00-.566-.629c-.405-.27-21.694-11.862-22.942-12.491-.468-.236-1.17-.51-1.558-.608-.942-.237-2.63-.223-3.543.029zm.92 15.332a7.47 7.47 0 00-1.398.33c-.358.133-5.943 3.123-12.41 6.646-11.293 6.15-11.77 6.422-12.02 6.86L6 34.82v4.725c0 5.064.01 5.167.55 5.665.336.309.964.475 1.408.372.469-.108-.135.214 12.488-6.665 6.082-3.314 11.307-6.1 11.61-6.192.698-.21 1.19-.21 1.887 0 .304.092 5.529 2.878 11.61 6.192 12.624 6.879 12.02 6.557 12.49 6.665.443.103 1.07-.063 1.406-.372.541-.498.551-.601.551-5.665V34.82l-.262-.455c-.252-.437-.728-.708-12.021-6.858-6.467-3.522-12.025-6.503-12.35-6.625-.534-.2-1.004-.288-2.152-.404-.207-.02-.712.003-1.123.052zm-.077 15.432a7.725 7.725 0 00-1.399.347c-.562.21-23.152 12.438-23.949 12.965-.136.09-.342.351-.457.58-.197.394-.209.68-.209 5.153 0 5.28-.005 5.237.742 5.745l.366.248h51.784l.366-.248c.747-.508.742-.466.742-5.745 0-4.474-.012-4.76-.209-5.152-.115-.23-.32-.49-.457-.581-.783-.518-23.382-12.754-23.934-12.96-.566-.21-2.203-.505-2.559-.46l-.827.108zm1.71 8.589c.276.175.462.516.72 1.32.117.364.318.69.557.903.34.304.442.334 1.15.34 1.32.01 1.858.355 1.978 1.27.05.382.013.491-.293.845a5.306 5.306 0 01-.81.728 1.63 1.63 0 00-.64.807c-.177.47-.175.517.044 1.25.125.418.227.906.227 1.083 0 .46-.422 1.043-.86 1.188-.479.16-.841.049-1.648-.502-.525-.358-.739-.44-1.149-.44-.41 0-.624.082-1.148.44-.808.55-1.17.661-1.65.502-.437-.145-.86-.728-.86-1.188 0-.177.103-.665.228-1.084.219-.732.22-.78.044-1.248a1.633 1.633 0 00-.64-.808 5.306 5.306 0 01-.81-.728c-.306-.354-.344-.463-.293-.844.12-.916.658-1.26 1.979-1.271.707-.006.81-.036 1.15-.34.258-.231.442-.546.601-1.033.126-.385.326-.825.444-.978.37-.477 1.113-.57 1.679-.212z" fill="#0050A2"/></svg>