<svg width="71" height="62" fill="none" xmlns="http://www.w3.org/2000/svg"><path d="M39.586 34.223a4.446 4.446 0 002.088.482 4.44 4.44 0 002.089-.482c.643-.322 1.125-.643 1.446-1.286.321-.482.643-1.124.964-1.767.16-.643.321-1.446.321-2.089 0-.482 0-1.124-.16-1.606l-6.748 6.748s-.161 0 0 0z" fill="#005BAA"/><path d="M66.257 35.83c5.141-4.982 6.266-13.015 2.57-19.12-1.606-2.571-3.695-4.5-6.266-5.785L49.226 24.261c.16.482.482.803.642 1.285.322 1.125.482 2.25.482 3.535 0 1.767-.32 3.213-.964 4.66-.642 1.285-1.606 2.41-3.052 3.213-1.286.803-2.892 1.124-4.82 1.124-1.607 0-2.892-.16-4.017-.642-.321-.16-.482-.322-.803-.482L19.34 54.306c1.125-.16 2.089-.642 3.214-1.124.32-.161.642-.483 1.124 0 7.712 5.141 16.389 4.82 23.78-.804.16-.16.642-.16.963-.16 1.447.32 2.893 1.124 4.339 1.285 8.997.803 15.745-7.552 13.014-16.228 0-.642 0-.964.482-1.446zm-5.784 5.301h-8.516v-1.928c.322-.16.643-.482.964-.803.322-.322.643-.482.964-.803.804-.643 1.446-1.125 1.928-1.607s.964-.964 1.125-1.285c.321-.483.482-.804.482-1.286s-.16-.803-.482-1.125c-.321-.16-.803-.16-1.446-.16-.321 0-.643 0-1.125.16-.321.161-.803.161-1.124.482-.322.161-.804.322-1.125.643l-.16-2.892c.32-.16.642-.16.963-.321.322-.161.643-.161.964-.322.322-.16.804-.16 1.125-.16h1.125c.964 0 1.606.16 2.249.482.643.321 1.125.642 1.446 1.124.321.482.482 1.125.482 1.768 0 .642-.16 1.124-.321 1.607-.161.482-.643 1.124-1.125 1.606s-1.125 1.125-1.928 1.607l-.964.642h4.499v2.571zM64.65 0l-9.319 9.319c-1.446 0-3.052.321-4.66.803-.642.16-.963.16-1.445-.321-4.82-5.302-10.765-7.712-17.835-6.748-6.748.803-11.89 4.338-15.263 10.122-.16.482-.482.643-1.125.482-1.767-.16-3.695 0-5.463.482-4.98 1.607-8.355 4.82-9.319 9.962-.964 5.141 1.286 9.158 5.463 12.21.16.161.322.161.482.322-.16.16-.16.321-.16.642-1.125 2.571-1.446 5.303-.804 8.034.964 3.535 3.214 6.266 6.266 7.873l-6.105 6.105 2.25 2.25L66.9 2.249 64.65 0zM33.64 24.582c.643-1.285 1.608-2.41 2.893-3.213 1.285-.803 2.892-1.125 4.98-1.125.965 0 1.768.161 2.571.322l-3.052 3.053a2.71 2.71 0 00-1.607.482c-.643.32-1.125.642-1.446 1.285-.482.482-.643 1.125-.964 1.767 0 .322-.16.482-.16.804l-4.017 4.016c-.161-.803-.322-1.606-.322-2.57.16-1.928.482-3.535 1.125-4.82zm-8.354 13.336c-1.446 0-2.731-.16-3.856-.642-1.125-.483-2.089-.965-2.892-1.768-.803-.803-1.446-1.767-1.768-2.892-.482-1.125-.642-2.25-.642-3.695 0-1.768.321-3.214 1.125-4.66.803-1.446 1.767-2.41 3.052-3.213 1.286-.804 2.892-1.125 4.66-1.125.482 0 1.124 0 1.606.16.482.161 1.125.161 1.607.322l1.446.482c.482.16.803.321 1.125.482l-.322 3.695c-.642-.32-1.285-.642-1.767-.963-.643-.161-1.125-.482-1.607-.482s-.964-.161-1.606-.161c-.964 0-1.928.16-2.571.643-.803.482-1.285 1.124-1.767 1.928-.483.803-.643 1.928-.643 3.052 0 .804.16 1.446.321 2.089.16.643.643 1.285.964 1.767.482.482.964.964 1.768 1.286.642.321 1.446.482 2.41.482h1.124c.322 0 .804-.16 1.125-.322.321-.16.803-.32 1.125-.482.321-.16.803-.482 1.124-.642v.964l-3.695 3.695h-1.446z" fill="#005BAA"/></svg>