<svg width="67" height="62" fill="none" xmlns="http://www.w3.org/2000/svg"><g clip-path="url(#clip0_338_253)" fill="#005BAA"><path d="M33.5 50.331c-9.945 0-19.367-4.876-25.3-12.887-.523-.697-.348-1.916.35-2.438.697-.523 1.919-.349 2.442.348 5.235 7.14 13.61 11.494 22.508 11.494s17.273-4.353 22.508-11.494c.523-.697 1.745-.87 2.442-.348.698.522.873 1.741.35 2.438-5.933 8.011-15.355 12.887-25.3 12.887z"/><path d="M33.5 62C20.589 62 8.55 56.253.349 46.326c-.698-.697-.523-1.916.174-2.438.698-.697 1.92-.523 2.443.174 7.503 9.056 18.67 14.28 30.534 14.28 11.865 0 22.857-5.224 30.534-14.28.698-.697 1.745-.871 2.443-.174.697.696.872 1.741.174 2.438C58.451 56.426 46.411 62 33.5 62z"/><path d="M33.5 50.331c-9.945 0-19.367-4.876-25.3-12.887-.523-.697-.348-1.916.35-2.438.697-.523 1.919-.349 2.442.348 5.235 7.14 13.61 11.494 22.508 11.494s17.273-4.353 22.508-11.494c.523-.697 1.745-.87 2.442-.348.698.522.873 1.741.35 2.438-5.933 8.011-15.355 12.887-25.3 12.887zM54.786 0H12.214c-.524 0-.873.348-.873 1.045v5.747c0 1.568 1.222 2.96 2.966 2.96h38.56c1.57 0 2.966-1.218 2.966-2.96V1.045C55.66.348 55.31 0 54.786 0z"/><path d="M15.18 11.32v6.27c0 9.927 7.677 18.287 17.448 18.809 10.468.522 19.192-7.837 19.192-18.287V11.32H15.18zM33.5 28.736c-2.617 0-4.885-2.09-4.885-4.876 0-2.613 2.093-4.877 4.885-4.877 2.617 0 4.885 2.09 4.885 4.877 0 2.612-2.268 4.876-4.885 4.876zm11.69-9.753c-.523 0-1.047-.348-1.047-1.045 0-.522.35-1.045 1.047-1.045.524 0 1.047.349 1.047 1.045-.175.697-.523 1.045-1.047 1.045z"/></g><defs><clipPath id="clip0_338_253"><path fill="#fff" d="M0 0h67v62H0z"/></clipPath></defs></svg>